{
classes = (
{
code = "zero four five six seven eight nine zero.onum four.onum five.onum six.onum seven.onum eight.onum nine.onum";
name = aalt;
},
{
code = "zero.onum four.onum five.onum six.onum seven.onum eight.onum nine.onum zero four five six seven eight nine";
name = aalt2;
},
{
code = "zero.onum one.onum two.onum three.onum four.onum five.onum six.onum seven.onum eight.onum nine.onum";
name = lnum_onum;
},
{
code = "zero one two three four five six seven eight nine";
name = lnum_onum_ordn;
}
);
copyright = "Copyright (c) 2022, Duarte Pinto (duarte.pinto02@gmail.com)";
designer = "Duarte Pinto";
designerURL = "duarte.pinto02@gmail.com";
familyName = Gloock;
customParameters = (
{
name = glyphOrder;
value = (
.notdef,
uni0000,
uni000D,
space,
A,
B,
C,
D,
E,
F,
G,
H,
I,
J,
K,
L,
M,
N,
O,
P,
Q,
R,
S,
T,
U,
V,
W,
X,
Y,
Z,
a,
b,
c,
d,
e,
f,
g,
h,
i,
j,
k,
l,
m,
n,
o,
p,
q,
r,
s,
t,
u,
v,
w,
x,
y,
z,
exclam,
asterisk,
plus,
comma,
hyphen,
period,
slash,
zero,
one,
two,
three,
four,
five,
six,
seven,
eight,
nine,
colon,
semicolon,
less,
equal,
greater,
question,
backslash,
asciicircum,
uni000D.1,
zero.onum,
one.onum,
two.onum,
three.onum,
four.onum,
five.onum,
six.onum,
seven.onum,
eight.onum,
nine.onum,
tilde,
quotesingle,
quotedbl,
numbersign,
at,
dollar,
Euro,
percent,
ampersand,
parenleft,
parenright,
braceleft,
bar,
braceright,
bracketleft,
bracketright,
quoteleft,
quoteright,
quotedblleft,
quotedblright,
quotesinglbase,
quotedblbase,
bullet,
underscore,
endash,
emdash,
macron,
logicalnot,
registered,
copyright,
currency,
cent,
yen,
minus,
plusminus,
multiply,
divide,
brokenbar,
ellipsis,
periodcentered,
exclamdown,
questiondown,
degree,
ordfeminine,
ordmasculine,
onesuperior,
twosuperior,
threesuperior,
fraction,
onequarter,
onehalf,
threequarters,
perthousand,
paragraph,
section,
dagger,
daggerdbl,
asciitilde,
guilsinglleft,
guilsinglright,
guillemotleft,
guillemotright,
breve,
dotaccent,
ring,
hungarumlaut,
caron,
grave,
circumflex,
dieresis,
acute,

glyphs = (
{
glyphname = A;
layers = (
{
hints = (
{
horizontal = 1;
place = "{0, 10}";
type = Stem;
},
{
horizontal = 1;
place = "{263, 13}";
type = Stem;
},
{
horizontal = 1;
place = "{765, -20}";
target = down;
type = TopGhost;
},
{
place = "{-24, 111}";
type = Stem;
}
);
layerId = "E71AC35F-0C69-4082-8C40-135C79A9FCEF";
paths = (
{
nodes = (
"77 119 LINE SMOOTH",
"55 66 OFFCURVE",
"13 13 OFFCURVE",
"-24 10 CURVE",
"-24 0 LINE",
"171 0 LINE",
"171 10 LINE",
"105 13 OFFCURVE",
"70 66 OFFCURVE",
"94 124 CURVE SMOOTH",
"150 263 LINE",
"391 263 LINE",
"451 114 LINE SMOOTH",
"477 49 OFFCURVE",
"455 10 OFFCURVE",
"395 10 CURVE SMOOTH",
"391 10 LINE",
"391 0 LINE",
"711 0 LINE",
"711 10 LINE",
"708 10 LINE SMOOTH",
"673 10 OFFCURVE",
"639 48 OFFCURVE",
"610 119 CURVE SMOOTH",
"350 765 LINE",
"341 765 LINE"
);
},
{
nodes = (
"272 564 LINE",
"386 276 LINE",
"155 276 LINE"
);
}
);
width = 684;
}
);
leftKerningGroup = A2;
rightKerningGroup = A;
unicode = 0041;
},
{
glyphname = B;
layers = (
{
hints = (
{
horizontal = 1;
place = "{0, 13}";
type = Stem;
},
{
horizontal = 1;
place = "{422, 15}";
type = Stem;
},
{
horizontal = 1;
place = "{737, 13}";
type = Stem;
},
{
horizontal = 1;
place = "{740, 10}";
type = Stem;
},
{
place = "{81, 154}";
type = Stem;
},
{
place = "{411, 152}";
type = Stem;
},
{
place = "{472, 160}";
type = Stem;
}
);
layerId = "E71AC35F-0C69-4082-8C40-135C79A9FCEF";
paths = (
{
nodes = (
"0 0 LINE",
"311 0 LINE SMOOTH",
"503 0 OFFCURVE",
"632 93 OFFCURVE",
"632 232 CURVE SMOOTH",
"632 344 OFFCURVE",
"533 423 OFFCURVE",
"384 430 CURVE",
"491 444 OFFCURVE",
"563 505 OFFCURVE",
"563 582 CURVE SMOOTH",
"563 683 OFFCURVE",
"457 750 OFFCURVE",
"297 750 CURVE SMOOTH",
"0 750 LINE",
"0 740 LINE",
"1 740 LINE",
"47 740 OFFCURVE",
"78 711 OFFCURVE",
"81 666 CURVE",
"81 84 LINE SMOOTH",
"81 40 OFFCURVE",
"48 10 OFFCURVE",
"1 10 CURVE",
"0 10 LINE"
);
},
{
nodes = (
"235 437 LINE",
"235 737 LINE",
"297 737 LINE SMOOTH",
"365 737 OFFCURVE",
"411 677 OFFCURVE",
"411 586 CURVE SMOOTH",
"411 496 OFFCURVE",
"365 437 OFFCURVE",
"297 437 CURVE SMOOTH"
);
},
{
nodes = (
"259 13 OFFCURVE",
"235 35 OFFCURVE",
"235 84 CURVE SMOOTH",
"235 422 LINE",
"297 422 LINE SMOOTH",
"402 422 OFFCURVE",
"472 341 OFFCURVE",
"472 220 CURVE SMOOTH",
"472 94 OFFCURVE",
"409 13 OFFCURVE",
"311 13 CURVE SMOOTH"
);
}
);
width = 657;
}
);
leftKerningGroup = B;
unicode = 0042;
},
{
glyphname = C;
layers = (
{
hints = (
{
horizontal = 1;
place = "{-14, 16}";
type = Stem;
},
{
horizontal = 1;
place = "{751, 13}";
type = Stem;
},
{
place = "{37, 170}";
type = Stem;
}
);
layerId = "E71AC35F-0C69-4082-8C40-135C79A9FCEF";
paths = (
{
nodes = (
"684 748 LINE",
"585 748 OFFCURVE",
"570 764 OFFCURVE",
"483 764 CURVE SMOOTH",
"212 764 OFFCURVE",
"37 612 OFFCURVE",
"37 376 CURVE SMOOTH",
"37 142 OFFCURVE",
"211 -14 OFFCURVE",
"472 -14 CURVE SMOOTH",
"560 -14 OFFCURVE",
"603 4 OFFCURVE",
"700 4 CURVE",
"729 220 LINE",
"719 220 LINE",
"699 84 OFFCURVE",
"610 2 OFFCURVE",
"483 2 CURVE SMOOTH",
"315 2 OFFCURVE",
"207 146 OFFCURVE",
"207 369 CURVE SMOOTH",
"207 594 OFFCURVE",
"316 751 OFFCURVE",
"472 751 CURVE SMOOTH",
"586 751 OFFCURVE",
"681 668 OFFCURVE",
"704 548 CURVE",
"714 548 LINE"
);
}
);
width = 742;
}
);
leftKerningGroup = C;
unicode = 0043;
},
{
glyphname = D;
layers = (
{
hints = (
{
horizontal = 1;
place = "{0, 10}";
type = Stem;
},
{
horizontal = 1;
place = "{0, 13}";
type = Stem;
},
{
horizontal = 1;
place = "{736, 14}";
type = Stem;
},
{
horizontal = 1;
place = "{740, 10}";
type = Stem;
},
{
place = "{81, 154}";
type = Stem;
},
{
place = "{620, 170}";
type = Stem;
}
);
layerId = "E71AC35F-0C69-4082-8C40-135C79A9FCEF";
paths = (
{
nodes = (
"323 0 LINE SMOOTH",
"605 0 OFFCURVE",
"790 130 OFFCURVE",
"790 374 CURVE SMOOTH",
"790 620 OFFCURVE",
"605 750 OFFCURVE",
"323 750 CURVE SMOOTH",
"1 750 LINE",
"1 740 LINE",
"47 740 OFFCURVE",
"81 710 OFFCURVE",
"81 665 CURVE SMOOTH",
"81 84 LINE SMOOTH",
"81 39 OFFCURVE",
"49 10 OFFCURVE",
"0 10 CURVE",
"0 0 LINE"
);
},
{
nodes = (
"305 13 LINE SMOOTH",
"253 13 OFFCURVE",
"235 42 OFFCURVE",
"235 84 CURVE SMOOTH",
"235 736 LINE",
"323 736 LINE SMOOTH",
"502 736 OFFCURVE",
"620 612 OFFCURVE",
"620 376 CURVE SMOOTH",
"620 139 OFFCURVE",
"502 13 OFFCURVE",
"323 13 CURVE SMOOTH"
);
}
);
width = 827;
}
);
leftKerningGroup = B;
rightKerningGroup = D;
unicode = 0044;
},
{
glyphname = E;
layers = (
{
hints = (
{
horizontal = 1;
place = "{0, 10}";
type = Stem;
},
{
horizontal = 1;
place = "{0, 13}";
type = Stem;
},
{
horizontal = 1;
place = "{435, 13}";
type = Stem;
},
{
horizontal = 1;
place = "{737, 13}";
type = Stem;
},
{
horizontal = 1;
place = "{740, 10}";
type = Stem;
},
{
place = "{90, 154}";
type = Stem;
},
{
place = "{444, 10}";
type = Stem;
}
);
layerId = "E71AC35F-0C69-4082-8C40-135C79A9FCEF";
paths = (
{
nodes = (
"314 13 LINE SMOOTH",
"267 13 OFFCURVE",
"244 37 OFFCURVE",
"244 84 CURVE SMOOTH",
"244 435 LINE",
"323 435 LINE SMOOTH",
"395 435 OFFCURVE",
"443 385 OFFCURVE",
"444 313 CURVE",
"454 313 LINE",
"454 559 LINE",
"444 559 LINE",
"444 493 OFFCURVE",
"400 448 OFFCURVE",
"334 448 CURVE SMOOTH",
"244 448 LINE",
"244 737 LINE",
"328 737 LINE SMOOTH",
"466 737 OFFCURVE",
"545 674 OFFCURVE",
"565 549 CURVE",
"575 549 LINE",
"545 750 LINE",
"9 750 LINE",
"10 740 LINE",
"58 740 OFFCURVE",
"90 708 OFFCURVE",
"90 660 CURVE SMOOTH",
"90 84 LINE SMOOTH",
"90 36 OFFCURVE",
"58 10 OFFCURVE",
"10 10 CURVE",
"9 10 LINE",
"8 0 LINE",
"563 0 LINE",
"593 220 LINE",
"583 220 LINE",
"562 78 OFFCURVE",
"484 13 OFFCURVE",
"356 13 CURVE SMOOTH"
);
}
);
width = 606;
}
);
leftKerningGroup = B;
rightKerningGroup = E;
unicode = 0045;
},
{
glyphname = F;
layers = (
{
hints = (
{
horizontal = 1;
place = "{0, 10}";
type = Stem;
},
{
horizontal = 1;
place = "{423, 13}";
type = Stem;
},
{
horizontal = 1;
place = "{737, 13}";
type = Stem;
},
{
horizontal = 1;
place = "{740, 10}";
type = Stem;
},
{
place = "{85, 154}";
type = Stem;
},
{
place = "{427, 10}";
type = Stem;
}
);
layerId = "E71AC35F-0C69-4082-8C40-135C79A9FCEF";
paths = (
{
nodes = (
"319 10 LINE",
"274 10 OFFCURVE",
"239 38 OFFCURVE",
"239 82 CURVE SMOOTH",
"239 423 LINE",
"307 423 LINE SMOOTH",
"379 423 OFFCURVE",
"427 371 OFFCURVE",
"427 299 CURVE",
"437 299 LINE",
"437 549 LINE",
"427 549 LINE",
"427 483 OFFCURVE",
"383 436 OFFCURVE",
"317 436 CURVE SMOOTH",
"239 436 LINE",
"239 737 LINE",
"322 737 LINE SMOOTH",
"460 737 OFFCURVE",
"540 673 OFFCURVE",
"560 548 CURVE",
"569 548 LINE",
"539 750 LINE",
"4 750 LINE",
"5 740 LINE",
"53 740 OFFCURVE",
"85 708 OFFCURVE",
"85 660 CURVE SMOOTH",
"85 90 LINE SMOOTH",
"85 42 OFFCURVE",
"53 10 OFFCURVE",
"5 10 CURVE SMOOTH",
"2 10 LINE",
"0 0 LINE",
"320 0 LINE"
);
}
);
width = 569;
}
);
leftKerningGroup = B;
unicode = 0046;
},
{
glyphname = G;
layers = (
{
hints = (
{
horizontal = 1;
place = "{-14, 16}";
type = Stem;
},
{
horizontal = 1;
place = "{386, 10}";
type = Stem;
},
{
horizontal = 1;
place = "{751, 13}";
type = Stem;
},
{
place = "{37, 171}";
type = Stem;
},
{
place = "{586, 155}";
type = Stem;
}
);
layerId = "E71AC35F-0C69-4082-8C40-135C79A9FCEF";
paths = (
{
nodes = (
"585 751 OFFCURVE",
"675 674 OFFCURVE",
"698 548 CURVE",
"708 548 LINE",
"678 748 LINE",
"579 748 OFFCURVE",
"569 764 OFFCURVE",
"462 764 CURVE SMOOTH",
"207 764 OFFCURVE",
"37 609 OFFCURVE",
"37 377 CURVE SMOOTH",
"37 137 OFFCURVE",
"205 -14 OFFCURVE",
"471 -14 CURVE SMOOTH",
"588 -14 OFFCURVE",
"704 14 OFFCURVE",
"741 51 CURVE",
"738 51 LINE",
"741 51 LINE",
"741 306 LINE SMOOTH",
"741 354 OFFCURVE",
"773 386 OFFCURVE",
"821 386 CURVE SMOOTH",
"825 386 LINE",
"825 396 LINE",
"503 396 LINE",
"503 386 LINE",
"506 386 LINE SMOOTH",
"554 386 OFFCURVE",
"586 354 OFFCURVE",
"586 306 CURVE SMOOTH",
"586 51 LINE",
"560 23 OFFCURVE",
"504 2 OFFCURVE",
"450 2 CURVE SMOOTH",
"303 2 OFFCURVE",
"208 151 OFFCURVE",
"208 378 CURVE SMOOTH",
"208 602 OFFCURVE",
"310 751 OFFCURVE",
"462 751 CURVE SMOOTH"
);
}
);
width = 825;
}
);
leftKerningGroup = C;
unicode = 0047;
},
{
glyphname = H;
layers = (
{
hints = (
{
horizontal = 1;
place = "{0, 10}";
type = Stem;
},
{
horizontal = 1;
place = "{414, 14}";
type = Stem;
},
{
horizontal = 1;
place = "{740, 10}";
type = Stem;
},
{
place = "{84, 154}";
type = Stem;
},
{
place = "{568, 154}";
type = Stem;
}
);
layerId = "E71AC35F-0C69-4082-8C40-135C79A9FCEF";
paths = (
{
nodes = (
"238 428 LINE",
"238 660 LINE SMOOTH",
"238 708 OFFCURVE",
"270 740 OFFCURVE",
"318 740 CURVE",
"320 740 LINE",
"320 750 LINE",
"0 750 LINE",
"0 740 LINE",
"4 740 LINE SMOOTH",
"52 740 OFFCURVE",
"84 708 OFFCURVE",
"84 660 CURVE SMOOTH",
"84 90 LINE SMOOTH",
"84 42 OFFCURVE",
"52 10 OFFCURVE",
"4 10 CURVE SMOOTH",
"0 10 LINE",
"0 0 LINE",
"320 0 LINE",
"320 10 LINE",
"318 10 LINE",
"270 10 OFFCURVE",
"238 42 OFFCURVE",
"238 90 CURVE SMOOTH",
"238 414 LINE",
"568 414 LINE",
"568 90 LINE SMOOTH",
"568 42 OFFCURVE",
"536 10 OFFCURVE",
"488 10 CURVE SMOOTH",
"485 10 LINE",
"485 0 LINE",
"805 0 LINE",
"805 10 LINE",
"802 10 LINE SMOOTH",
"754 10 OFFCURVE",
"722 42 OFFCURVE",
"722 90 CURVE SMOOTH",
"722 660 LINE SMOOTH",
"722 708 OFFCURVE",
"754 740 OFFCURVE",
"802 740 CURVE SMOOTH",
"805 740 LINE",
"805 750 LINE",
"485 750 LINE",
"485 740 LINE",
"488 740 LINE SMOOTH",
"536 740 OFFCURVE",
"568 708 OFFCURVE",
"568 660 CURVE SMOOTH",
"568 428 LINE"
);
}
);
width = 805;
}
);
leftKerningGroup = H2;
rightKerningGroup = H;
unicode = 0048;
},
{
glyphname = I;
layers = (
{
hints = (
{
horizontal = 1;
place = "{0, 10}";
type = Stem;
},
{
horizontal = 1;
place = "{740, 10}";
type = Stem;
},
{
place = "{81, 155}";
type = Stem;
}
);
layerId = "E71AC35F-0C69-4082-8C40-135C79A9FCEF";
paths = (
{
nodes = (
"316 10 LINE",
"268 10 OFFCURVE",
"236 42 OFFCURVE",
"236 90 CURVE SMOOTH",
"236 660 LINE SMOOTH",
"236 708 OFFCURVE",
"268 740 OFFCURVE",
"316 740 CURVE",
"317 740 LINE",
"317 750 LINE",
"0 750 LINE",
"0 740 LINE",
"1 740 LINE",
"49 740 OFFCURVE",
"81 708 OFFCURVE",
"81 660 CURVE SMOOTH",
"81 90 LINE SMOOTH",
"81 42 OFFCURVE",
"49 10 OFFCURVE",
"1 10 CURVE",
"0 10 LINE",
"0 0 LINE",
"317 0 LINE",
"317 10 LINE"
);
}
);
width = 317;
}
);
leftKerningGroup = H2;
rightKerningGroup = H;
unicode = 0049;
},
{
glyphname = J;
layers = (
{
hints = (
{
horizontal = 1;
place = "{-187, 9}";
type = Stem;
},
{
horizontal = 1;
place = "{740, 10}";
type = Stem;
},
{
place = "{82, 151}";
type = Stem;
}
);
layerId = "E71AC35F-0C69-4082-8C40-135C79A9FCEF";
paths = (
{
nodes = (
"233 660 LINE SMOOTH",
"233 708 OFFCURVE",
"265 740 OFFCURVE",
"313 740 CURVE",
"314 740 LINE",
"314 750 LINE",
"0 750 LINE",
"0 740 LINE",
"2 740 LINE",
"50 740 OFFCURVE",
"82 708 OFFCURVE",
"82 660 CURVE SMOOTH",
"82 62 LINE SMOOTH",
"82 -77 OFFCURVE",
"45 -173 OFFCURVE",
"-10 -178 CURVE",
"-9 -187 LINE",
"136 -174 OFFCURVE",
"233 -74 OFFCURVE",
"233 62 CURVE SMOOTH"
);
}
);
width = 314;
}
);
leftKerningGroup = J;
unicode = 004A;
},
{
glyphname = K;
layers = (
{
hints = (
{
horizontal = 1;
place = "{0, 10}";
type = Stem;
},
{
horizontal = 1;
place = "{740, 10}";
type = Stem;
},
{
place = "{84, 139}";
type = Stem;
},
{
place = "{520, 165}";
type = Stem;
}
);
layerId = "E71AC35F-0C69-4082-8C40-135C79A9FCEF";
paths = (
{
nodes = (
"474 740 LINE",
"535 740 OFFCURVE",
"533 693 OFFCURVE",
"479 644 CURVE SMOOTH",
"223 412 LINE",
"223 660 LINE SMOOTH",
"223 708 OFFCURVE",
"255 740 OFFCURVE",
"303 740 CURVE SMOOTH",
"307 740 LINE",
"307 750 LINE",
"0 750 LINE",
"0 740 LINE",
"4 740 LINE SMOOTH",
"52 740 OFFCURVE",
"84 708 OFFCURVE",
"84 660 CURVE SMOOTH",
"84 90 LINE SMOOTH",
"84 42 OFFCURVE",
"52 10 OFFCURVE",
"4 10 CURVE SMOOTH",
"0 10 LINE",
"0 0 LINE",
"307 0 LINE",
"307 10 LINE",
"303 10 LINE SMOOTH",
"255 10 OFFCURVE",
"223 42 OFFCURVE",
"223 90 CURVE SMOOTH",
"223 407 LINE",
"505 69 LINE SMOOTH",
"534 34 OFFCURVE",
"520 10 OFFCURVE",
"464 10 CURVE",
"464 0 LINE",
"760 0 LINE",
"760 10 LINE",
"734 10 OFFCURVE",
"704 31 OFFCURVE",
"680 60 CURVE SMOOTH",
"325 486 LINE",
"537 681 LINE SMOOTH",
"573 714 OFFCURVE",
"649 738 OFFCURVE",
"685 740 CURVE",
"685 750 LINE",
"473 750 LINE",
"473 740 LINE"
);
}
);
width = 733;
}
);
leftKerningGroup = B;
unicode = 004B;
},
{
glyphname = L;
layers = (
{
hints = (
{
horizontal = 1;
place = "{0, 10}";
type = Stem;
},
{
horizontal = 1;
place = "{0, 13}";
type = Stem;
},
{
horizontal = 1;
place = "{740, 10}";
type = Stem;
},
{
place = "{81, 154}";
type = Stem;
}
);
layerId = "E71AC35F-0C69-4082-8C40-135C79A9FCEF";
paths = (
{
nodes = (
"305 13 LINE SMOOTH",
"253 13 OFFCURVE",
"235 38 OFFCURVE",
"235 80 CURVE SMOOTH",
"235 660 LINE SMOOTH",
"235 708 OFFCURVE",
"267 740 OFFCURVE",
"315 740 CURVE SMOOTH",
"319 740 LINE",
"319 750 LINE",
"0 750 LINE",
"0 740 LINE",
"1 740 LINE",
"49 740 OFFCURVE",
"81 708 OFFCURVE",
"81 660 CURVE SMOOTH",
"81 84 LINE SMOOTH",
"81 36 OFFCURVE",
"49 10 OFFCURVE",
"1 10 CURVE",
"0 10 LINE",
"0 0 LINE",
"533 0 LINE",
"563 223 LINE",
"553 223 LINE",
"532 91 OFFCURVE",
"444 13 OFFCURVE",
"326 13 CURVE SMOOTH"
);
}
);
width = 569;
}
);
leftKerningGroup = B;
unicode = 004C;
},
{
glyphname = M;
layers = (
{
hints = (
{
horizontal = 1;
place = "{0, 9}";
type = Stem;
},
{
horizontal = 1;
place = "{-14, 21}";
target = up;
type = BottomGhost;
},
{
horizontal = 1;
place = "{740, 10}";
type = Stem;
},
{
place = "{-27, 1002}";
type = Stem;
}
);
layerId = "E71AC35F-0C69-4082-8C40-135C79A9FCEF";
paths = (
{
nodes = (
"911 750 LINE",
"724 750 LINE",
"480 185 LINE",
"236 750 LINE",
"-4 750 LINE",
"-4 740 LINE",
"56 740 OFFCURVE",
"92 708 OFFCURVE",
"117 656 CURVE",
"67 103 LINE SMOOTH",
"62 51 OFFCURVE",
"23 13 OFFCURVE",
"-27 10 CURVE",
"-27 0 LINE",
"173 0 LINE",
"173 10 LINE",
"123 13 OFFCURVE",
"79 49 OFFCURVE",
"84 102 CURVE SMOOTH",
"131 628 LINE",
"411 -14 LINE",
"689 627 LINE",
"738 75 LINE SMOOTH",
"742 34 OFFCURVE",
"700 9 OFFCURVE",
"665 9 CURVE",
"665 0 LINE",
"975 0 LINE",
"975 9 LINE",
"937 9 OFFCURVE",
"892 35 OFFCURVE",
"888 77 CURVE SMOOTH",
"837 669 LINE",
"834 713 OFFCURVE",
"868 740 OFFCURVE",
"911 740 CURVE"
);
}
);
width = 950;
}
);
leftKerningGroup = J;
unicode = 004D;
},
{
glyphname = N;
layers = (
{
hints = (
{
horizontal = 1;
place = "{0, 10}";
type = Stem;
},
{
horizontal = 1;
place = "{-14, 21}";
target = up;
type = BottomGhost;
},
{
horizontal = 1;
place = "{740, 10}";
type = Stem;
},
{
place = "{91, 17}";
type = Stem;
},
{
place = "{646, 17}";
type = Stem;
}
);
layerId = "E71AC35F-0C69-4082-8C40-135C79A9FCEF";
paths = (
{
nodes = (
"663 -14 LINE",
"663 635 LINE SMOOTH",
"663 692 OFFCURVE",
"701 740 OFFCURVE",
"758 740 CURVE",
"758 750 LINE",
"551 750 LINE",
"551 740 LINE",
"608 740 OFFCURVE",
"646 692 OFFCURVE",
"646 635 CURVE SMOOTH",
"646 243 LINE",
"253 750 LINE",
"-4 750 LINE",
"-4 740 LINE",
"28 737 OFFCURVE",
"62 723 OFFCURVE",
"91 701 CURVE",
"91 116 LINE SMOOTH",
"91 58 OFFCURVE",
"53 10 OFFCURVE",
"-5 10 CURVE",
"-5 0 LINE",
"203 0 LINE",
"203 10 LINE",
"146 10 OFFCURVE",
"108 58 OFFCURVE",
"108 115 CURVE SMOOTH",
"108 687 LINE",
"117 679 OFFCURVE",
"130 666 OFFCURVE",
"139 654 CURVE SMOOTH"
);
}
);
width = 749;
}
);
leftKerningGroup = N2;
rightKerningGroup = N;
unicode = 004E;
},
{
glyphname = O;
layers = (
{
hints = (
{
horizontal = 1;
place = "{-14, 16}";
type = Stem;
},
{
horizontal = 1;
place = "{751, 13}";
type = Stem;
},
{
place = "{37, 170}";
type = Stem;
},
{
place = "{671, 170}";
type = Stem;
}
);
layerId = "E71AC35F-0C69-4082-8C40-135C79A9FCEF";
paths = (
{
nodes = (
"37 142 OFFCURVE",
"198 -14 OFFCURVE",
"439 -14 CURVE SMOOTH",
"680 -14 OFFCURVE",
"841 142 OFFCURVE",
"841 375 CURVE SMOOTH",
"841 608 OFFCURVE",
"680 764 OFFCURVE",
"439 764 CURVE SMOOTH",
"198 764 OFFCURVE",
"37 608 OFFCURVE",
"37 375 CURVE SMOOTH"
);
},
{
nodes = (
"207 601 OFFCURVE",
"300 751 OFFCURVE",
"439 751 CURVE SMOOTH",
"578 751 OFFCURVE",
"671 601 OFFCURVE",
"671 376 CURVE SMOOTH",
"671 151 OFFCURVE",
"578 2 OFFCURVE",
"439 2 CURVE SMOOTH",
"300 2 OFFCURVE",
"207 151 OFFCURVE",
"207 376 CURVE SMOOTH"
);
}
);
width = 878;
}
);
leftKerningGroup = C;
rightKerningGroup = D;
unicode = 004F;
},
{
glyphname = P;
layers = (
{
hints = (
{
horizontal = 1;
place = "{0, 10}";
type = Stem;
},
{
horizontal = 1;
place = "{344, 13}";
type = Stem;
},
{
horizontal = 1;
place = "{737, 13}";
type = Stem;
},
{
horizontal = 1;
place = "{740, 10}";
type = Stem;
},
{
place = "{80, 154}";
type = Stem;
},
{
place = "{434, 157}";
type = Stem;
}
);
layerId = "E71AC35F-0C69-4082-8C40-135C79A9FCEF";
paths = (
{
nodes = (
"314 10 LINE",
"266 10 OFFCURVE",
"234 42 OFFCURVE",
"234 90 CURVE SMOOTH",
"234 344 LINE",
"326 344 LINE SMOOTH",
"485 344 OFFCURVE",
"591 425 OFFCURVE",
"591 547 CURVE SMOOTH",
"591 667 OFFCURVE",
"488 748 OFFCURVE",
"334 750 CURVE",
"0 750 LINE",
"0 740 LINE",
"48 740 OFFCURVE",
"80 708 OFFCURVE",
"80 660 CURVE SMOOTH",
"80 90 LINE SMOOTH",
"80 42 OFFCURVE",
"48 10 OFFCURVE",
"0 10 CURVE",
"0 0 LINE",
"316 0 LINE",
"316 10 LINE"
);
},
{
nodes = (
"234 357 LINE",
"234 737 LINE",
"292 737 LINE SMOOTH",
"376 737 OFFCURVE",
"434 660 OFFCURVE",
"434 547 CURVE SMOOTH",
"434 434 OFFCURVE",
"377 357 OFFCURVE",
"293 357 CURVE SMOOTH"
);
}
);
width = 608;
}
);
leftKerningGroup = B;
unicode = 0050;
},
{
glyphname = Q;
layers = (
{
hints = (
{
horizontal = 1;
place = "{-159, 55}";
type = Stem;
},
{
horizontal = 1;
place = "{751, 13}";
type = Stem;
},
{
place = "{37, 169}";
type = Stem;
},
{
place = "{667, 168}";
type = Stem;
}
);
layerId = "E71AC35F-0C69-4082-8C40-135C79A9FCEF";
paths = (
{
nodes = (
"37 188 OFFCURVE",
"145 50 OFFCURVE",
"316 6 CURVE",
"438 -101 OFFCURVE",
"596 -159 OFFCURVE",
"730 -159 CURVE SMOOTH",
"816 -159 OFFCURVE",
"893 -135 OFFCURVE",
"943 -85 CURVE",
"944 -74 LINE",
"907 -94 OFFCURVE",
"864 -104 OFFCURVE",
"817 -104 CURVE SMOOTH",
"727 -104 OFFCURVE",
"626 -67 OFFCURVE",
"537 2 CURVE",
"719 39 OFFCURVE",
"835 180 OFFCURVE",
"835 378 CURVE SMOOTH",
"835 610 OFFCURVE",
"676 764 OFFCURVE",
"436 764 CURVE SMOOTH",
"197 764 OFFCURVE",
"37 610 OFFCURVE",
"37 378 CURVE SMOOTH"
);
},
{
nodes = (
"206 602 OFFCURVE",
"298 751 OFFCURVE",
"436 751 CURVE SMOOTH",
"574 751 OFFCURVE",
"667 602 OFFCURVE",
"667 378 CURVE SMOOTH",
"667 156 OFFCURVE",
"574 8 OFFCURVE",
"436 8 CURVE SMOOTH",
"298 8 OFFCURVE",
"206 156 OFFCURVE",
"206 378 CURVE SMOOTH"
);
}
);
width = 872;
}
);
leftKerningGroup = C;
rightKerningGroup = D;
unicode = 0051;
},
{
glyphname = R;
layers = (
{
hints = (
{
horizontal = 1;
place = "{0, 10}";
type = Stem;
},
{
horizontal = 1;
place = "{364, 13}";
type = Stem;
},
{
horizontal = 1;
place = "{737, 13}";
type = Stem;
},
{
horizontal = 1;
place = "{740, 10}";
type = Stem;
},
{
place = "{80, 154}";
type = Stem;
},
{
place = "{427, 145}";
type = Stem;
}
);
layerId = "E71AC35F-0C69-4082-8C40-135C79A9FCEF";
paths = (
{
nodes = (
"314 10 LINE",
"266 10 OFFCURVE",
"234 42 OFFCURVE",
"234 90 CURVE SMOOTH",
"234 364 LINE",
"244 364 LINE SMOOTH",
"280 364 OFFCURVE",
"293 351 OFFCURVE",
"331 280 CURVE SMOOTH",
"429 100 LINE SMOOTH",
"445 69 OFFCURVE",
"468 30 OFFCURVE",
"487 0 CURVE",
"694 0 LINE",
"694 10 LINE",
"662 10 OFFCURVE",
"635 29 OFFCURVE",
"617 60 CURVE SMOOTH",
"491 276 LINE SMOOTH",
"462 325 OFFCURVE",
"428 362 OFFCURVE",
"405 368 CURVE",
"504 380 OFFCURVE",
"572 456 OFFCURVE",
"572 556 CURVE SMOOTH",
"572 673 OFFCURVE",
"477 750 OFFCURVE",
"334 750 CURVE SMOOTH",
"0 750 LINE",
"0 740 LINE",
"48 740 OFFCURVE",
"80 708 OFFCURVE",
"80 660 CURVE SMOOTH",
"80 90 LINE SMOOTH",
"80 42 OFFCURVE",
"48 10 OFFCURVE",
"0 10 CURVE",
"0 0 LINE",
"316 0 LINE",
"316 10 LINE"
);
},
{
nodes = (
"234 377 LINE",
"234 737 LINE",
"292 737 LINE SMOOTH",
"373 737 OFFCURVE",
"427 665 OFFCURVE",
"427 557 CURVE SMOOTH",
"427 449 OFFCURVE",
"370 377 OFFCURVE",
"285 377 CURVE SMOOTH"
);
}
);
width = 669;
}
);
leftKerningGroup = B;
unicode = 0052;
},
{
glyphname = S;
layers = (
{
hints = (
{
horizontal = 1;
place = "{-14, 18}";
type = Stem;
},
{
horizontal = 1;
place = "{0, 21}";
target = up;
type = BottomGhost;
},
{
horizontal = 1;
place = "{749, 15}";
type = Stem;
},
{
horizontal = 1;
place = "{750, -20}";
target = down;
type = TopGhost;
},
{
place = "{35, 128}";
type = Stem;
},
{
place = "{381, 116}";
type = Stem;
}
);
layerId = "E71AC35F-0C69-4082-8C40-135C79A9FCEF";
paths = (
{
nodes = (
"350 749 OFFCURVE",
"416 671 OFFCURVE",
"435 548 CURVE",
"445 548 LINE",
"435 750 LINE",
"354 750 OFFCURVE",
"333 764 OFFCURVE",
"270 764 CURVE SMOOTH",
"126 764 OFFCURVE",
"35 691 OFFCURVE",
"35 575 CURVE SMOOTH",
"35 503 OFFCURVE",
"70 450 OFFCURVE",
"168 375 CURVE SMOOTH",
"209 344 LINE SMOOTH",
"340 244 OFFCURVE",
"381 193 OFFCURVE",
"381 130 CURVE SMOOTH",
"381 56 OFFCURVE",
"323 4 OFFCURVE",
"241 4 CURVE SMOOTH",
"130 4 OFFCURVE",
"55 97 OFFCURVE",
"35 260 CURVE",
"23 260 LINE",
"58 0 LINE",
"159 0 OFFCURVE",
"173 -14 OFFCURVE",
"235 -14 CURVE",
"391 -12 OFFCURVE",
"497 79 OFFCURVE",
"497 213 CURVE SMOOTH",
"497 299 OFFCURVE",
"453 361 OFFCURVE",
"320 461 CURVE SMOOTH",
"277 493 LINE SMOOTH",
"193 556 OFFCURVE",
"163 598 OFFCURVE",
"163 650 CURVE SMOOTH",
"163 710 OFFCURVE",
"203 749 OFFCURVE",
"264 749 CURVE SMOOTH"
);
}
);
width = 510;
}
);
leftKerningGroup = J;
unicode = 0053;
},
{
glyphname = T;
layers = (
{
hints = (
{
horizontal = 1;
place = "{0, 10}";
type = Stem;
},
{
horizontal = 1;
place = "{736, 14}";
type = Stem;
},
{
place = "{270, 155}";
type = Stem;
}
);
layerId = "E71AC35F-0C69-4082-8C40-135C79A9FCEF";
paths = (
{
nodes = (
"36 750 LINE",
"8 548 LINE",
"18 548 LINE",
"41 698 OFFCURVE",
"141 736 OFFCURVE",
"241 736 CURVE SMOOTH",
"270 736 LINE",
"270 90 LINE SMOOTH",
"270 42 OFFCURVE",
"238 10 OFFCURVE",
"190 10 CURVE",
"189 10 LINE",
"188 0 LINE",
"506 0 LINE",
"505 10 LINE",
"457 10 OFFCURVE",
"425 42 OFFCURVE",
"425 90 CURVE SMOOTH",
"425 736 LINE",
"451 736 LINE SMOOTH",
"553 736 OFFCURVE",
"655 697 OFFCURVE",
"678 548 CURVE",
"688 548 LINE",
"659 750 LINE"
);
}
);
width = 694;
}
);
leftKerningGroup = J;
unicode = 0054;
},
{
glyphname = U;
layers = (
{
hints = (
{
horizontal = 1;
place = "{-14, 48}";
type = Stem;
},
{
horizontal = 1;
place = "{740, 10}";
type = Stem;
},
{
place = "{79, 155}";
type = Stem;
},
{
place = "{638, 17}";
type = Stem;
}
);
layerId = "E71AC35F-0C69-4082-8C40-135C79A9FCEF";
paths = (
{
nodes = (
"79 263 LINE SMOOTH",
"79 94 OFFCURVE",
"192 -14 OFFCURVE",
"368 -14 CURVE SMOOTH",
"543 -14 OFFCURVE",
"656 94 OFFCURVE",
"655 263 CURVE",
"655 645 LINE SMOOTH",
"655 702 OFFCURVE",
"693 737 OFFCURVE",
"750 740 CURVE",
"750 750 LINE",
"543 750 LINE",
"543 740 LINE",
"600 737 OFFCURVE",
"638 702 OFFCURVE",
"638 645 CURVE SMOOTH",
"638 263 LINE SMOOTH",
"638 123 OFFCURVE",
"560 34 OFFCURVE",
"436 34 CURVE SMOOTH",
"311 34 OFFCURVE",
"234 123 OFFCURVE",
"234 263 CURVE SMOOTH",
"234 660 LINE SMOOTH",
"234 708 OFFCURVE",
"266 740 OFFCURVE",
"314 740 CURVE SMOOTH",
"317 740 LINE",
"317 750 LINE",
"-5 750 LINE",
"-5 740 LINE",
"-1 740 LINE SMOOTH",
"47 740 OFFCURVE",
"79 708 OFFCURVE",
"79 660 CURVE SMOOTH"
);
}
);
width = 745;
}
);
leftKerningGroup = U2;
rightKerningGroup = U;
unicode = 0055;
},
{
glyphname = V;
layers = (
{
hints = (
{
horizontal = 1;
place = "{-15, 21}";
target = up;
type = BottomGhost;
},
{
horizontal = 1;
place = "{740, 10}";
type = Stem;
},
{
place = "{602, 106}";
type = Stem;
}
);
layerId = "E71AC35F-0C69-4082-8C40-135C79A9FCEF";
paths = (
{
nodes = (
"607 631 LINE SMOOTH",
"629 684 OFFCURVE",
"670 737 OFFCURVE",
"708 740 CURVE",
"708 750 LINE",
"513 750 LINE",
"513 740 LINE",
"585 737 OFFCURVE",
"618 695 OFFCURVE",
"594 636 CURVE SMOOTH",
"411 186 LINE",
"233 636 LINE SMOOTH",
"207 701 OFFCURVE",
"228 740 OFFCURVE",
"289 740 CURVE SMOOTH",
"293 740 LINE",
"293 750 LINE",
"-27 750 LINE",
"-27 740 LINE",
"-24 740 LINE SMOOTH",
"11 740 OFFCURVE",
"45 702 OFFCURVE",
"73 631 CURVE SMOOTH",
"333 -15 LINE",
"343 -15 LINE"
);
}
);
width = 683;
}
);
leftKerningGroup = V2;
rightKerningGroup = V;
unicode = 0056;
},
{
glyphname = W;
layers = (
{
hints = (
{
horizontal = 1;
place = "{-15, 21}";
target = up;
type = BottomGhost;
},
{
horizontal = 1;
place = "{740, 10}";
type = Stem;
},
{
place = "{927, 101}";
type = Stem;
}
);
layerId = "E71AC35F-0C69-4082-8C40-135C79A9FCEF";
paths = (
{
nodes = (
"939 648 LINE SMOOTH",
"960 701 OFFCURVE",
"992 740 OFFCURVE",
"1028 740 CURVE",
"1028 750 LINE",
"845 750 LINE",
"845 740 LINE",
"912 737 OFFCURVE",
"943 695 OFFCURVE",
"920 636 CURVE SMOOTH",
"749 186 LINE",
"596 637 LINE SMOOTH",
"574 702 OFFCURVE",
"592 740 OFFCURVE",
"649 740 CURVE SMOOTH",
"653 740 LINE",
"653 750 LINE",
"332 750 LINE",
"332 740 LINE",
"334 740 LINE",
"387 740 OFFCURVE",
"421 702 OFFCURVE",
"446 631 CURVE SMOOTH",
"512 446 LINE",
"407 186 LINE",
"230 637 LINE SMOOTH",
"205 701 OFFCURVE",
"226 740 OFFCURVE",
"286 740 CURVE SMOOTH",
"290 740 LINE",
"290 750 LINE",
"-27 750 LINE",
"-27 740 LINE",
"-24 740 LINE SMOOTH",
"10 740 OFFCURVE",
"44 702 OFFCURVE",
"72 631 CURVE SMOOTH",
"330 -15 LINE",
"339 -15 LINE",
"518 427 LINE",
"676 -15 LINE",
"684 -15 LINE"
);
}
);
width = 1003;
}
);
leftKerningGroup = V2;
rightKerningGroup = V;
unicode = 0057;
},
{
glyphname = X;
layers = (
{
hints = (
{
horizontal = 1;
place = "{0, 10}";
type = Stem;
},
{
horizontal = 1;
place = "{740, 10}";
type = Stem;
},
{
place = "{-27, 140}";
type = Stem;
},
{
place = "{-27, 759}";
type = Stem;
},
{
place = "{567, 141}";
type = Stem;
}
);
layerId = "E71AC35F-0C69-4082-8C40-135C79A9FCEF";
paths = (
{
nodes = (
"267 681 OFFCURVE",
"265 734 OFFCURVE",
"344 740 CURVE",
"344 750 LINE",
"0 750 LINE",
"0 740 LINE",
"40 737 OFFCURVE",
"64 726 OFFCURVE",
"159 577 CURVE SMOOTH",
"186 535 OFFCURVE",
"239 448 OFFCURVE",
"292 360 CURVE",
"106 103 LINE SMOOTH",
"67 48 OFFCURVE",
"12 13 OFFCURVE",
"-27 10 CURVE",
"-27 0 LINE",
"181 0 LINE",
"181 10 LINE",
"180 10 LINE",
"108 14 OFFCURVE",
"95 64 OFFCURVE",
"137 122 CURVE SMOOTH",
"299 348 LINE",
"353 260 OFFCURVE",
"405 172 OFFCURVE",
"430 129 CURVE SMOOTH",
"465 69 OFFCURVE",
"458 10 OFFCURVE",
"388 10 CURVE",
"388 0 LINE",
"732 0 LINE",
"732 10 LINE",
"682 13 OFFCURVE",
"644 62 OFFCURVE",
"551 210 CURVE SMOOTH",
"534 238 OFFCURVE",
"476 333 OFFCURVE",
"417 429 CURVE",
"575 647 LINE SMOOTH",
"615 702 OFFCURVE",
"669 737 OFFCURVE",
"708 740 CURVE",
"708 750 LINE",
"500 750 LINE",
"500 740 LINE",
"501 740 LINE",
"572 735 OFFCURVE",
"587 688 OFFCURVE",
"539 621 CURVE SMOOTH",
"410 441 LINE",
"368 510 OFFCURVE",
"328 578 OFFCURVE",
"302 621 CURVE SMOOTH"
);
}
);
width = 707;
}
);
leftKerningGroup = J;
unicode = 0058;
},
{
glyphname = Y;
layers = (
{
hints = (
{
horizontal = 1;
place = "{0, 10}";
type = Stem;
},
{
horizontal = 1;
place = "{740, 10}";
type = Stem;
},
{
place = "{258, 145}";
type = Stem;
},
{
place = "{545, 119}";
type = Stem;
}
);
layerId = "E71AC35F-0C69-4082-8C40-135C79A9FCEF";
paths = (
{
nodes = (
"474 740 LINE",
"553 740 OFFCURVE",
"565 690 OFFCURVE",
"514 621 CURVE SMOOTH",
"393 458 LINE",
"263 634 LINE SMOOTH",
"221 691 OFFCURVE",
"239 740 OFFCURVE",
"312 740 CURVE",
"312 750 LINE",
"-27 750 LINE",
"-27 740 LINE",
"-26 740 LINE",
"8 740 OFFCURVE",
"31 724 OFFCURVE",
"48 702 CURVE SMOOTH",
"258 430 LINE",
"258 90 LINE SMOOTH",
"258 42 OFFCURVE",
"226 10 OFFCURVE",
"178 10 CURVE",
"176 10 LINE",
"175 0 LINE",
"484 0 LINE",
"483 10 LINE",
"481 10 LINE",
"436 10 OFFCURVE",
"403 43 OFFCURVE",
"403 90 CURVE SMOOTH",
"403 448 LINE",
"543 637 LINE SMOOTH",
"588 697 OFFCURVE",
"619 737 OFFCURVE",
"664 740 CURVE",
"664 750 LINE",
"474 750 LINE"
);
}
);
width = 639;
}
);
leftKerningGroup = J;
unicode = 0059;
},
{
glyphname = Z;
layers = (
{
hints = (
{
horizontal = 1;
place = "{0, 13}";
type = Stem;
},
{
horizontal = 1;
place = "{737, 13}";
type = Stem;
},
{
place = "{1, 569}";
type = Stem;
}
);
layerId = "E71AC35F-0C69-4082-8C40-135C79A9FCEF";
paths = (
{
nodes = (
"540 0 LINE",
"570 222 LINE",
"560 222 LINE",
"539 75 OFFCURVE",
"461 13 OFFCURVE",
"333 13 CURVE SMOOTH",
"166 13 LINE",
"530 740 LINE",
"530 750 LINE",
"93 750 LINE",
"63 548 LINE",
"73 548 LINE",
"90 672 OFFCURVE",
"175 737 OFFCURVE",
"315 737 CURVE SMOOTH",
"366 737 LINE",
"1 10 LINE",
"1 0 LINE"
);
}
);
width = 570;
}
);
leftKerningGroup = J;
unicode = 005A;
},
{
glyphname = a;
layers = (
{
hints = (
{
horizontal = 1;
place = "{-14, 62}";
type = Stem;
},
{
horizontal = 1;
place = "{510, 13}";
type = Stem;
},
{
place = "{31, 134}";
type = Stem;
},
{
place = "{331, 144}";
type = Stem;
}
);
layerId = "E71AC35F-0C69-4082-8C40-135C79A9FCEF";
paths = (
{
nodes = (
"182 523 OFFCURVE",
"90 468 OFFCURVE",
"55 386 CURVE",
"163 324 LINE",
"175 439 OFFCURVE",
"213 509 OFFCURVE",
"263 510 CURVE",
"305 510 OFFCURVE",
"331 462 OFFCURVE",
"331 386 CURVE SMOOTH",
"331 311 LINE",
"238 277 LINE SMOOTH",
"62 213 OFFCURVE",
"31 166 OFFCURVE",
"31 106 CURVE SMOOTH",
"31 34 OFFCURVE",
"85 -14 OFFCURVE",
"166 -14 CURVE SMOOTH",
"223 -14 OFFCURVE",
"266 11 OFFCURVE",
"332 81 CURVE",
"341 24 OFFCURVE",
"381 -14 OFFCURVE",
"432 -14 CURVE SMOOTH",
"479 -14 OFFCURVE",
"533 18 OFFCURVE",
"567 65 CURVE",
"559 72 LINE",
"544 55 OFFCURVE",
"530 47 OFFCURVE",
"514 47 CURVE SMOOTH",
"489 47 OFFCURVE",
"474 68 OFFCURVE",
"475 105 CURVE",
"475 346 LINE SMOOTH",
"475 453 OFFCURVE",
"398 523 OFFCURVE",
"283 523 CURVE SMOOTH"
);
},
{
nodes = (
"330 95 LINE",
"296 62 OFFCURVE",
"270 48 OFFCURVE",
"241 48 CURVE SMOOTH",
"197 48 OFFCURVE",
"165 89 OFFCURVE",
"165 146 CURVE SMOOTH",
"165 204 OFFCURVE",
"186 243 OFFCURVE",
"291 283 CURVE SMOOTH",
"331 298 LINE"
);
}
);
width = 551;
}
);
leftKerningGroup = a2;
rightKerningGroup = a;
unicode = 0061;
},
{
glyphname = b;
layers = (
{
hints = (
{
horizontal = 1;
place = "{-14, 17}";
type = Stem;
},
{
horizontal = 1;
place = "{483, 40}";
type = Stem;
},
{
horizontal = 1;
place = "{740, 10}";
type = Stem;
},
{
place = "{46, 144}";
type = Stem;
},
{
place = "{392, 158}";
type = Stem;
}
);
layerId = "E71AC35F-0C69-4082-8C40-135C79A9FCEF";
paths = (
{
nodes = (
"46 -14 LINE",
"56 -14 LINE",
"154 85 LINE",
"181 20 OFFCURVE",
"235 -14 OFFCURVE",
"314 -14 CURVE SMOOTH",
"454 -14 OFFCURVE",
"550 93 OFFCURVE",
"550 256 CURVE SMOOTH",
"550 410 OFFCURVE",
"461 523 OFFCURVE",
"346 523 CURVE SMOOTH",
"280 523 OFFCURVE",
"221 484 OFFCURVE",
"190 424 CURVE",
"190 788 LINE",
"180 788 LINE",
"167 766 OFFCURVE",
"142 750 OFFCURVE",
"67 750 CURVE SMOOTH",
"-35 750 LINE",
"-35 740 LINE",
"13 740 OFFCURVE",
"46 708 OFFCURVE",
"46 660 CURVE SMOOTH"
);
},
{
nodes = (
"190 389 LINE",
"208 440 OFFCURVE",
"259 483 OFFCURVE",
"305 483 CURVE SMOOTH",
"364 483 OFFCURVE",
"392 412 OFFCURVE",
"392 263 CURVE SMOOTH",
"392 93 OFFCURVE",
"355 3 OFFCURVE",
"285 3 CURVE SMOOTH",
"231 3 OFFCURVE",
"195 56 OFFCURVE",
"190 138 CURVE"
);
}
);
width = 583;
}
);
leftKerningGroup = J;
rightKerningGroup = b;
unicode = 0062;
},
{
glyphname = c;
layers = (
{
hints = (
{
horizontal = 1;
place = "{-14, 94}";
type = Stem;
},
{
horizontal = 1;
place = "{507, 15}";
type = Stem;
},
{
place = "{33, 136}";
type = Stem;
}
);
layerId = "E71AC35F-0C69-4082-8C40-135C79A9FCEF";
paths = (
{
nodes = (
"33 95 OFFCURVE",
"129 -14 OFFCURVE",
"266 -14 CURVE SMOOTH",
"377 -14 OFFCURVE",
"477 57 OFFCURVE",
"512 166 CURVE",
"502 169 LINE",
"465 115 OFFCURVE",
"402 80 OFFCURVE",
"339 80 CURVE SMOOTH",
"236 80 OFFCURVE",
"169 172 OFFCURVE",
"169 313 CURVE SMOOTH",
"169 426 OFFCURVE",
"212 507 OFFCURVE",
"273 507 CURVE SMOOTH",
"335 507 OFFCURVE",
"372 423 OFFCURVE",
"372 286 CURVE",
"492 353 LINE",
"478 456 OFFCURVE",
"397 522 OFFCURVE",
"286 522 CURVE SMOOTH",
"140 522 OFFCURVE",
"33 410 OFFCURVE",
"33 250 CURVE SMOOTH"
);
}
);
width = 536;
}
);
leftKerningGroup = c2;
rightKerningGroup = c;
unicode = 0063;
},
{
glyphname = d;
layers = (
{
hints = (
{
horizontal = 1;
place = "{-15, 40}";
type = Stem;
},
{
horizontal = 1;
place = "{0, 10}";
type = Stem;
},
{
horizontal = 1;
place = "{505, 17}";
type = Stem;
},
{
horizontal = 1;
place = "{740, 10}";
type = Stem;
},
{
place = "{35, 160}";
type = Stem;
},
{
place = "{397, 144}";
type = Stem;
}
);
layerId = "E71AC35F-0C69-4082-8C40-135C79A9FCEF";
paths = (
{
nodes = (
"541 788 LINE",
"531 788 LINE",
"517 766 OFFCURVE",
"492 750 OFFCURVE",
"418 750 CURVE SMOOTH",
"316 750 LINE",
"316 740 LINE",
"364 740 OFFCURVE",
"397 708 OFFCURVE",
"397 660 CURVE SMOOTH",
"397 467 LINE",
"369 507 OFFCURVE",
"337 522 OFFCURVE",
"283 522 CURVE SMOOTH",
"135 522 OFFCURVE",
"35 414 OFFCURVE",
"35 247 CURVE SMOOTH",
"35 96 OFFCURVE",
"118 -15 OFFCURVE",
"225 -15 CURVE SMOOTH",
"297 -15 OFFCURVE",
"369 35 OFFCURVE",
"400 104 CURVE",
"401 -38 LINE",
"411 -38 LINE",
"429 -12 OFFCURVE",
"462 0 OFFCURVE",
"520 0 CURVE SMOOTH",
"622 0 LINE",
"622 10 LINE",
"573 10 OFFCURVE",
"541 42 OFFCURVE",
"541 90 CURVE SMOOTH"
);
},
{
nodes = (
"397 129 LINE",
"377 73 OFFCURVE",
"326 25 OFFCURVE",
"280 25 CURVE SMOOTH",
"223 25 OFFCURVE",
"195 98 OFFCURVE",
"195 244 CURVE SMOOTH",
"195 413 OFFCURVE",
"234 505 OFFCURVE",
"304 505 CURVE SMOOTH",
"356 505 OFFCURVE",
"391 453 OFFCURVE",
"397 373 CURVE"
);
}
);
width = 605;
}
);
leftKerningGroup = c2;
rightKerningGroup = d;
unicode = 0064;
},
{
glyphname = e;
layers = (
{
hints = (
{
horizontal = 1;
place = "{-12, 89}";
type = Stem;
},
{
horizontal = 1;
place = "{315, 15}";
type = Stem;
},
{
horizontal = 1;
place = "{507, 15}";
type = Stem;
},
{
place = "{33, 136}";
type = Stem;
},
{
place = "{373, 131}";
type = Stem;
}
);
layerId = "E71AC35F-0C69-4082-8C40-135C79A9FCEF";
paths = (
{
nodes = (
"33 97 OFFCURVE",
"130 -12 OFFCURVE",
"269 -12 CURVE SMOOTH",
"379 -12 OFFCURVE",
"479 56 OFFCURVE",
"513 161 CURVE",
"504 164 LINE",
"468 111 OFFCURVE",
"405 77 OFFCURVE",
"342 77 CURVE SMOOTH",
"237 77 OFFCURVE",
"168 170 OFFCURVE",
"169 310 CURVE",
"169 315 LINE",
"505 315 LINE",
"504 330 LINE",
"500 444 OFFCURVE",
"412 522 OFFCURVE",
"287 522 CURVE SMOOTH",
"139 522 OFFCURVE",
"33 414 OFFCURVE",
"33 255 CURVE SMOOTH"
);
},
{
nodes = (
"170 330 LINE",
"175 437 OFFCURVE",
"218 507 OFFCURVE",
"276 507 CURVE",
"335 508 OFFCURVE",
"373 437 OFFCURVE",
"373 330 CURVE"
);
}
);
width = 537;
}
);
leftKerningGroup = c2;
rightKerningGroup = c;
unicode = 0065;
},
{
glyphname = f;
layers = (
{
hints = (
{
horizontal = 1;
place = "{0, 10}";
type = Stem;
},
{
horizontal = 1;
place = "{490, 18}";
type = Stem;
},
{
horizontal = 1;
place = "{767, 13}";
type = Stem;
},
{
place = "{81, 144}";
type = Stem;
}
);
layerId = "E71AC35F-0C69-4082-8C40-135C79A9FCEF";
paths = (
{
nodes = (
"325 10 LINE",
"265 10 OFFCURVE",
"225 42 OFFCURVE",
"225 90 CURVE SMOOTH",
"225 490 LINE",
"350 490 LINE",
"360 508 LINE",
"225 508 LINE",
"225 584 LINE SMOOTH",
"225 697 OFFCURVE",
"250 767 OFFCURVE",
"291 767 CURVE SMOOTH",
"332 767 OFFCURVE",
"361 702 OFFCURVE",
"362 607 CURVE",
"482 675 LINE",
"458 736 OFFCURVE",
"378 780 OFFCURVE",
"290 780 CURVE SMOOTH",
"162 780 OFFCURVE",
"81 684 OFFCURVE",
"81 531 CURVE SMOOTH",
"81 508 LINE",
"6 508 LINE",
"-4 490 LINE",
"81 490 LINE",
"81 90 LINE SMOOTH",
"81 42 OFFCURVE",
"48 10 OFFCURVE",
"0 10 CURVE",
"0 0 LINE",
"326 0 LINE",
"326 10 LINE"
);
}
);
width = 312;
}
);
leftKerningGroup = f;
unicode = 0066;
},
{
glyphname = g;
layers = (
{
hints = (
{
horizontal = 1;
place = "{-224, 13}";
type = Stem;
},
{
horizontal = 1;
place = "{-30, 122}";
type = Stem;
},
{
horizontal = 1;
place = "{-16, 21}";
target = up;
type = BottomGhost;
},
{
horizontal = 1;
place = "{155, 12}";
type = Stem;
},
{
horizontal = 1;
place = "{490, 18}";
type = Stem;
},
{
horizontal = 1;
place = "{509, 13}";
type = Stem;
},
{
place = "{19, 98}";
type = Stem;
},
{
place = "{44, 144}";
type = Stem;
},
{
place = "{50, 79}";
type = Stem;
},
{
place = "{324, 143}";
type = Stem;
},
{
place = "{438, 97}";
type = Stem;
}
);
layerId = "E71AC35F-0C69-4082-8C40-135C79A9FCEF";
paths = (
{
nodes = (
"44 263 OFFCURVE",
"83 205 OFFCURVE",
"149 176 CURVE",
"87 153 OFFCURVE",
"50 113 OFFCURVE",
"50 69 CURVE SMOOTH",
"50 28 OFFCURVE",
"82 0 OFFCURVE",
"144 -16 CURVE",
"67 -36 OFFCURVE",
"19 -75 OFFCURVE",
"19 -121 CURVE SMOOTH",
"19 -183 OFFCURVE",
"113 -224 OFFCURVE",
"256 -224 CURVE SMOOTH",
"430 -224 OFFCURVE",
"535 -164 OFFCURVE",
"535 -62 CURVE SMOOTH",
"535 30 OFFCURVE",
"448 86 OFFCURVE",
"295 91 CURVE",
"260 93 LINE",
"160 96 OFFCURVE",
"129 105 OFFCURVE",
"129 131 CURVE SMOOTH",
"129 147 OFFCURVE",
"140 160 OFFCURVE",
"161 171 CURVE",
"189 161 OFFCURVE",
"221 155 OFFCURVE",
"256 155 CURVE SMOOTH",
"383 155 OFFCURVE",
"467 228 OFFCURVE",
"467 339 CURVE SMOOTH",
"467 406 OFFCURVE",
"437 459 OFFCURVE",
"384 490 CURVE",
"520 490 LINE",
"530 508 LINE",
"346 508 LINE",
"319 517 OFFCURVE",
"289 522 OFFCURVE",
"256 522 CURVE SMOOTH",
"128 522 OFFCURVE",
"44 449 OFFCURVE",
"44 339 CURVE SMOOTH"
);
},
{
nodes = (
"188 444 OFFCURVE",
"214 509 OFFCURVE",
"256 509 CURVE SMOOTH",
"297 509 OFFCURVE",
"324 444 OFFCURVE",
"324 339 CURVE SMOOTH",
"324 234 OFFCURVE",
"297 167 OFFCURVE",
"255 167 CURVE SMOOTH",
"214 167 OFFCURVE",
"188 233 OFFCURVE",
"188 339 CURVE SMOOTH"
);
},
{
nodes = (
"290 -31 LINE",
"392 -34 OFFCURVE",
"438 -58 OFFCURVE",
"438 -105 CURVE SMOOTH",
"438 -165 OFFCURVE",
"362 -211 OFFCURVE",
"267 -211 CURVE SMOOTH",
"172 -211 OFFCURVE",
"117 -166 OFFCURVE",
"117 -97 CURVE SMOOTH",
"117 -59 OFFCURVE",
"130 -28 OFFCURVE",
"158 -19 CURVE",
"185 -25 OFFCURVE",
"217 -28 OFFCURVE",
"255 -29 CURVE"
);
}
);
width = 540;
}
);
leftKerningGroup = J;
unicode = 0067;
},
{
glyphname = h;
layers = (
{
hints = (
{
horizontal = 1;
place = "{0, 10}";
type = Stem;
},
{
horizontal = 1;
place = "{482, 40}";
type = Stem;
},
{
horizontal = 1;
place = "{740, 10}";
type = Stem;
},
{
place = "{81, 144}";
type = Stem;
},
{
place = "{420, 143}";
type = Stem;
}
);
layerId = "E71AC35F-0C69-4082-8C40-135C79A9FCEF";
paths = (
{
nodes = (
"337 522 OFFCURVE",
"261 478 OFFCURVE",
"225 408 CURVE",
"225 788 LINE",
"215 788 LINE",
"201 765 OFFCURVE",
"172 750 OFFCURVE",
"102 750 CURVE SMOOTH",
"0 750 LINE",
"0 740 LINE",
"48 740 OFFCURVE",
"81 708 OFFCURVE",
"81 660 CURVE SMOOTH",
"81 112 LINE",
"80 59 OFFCURVE",
"72 10 OFFCURVE",
"0 10 CURVE",
"0 0 LINE",
"306 0 LINE",
"306 10 LINE",
"234 10 OFFCURVE",
"226 59 OFFCURVE",
"225 112 CURVE",
"225 382 LINE",
"248 424 OFFCURVE",
"296 482 OFFCURVE",
"349 482 CURVE SMOOTH",
"404 482 OFFCURVE",
"420 416 OFFCURVE",
"420 372 CURVE SMOOTH",
"420 90 LINE SMOOTH",
"420 41 OFFCURVE",
"387 10 OFFCURVE",
"339 10 CURVE",
"339 0 LINE",
"644 0 LINE",
"644 10 LINE",
"596 10 OFFCURVE",
"563 41 OFFCURVE",
"563 90 CURVE SMOOTH",
"563 362 LINE SMOOTH",
"563 452 OFFCURVE",
"509 522 OFFCURVE",
"415 522 CURVE SMOOTH"
);
}
);
width = 631;
}
);
leftKerningGroup = h2;
rightKerningGroup = h;
unicode = 0068;
},
{
glyphname = i;
layers = (
{
hints = (
{
horizontal = 1;
place = "{0, 10}";
type = Stem;
},
{
horizontal = 1;
place = "{498, 10}";
type = Stem;
},
{
horizontal = 1;
place = "{546, -20}";
target = down;
type = TopGhost;
},
{
horizontal = 1;
place = "{614, 166}";
type = Stem;
},
{
place = "{72, 165}";
type = Stem;
},
{
place = "{88, 144}";
type = Stem;
}
);
layerId = "E71AC35F-0C69-4082-8C40-135C79A9FCEF";
paths = (
{
nodes = (
"72 649 OFFCURVE",
"107 614 OFFCURVE",
"155 614 CURVE SMOOTH",
"202 614 OFFCURVE",
"237 651 OFFCURVE",
"237 697 CURVE SMOOTH",
"237 744 OFFCURVE",
"202 780 OFFCURVE",
"155 780 CURVE SMOOTH",
"107 780 OFFCURVE",
"72 745 OFFCURVE",
"72 697 CURVE SMOOTH"
);
},
{
nodes = (
"312 10 LINE",
"264 10 OFFCURVE",
"232 42 OFFCURVE",
"232 90 CURVE SMOOTH",
"232 546 LINE",
"222 546 LINE",
"208 523 OFFCURVE",
"179 508 OFFCURVE",
"109 508 CURVE SMOOTH",
"7 508 LINE",
"7 498 LINE",
"75 498 OFFCURVE",
"87 466 OFFCURVE",
"88 418 CURVE",
"88 90 LINE SMOOTH",
"88 42 OFFCURVE",
"56 10 OFFCURVE",
"8 10 CURVE",
"7 10 LINE",
"7 0 LINE",
"313 0 LINE",
"313 10 LINE"
);
}
);
width = 297;
}
);
leftKerningGroup = i2;
rightKerningGroup = i;
unicode = 0069;
},
{
glyphname = j;
layers = (
{
hints = (
{
horizontal = 1;
place = "{-224, 11}";
type = Stem;
},
{
horizontal = 1;
place = "{498, 10}";
type = Stem;
},
{
horizontal = 1;
place = "{614, 166}";
type = Stem;
},
{
place = "{57, 165}";
type = Stem;
},
{
place = "{73, 144}";
type = Stem;
}
);
layerId = "E71AC35F-0C69-4082-8C40-135C79A9FCEF";
paths = (
{
nodes = (
"57 650 OFFCURVE",
"92 614 OFFCURVE",
"139 614 CURVE SMOOTH",
"186 614 OFFCURVE",
"222 650 OFFCURVE",
"222 697 CURVE SMOOTH",
"222 745 OFFCURVE",
"186 780 OFFCURVE",
"139 780 CURVE SMOOTH",
"92 780 OFFCURVE",
"57 745 OFFCURVE",
"57 697 CURVE SMOOTH"
);
},
{
nodes = (
"217 536 LINE",
"212 536 LINE",
"198 513 OFFCURVE",
"164 508 OFFCURVE",
"94 508 CURVE SMOOTH",
"-8 508 LINE",
"-8 498 LINE",
"60 498 OFFCURVE",
"72 466 OFFCURVE",
"73 418 CURVE",
"73 -88 LINE SMOOTH",
"73 -163 OFFCURVE",
"41 -213 OFFCURVE",
"-8 -213 CURVE",
"-8 -224 LINE",
"127 -224 OFFCURVE",
"217 -124 OFFCURVE",
"217 25 CURVE SMOOTH"
);
}
);
width = 282;
}
);
leftKerningGroup = i2;
unicode = 006A;
},
{
glyphname = k;
layers = (
{
hints = (
{
horizontal = 1;
place = "{0, 10}";
type = Stem;
},
{
horizontal = 1;
place = "{497, 11}";
type = Stem;
},
{
horizontal = 1;
place = "{740, 10}";
type = Stem;
},
{
place = "{81, 144}";
type = Stem;
},
{
place = "{445, 122}";
type = Stem;
}
);
layerId = "E71AC35F-0C69-4082-8C40-135C79A9FCEF";
paths = (
{
nodes = (
"305 10 LINE",
"257 10 OFFCURVE",
"225 42 OFFCURVE",
"225 90 CURVE SMOOTH",
"225 243 LINE",
"262 275 LINE",
"376 92 LINE",
"397 56 OFFCURVE",
"406 38 OFFCURVE",
"406 27 CURVE SMOOTH",
"406 14 OFFCURVE",
"396 10 OFFCURVE",
"364 10 CURVE",
"364 0 LINE",
"628 0 LINE",
"628 10 LINE",
"606 10 OFFCURVE",
"589 23 OFFCURVE",
"564 56 CURVE",
"365 362 LINE",
"434 420 LINE SMOOTH",
"505 480 OFFCURVE",
"529 491 OFFCURVE",
"557 496 CURVE SMOOTH",
"567 498 LINE",
"567 508 LINE",
"418 508 LINE",
"418 498 LINE",
"431 495 LINE",
"456 490 OFFCURVE",
"451 452 OFFCURVE",
"395 405 CURVE SMOOTH",
"225 262 LINE",
"225 788 LINE",
"215 788 LINE",
"201 765 OFFCURVE",
"172 750 OFFCURVE",
"102 750 CURVE SMOOTH",
"0 750 LINE",
"0 740 LINE",
"48 740 OFFCURVE",
"81 708 OFFCURVE",
"81 660 CURVE SMOOTH",
"81 90 LINE SMOOTH",
"81 42 OFFCURVE",
"49 10 OFFCURVE",
"1 10 CURVE",
"0 10 LINE",
"0 0 LINE",
"306 0 LINE",
"306 10 LINE"
);
}
);
width = 601;
}
);
leftKerningGroup = h2;
rightKerningGroup = k;
unicode = 006B;
},
{
glyphname = l;
layers = (
{
hints = (
{
horizontal = 1;
place = "{0, 10}";
type = Stem;
},
{
horizontal = 1;
place = "{740, 10}";
type = Stem;
},
{
place = "{81, 144}";
type = Stem;
}
);
layerId = "E71AC35F-0C69-4082-8C40-135C79A9FCEF";
paths = (
{
nodes = (
"225 788 LINE",
"215 788 LINE",
"201 765 OFFCURVE",
"172 750 OFFCURVE",
"102 750 CURVE SMOOTH",
"0 750 LINE",
"0 740 LINE",
"48 740 OFFCURVE",
"81 708 OFFCURVE",
"81 660 CURVE SMOOTH",
"81 90 LINE SMOOTH",
"81 41 OFFCURVE",
"48 10 OFFCURVE",
"0 10 CURVE",
"0 0 LINE",
"306 0 LINE",
"306 10 LINE",
"258 10 OFFCURVE",
"225 41 OFFCURVE",
"225 90 CURVE SMOOTH"
);
}
);
width = 289;
}
);
leftKerningGroup = h2;
rightKerningGroup = d;
unicode = 006C;
},
{
glyphname = m;
layers = (
{
hints = (
{
horizontal = 1;
place = "{0, 10}";
type = Stem;
},
{
horizontal = 1;
place = "{482, 40}";
type = Stem;
},
{
horizontal = 1;
place = "{498, 10}";
type = Stem;
},
{
place = "{87, 144}";
type = Stem;
},
{
place = "{425, 143}";
type = Stem;
},
{
place = "{763, 143}";
type = Stem;
}
);
layerId = "E71AC35F-0C69-4082-8C40-135C79A9FCEF";
paths = (
{
nodes = (
"986 10 LINE",
"938 10 OFFCURVE",
"906 42 OFFCURVE",
"906 90 CURVE SMOOTH",
"906 362 LINE SMOOTH",
"906 458 OFFCURVE",
"847 522 OFFCURVE",
"758 522 CURVE SMOOTH",
"677 522 OFFCURVE",
"601 475 OFFCURVE",
"564 404 CURVE",
"549 476 OFFCURVE",
"495 522 OFFCURVE",
"420 522 CURVE SMOOTH",
"341 522 OFFCURVE",
"264 475 OFFCURVE",
"229 406 CURVE",
"228 536 LINE",
"218 536 LINE",
"207 522 OFFCURVE",
"189 508 OFFCURVE",
"105 508 CURVE SMOOTH",
"6 508 LINE",
"6 498 LINE",
"74 498 OFFCURVE",
"86 466 OFFCURVE",
"87 418 CURVE",
"87 90 LINE SMOOTH",
"87 42 OFFCURVE",
"55 10 OFFCURVE",
"7 10 CURVE",
"6 10 LINE",
"6 0 LINE",
"312 0 LINE",
"312 10 LINE",
"311 10 LINE",
"263 10 OFFCURVE",
"231 42 OFFCURVE",
"231 90 CURVE SMOOTH",
"231 384 LINE",
"264 443 OFFCURVE",
"313 482 OFFCURVE",
"354 482 CURVE SMOOTH",
"396 482 OFFCURVE",
"425 438 OFFCURVE",
"425 372 CURVE SMOOTH",
"425 90 LINE SMOOTH",
"425 42 OFFCURVE",
"393 10 OFFCURVE",
"345 10 CURVE",
"344 10 LINE",
"344 0 LINE",
"649 0 LINE",
"649 10 LINE",
"648 10 LINE",
"600 10 OFFCURVE",
"568 42 OFFCURVE",
"568 90 CURVE SMOOTH",
"568 362 LINE SMOOTH",
"568 369 OFFCURVE",
"568 376 OFFCURVE",
"567 383 CURVE",
"600 441 OFFCURVE",
"650 482 OFFCURVE",
"691 482 CURVE SMOOTH",
"734 482 OFFCURVE",
"763 438 OFFCURVE",
"763 372 CURVE SMOOTH",
"763 90 LINE SMOOTH",
"763 42 OFFCURVE",
"731 10 OFFCURVE",
"683 10 CURVE",
"682 10 LINE",
"682 0 LINE",
"987 0 LINE",
"987 10 LINE"
);
}
);
width = 974;
}
);
leftKerningGroup = i2;
rightKerningGroup = h;
unicode = 006D;
},
{
glyphname = n;
layers = (
{
hints = (
{
horizontal = 1;
place = "{0, 10}";
type = Stem;
},
{
horizontal = 1;
place = "{482, 40}";
type = Stem;
},
{
horizontal = 1;
place = "{498, 10}";
type = Stem;
},
{
horizontal = 1;
place = "{546, -20}";
target = down;
type = TopGhost;
},
{
place = "{87, 144}";
type = Stem;
},
{
place = "{425, 143}";
type = Stem;
}
);
layerId = "E71AC35F-0C69-4082-8C40-135C79A9FCEF";
paths = (
{
nodes = (
"648 10 LINE",
"600 10 OFFCURVE",
"568 42 OFFCURVE",
"568 90 CURVE SMOOTH",
"568 362 LINE SMOOTH",
"568 458 OFFCURVE",
"509 522 OFFCURVE",
"420 522 CURVE SMOOTH",
"341 522 OFFCURVE",
"264 475 OFFCURVE",
"229 406 CURVE",
"228 546 LINE",
"218 546 LINE",
"204 523 OFFCURVE",
"175 508 OFFCURVE",
"105 508 CURVE SMOOTH",
"6 508 LINE",
"6 498 LINE",
"74 498 OFFCURVE",
"86 466 OFFCURVE",
"87 418 CURVE",
"87 90 LINE SMOOTH",
"87 42 OFFCURVE",
"55 10 OFFCURVE",
"7 10 CURVE",
"6 10 LINE",
"6 0 LINE",
"312 0 LINE",
"312 10 LINE",
"311 10 LINE",
"263 10 OFFCURVE",
"231 42 OFFCURVE",
"231 90 CURVE SMOOTH",
"231 384 LINE",
"264 443 OFFCURVE",
"313 482 OFFCURVE",
"354 482 CURVE SMOOTH",
"396 482 OFFCURVE",
"425 438 OFFCURVE",
"425 372 CURVE SMOOTH",
"425 90 LINE SMOOTH",
"425 42 OFFCURVE",
"393 10 OFFCURVE",
"345 10 CURVE",
"344 10 LINE",
"344 0 LINE",
"649 0 LINE",
"649 10 LINE"
);
}
);
width = 636;
}
);
leftKerningGroup = i2;
rightKerningGroup = h;
unicode = 006E;
},
{
glyphname = o;
layers = (
{
hints = (
{
horizontal = 1;
place = "{-14, 13}";
type = Stem;
},
{
horizontal = 1;
place = "{510, 12}";
type = Stem;
},
{
place = "{34, 160}";
type = Stem;
},
{
place = "{419, 160}";
type = Stem;
}
);
layerId = "E71AC35F-0C69-4082-8C40-135C79A9FCEF";
paths = (
{
nodes = (
"34 92 OFFCURVE",
"142 -14 OFFCURVE",
"307 -14 CURVE SMOOTH",
"471 -14 OFFCURVE",
"579 92 OFFCURVE",
"579 254 CURVE SMOOTH",
"579 416 OFFCURVE",
"471 522 OFFCURVE",
"307 522 CURVE SMOOTH",
"142 522 OFFCURVE",
"34 416 OFFCURVE",
"34 254 CURVE SMOOTH"
);
},
{
nodes = (
"194 403 OFFCURVE",
"241 510 OFFCURVE",
"307 510 CURVE SMOOTH",
"372 510 OFFCURVE",
"419 403 OFFCURVE",
"419 255 CURVE SMOOTH",
"419 107 OFFCURVE",
"372 -1 OFFCURVE",
"306 -1 CURVE SMOOTH",
"241 -1 OFFCURVE",
"194 107 OFFCURVE",
"194 255 CURVE SMOOTH"
);
}
);
width = 612;
}
);
leftKerningGroup = c2;
rightKerningGroup = b;
unicode = 006F;
},
{
glyphname = p;
layers = (
{
hints = (
{
horizontal = 1;
place = "{-210, 10}";
type = Stem;
},
{
horizontal = 1;
place = "{-14, 17}";
type = Stem;
},
{
horizontal = 1;
place = "{483, 40}";
type = Stem;
},
{
horizontal = 1;
place = "{498, 10}";
type = Stem;
},
{
horizontal = 1;
place = "{546, -20}";
target = down;
type = TopGhost;
},
{
place = "{64, 144}";
type = Stem;
},
{
place = "{410, 156}";
type = Stem;
}
);
layerId = "E71AC35F-0C69-4082-8C40-135C79A9FCEF";
paths = (
{
nodes = (
"566 414 OFFCURVE",
"486 523 OFFCURVE",
"375 523 CURVE SMOOTH",
"305 523 OFFCURVE",
"237 479 OFFCURVE",
"206 418 CURVE",
"205 546 LINE",
"195 546 LINE",
"182 525 OFFCURVE",
"158 508 OFFCURVE",
"82 508 CURVE SMOOTH",
"-17 508 LINE",
"-17 498 LINE",
"41 498 OFFCURVE",
"63 476 OFFCURVE",
"64 418 CURVE",
"64 -120 LINE SMOOTH",
"64 -168 OFFCURVE",
"32 -200 OFFCURVE",
"-16 -200 CURVE",
"-17 -200 LINE",
"-17 -210 LINE",
"289 -210 LINE",
"289 -200 LINE",
"288 -200 LINE",
"240 -200 OFFCURVE",
"208 -168 OFFCURVE",
"208 -120 CURVE SMOOTH",
"208 40 LINE",
"236 1 OFFCURVE",
"268 -14 OFFCURVE",
"322 -14 CURVE SMOOTH",
"470 -14 OFFCURVE",
"566 94 OFFCURVE",
"566 262 CURVE SMOOTH"
);
},
{
nodes = (
"208 390 LINE",
"226 441 OFFCURVE",
"276 483 OFFCURVE",
"322 483 CURVE SMOOTH",
"381 483 OFFCURVE",
"410 411 OFFCURVE",
"410 265 CURVE SMOOTH",
"410 96 OFFCURVE",
"372 3 OFFCURVE",
"301 3 CURVE SMOOTH",
"244 3 OFFCURVE",
"208 62 OFFCURVE",
"208 157 CURVE SMOOTH"
);
}
);
width = 599;
}
);
leftKerningGroup = i2;
unicode = 0070;
},
{
glyphname = q;
layers = (
{
hints = (
{
horizontal = 1;
place = "{-210, 10}";
type = Stem;
},
{
horizontal = 1;
place = "{-14, 40}";
type = Stem;
},
{
horizontal = 1;
place = "{506, 17}";
type = Stem;
},
{
place = "{33, 156}";
type = Stem;
},
{
place = "{391, 144}";
type = Stem;
}
);
layerId = "E71AC35F-0C69-4082-8C40-135C79A9FCEF";
paths = (
{
nodes = (
"535 523 LINE",
"525 523 LINE",
"425 430 LINE",
"397 491 OFFCURVE",
"344 523 OFFCURVE",
"268 523 CURVE SMOOTH",
"127 523 OFFCURVE",
"33 413 OFFCURVE",
"33 248 CURVE SMOOTH",
"33 97 OFFCURVE",
"112 -14 OFFCURVE",
"220 -14 CURVE SMOOTH",
"289 -14 OFFCURVE",
"357 32 OFFCURVE",
"391 95 CURVE",
"391 -120 LINE SMOOTH",
"391 -168 OFFCURVE",
"359 -200 OFFCURVE",
"310 -200 CURVE",
"310 -210 LINE",
"616 -210 LINE",
"616 -200 LINE",
"567 -200 OFFCURVE",
"535 -168 OFFCURVE",
"535 -120 CURVE SMOOTH"
);
},
{
nodes = (
"391 128 LINE",
"371 74 OFFCURVE",
"317 26 OFFCURVE",
"273 26 CURVE SMOOTH",
"218 26 OFFCURVE",
"189 100 OFFCURVE",
"189 244 CURVE SMOOTH",
"189 414 OFFCURVE",
"228 506 OFFCURVE",
"299 506 CURVE SMOOTH",
"352 506 OFFCURVE",
"386 455 OFFCURVE",
"391 371 CURVE"
);
}
);
width = 579;
}
);
leftKerningGroup = c2;
rightKerningGroup = d;
unicode = 0071;
},
{
glyphname = r;
layers = (
{
hints = (
{
horizontal = 1;
place = "{0, 10}";
type = Stem;
},
{
horizontal = 1;
place = "{428, 95}";
type = Stem;
},
{
horizontal = 1;
place = "{498, 10}";
type = Stem;
},
{
horizontal = 1;
place = "{546, -20}";
target = down;
type = TopGhost;
},
{
place = "{87, 144}";
type = Stem;
}
);
layerId = "E71AC35F-0C69-4082-8C40-135C79A9FCEF";
paths = (
{
nodes = (
"311 10 LINE",
"263 10 OFFCURVE",
"231 42 OFFCURVE",
"231 90 CURVE SMOOTH",
"231 357 LINE",
"247 395 OFFCURVE",
"264 428 OFFCURVE",
"310 428 CURVE SMOOTH",
"336 428 OFFCURVE",
"371 418 OFFCURVE",
"419 392 CURVE",
"458 509 LINE",
"433 519 OFFCURVE",
"410 523 OFFCURVE",
"390 523 CURVE SMOOTH",
"301 523 OFFCURVE",
"254 441 OFFCURVE",
"229 382 CURVE",
"228 546 LINE",
"223 546 LINE",
"209 523 OFFCURVE",
"175 508 OFFCURVE",
"105 508 CURVE SMOOTH",
"6 508 LINE",
"6 498 LINE",
"74 498 OFFCURVE",
"86 466 OFFCURVE",
"87 418 CURVE",
"87 90 LINE SMOOTH",
"87 42 OFFCURVE",
"55 10 OFFCURVE",
"7 10 CURVE",
"6 10 LINE",
"6 0 LINE",
"312 0 LINE",
"312 10 LINE"
);
}
);
width = 453;
}
);
leftKerningGroup = i2;
unicode = 0072;
},
{
glyphname = s;
layers = (
{
hints = (
{
horizontal = 1;
place = "{-14, 13}";
type = Stem;
},
{
horizontal = 1;
place = "{0, 21}";
target = up;
type = BottomGhost;
},
{
horizontal = 1;
place = "{347, 161}";
type = Stem;
},
{
horizontal = 1;
place = "{508, 14}";
type = Stem;
},
{
place = "{37, 106}";
type = Stem;
},
{
place = "{301, 91}";
type = Stem;
}
);
layerId = "E71AC35F-0C69-4082-8C40-135C79A9FCEF";
paths = (
{
nodes = (
"284 508 OFFCURVE",
"345 441 OFFCURVE",
"358 347 CURVE",
"370 347 LINE",
"356 508 LINE",
"276 508 OFFCURVE",
"273 522 OFFCURVE",
"219 522 CURVE",
"110 523 OFFCURVE",
"37 467 OFFCURVE",
"37 376 CURVE SMOOTH",
"37 313 OFFCURVE",
"72 255 OFFCURVE",
"145 214 CURVE SMOOTH",
"174 198 LINE SMOOTH",
"268 146 OFFCURVE",
"301 122 OFFCURVE",
"301 77 CURVE SMOOTH",
"301 29 OFFCURVE",
"264 -1 OFFCURVE",
"197 -1 CURVE SMOOTH",
"134 -1 OFFCURVE",
"61 56 OFFCURVE",
"41 188 CURVE",
"28 188 LINE",
"52 0 LINE",
"153 0 OFFCURVE",
"140 -14 OFFCURVE",
"204 -14 CURVE",
"328 -13 OFFCURVE",
"392 42 OFFCURVE",
"392 144 CURVE SMOOTH",
"392 225 OFFCURVE",
"351 271 OFFCURVE",
"258 319 CURVE SMOOTH",
"228 334 LINE SMOOTH",
"162 369 OFFCURVE",
"143 396 OFFCURVE",
"143 432 CURVE SMOOTH",
"143 480 OFFCURVE",
"175 508 OFFCURVE",
"226 508 CURVE SMOOTH"
);
}
);
width = 416;
}
);
leftKerningGroup = s2;
rightKerningGroup = s;
unicode = 0073;
},
{
glyphname = t;
layers = (
{
hints = (
{
horizontal = 1;
place = "{-14, 61}";
type = Stem;
},
{
horizontal = 1;
place = "{490, 13}";
type = Stem;
},
{
horizontal = 1;
place = "{490, 18}";
type = Stem;
},
{
place = "{99, 144}";
type = Stem;
}
);
layerId = "E71AC35F-0C69-4082-8C40-135C79A9FCEF";
paths = (
{
nodes = (
"366 490 LINE",
"376 508 LINE",
"243 508 LINE",
"243 652 LINE",
"227 652 LINE",
"181 565 OFFCURVE",
"105 509 OFFCURVE",
"14 503 CURVE",
"14 490 LINE",
"99 490 LINE",
"99 105 LINE SMOOTH",
"99 35 OFFCURVE",
"148 -14 OFFCURVE",
"217 -14 CURVE SMOOTH",
"274 -14 OFFCURVE",
"339 22 OFFCURVE",
"383 77 CURVE",
"383 87 LINE",
"355 63 OFFCURVE",
"321 47 OFFCURVE",
"297 47 CURVE SMOOTH",
"262 47 OFFCURVE",
"243 75 OFFCURVE",
"243 127 CURVE SMOOTH",
"243 490 LINE"
);
}
);
width = 396;
}
);
leftKerningGroup = J;
rightKerningGroup = t;
unicode = 0074;
},
{
glyphname = u;
layers = (
{
hints = (
{
horizontal = 1;
place = "{-14, 40}";
type = Stem;
},
{
horizontal = 1;
place = "{0, 9}";
type = Stem;
},
{
horizontal = 1;
place = "{498, 10}";
type = Stem;
},
{
horizontal = 1;
place = "{546, -20}";
target = down;
type = TopGhost;
},
{
place = "{68, 143}";
type = Stem;
},
{
place = "{405, 144}";
type = Stem;
}
);
layerId = "E71AC35F-0C69-4082-8C40-135C79A9FCEF";
paths = (
{
nodes = (
"405 124 LINE",
"372 65 OFFCURVE",
"324 26 OFFCURVE",
"283 26 CURVE SMOOTH",
"240 26 OFFCURVE",
"211 70 OFFCURVE",
"211 136 CURVE SMOOTH",
"211 546 LINE",
"201 546 LINE",
"187 523 OFFCURVE",
"158 508 OFFCURVE",
"88 508 CURVE SMOOTH",
"-13 508 LINE",
"-13 498 LINE",
"56 498 OFFCURVE",
"68 466 OFFCURVE",
"68 418 CURVE SMOOTH",
"68 146 LINE SMOOTH",
"68 50 OFFCURVE",
"127 -14 OFFCURVE",
"216 -14 CURVE SMOOTH",
"295 -14 OFFCURVE",
"372 33 OFFCURVE",
"407 101 CURVE",
"408 -28 LINE",
"413 -28 LINE",
"427 -6 OFFCURVE",
"460 0 OFFCURVE",
"530 0 CURVE SMOOTH",
"629 0 LINE",
"629 9 LINE",
"581 9 OFFCURVE",
"549 42 OFFCURVE",
"549 90 CURVE",
"550 546 LINE",
"540 546 LINE",
"526 523 OFFCURVE",
"496 508 OFFCURVE",
"426 508 CURVE SMOOTH",
"325 508 LINE",
"325 498 LINE",
"383 498 OFFCURVE",
"405 466 OFFCURVE",
"405 418 CURVE SMOOTH"
);
}
);
width = 612;
}
);
leftKerningGroup = u;
rightKerningGroup = d;
unicode = 0075;
},
{
glyphname = v;
layers = (
{
hints = (
{
horizontal = 1;
place = "{-16, 21}";
target = up;
type = BottomGhost;
},
{
horizontal = 1;
place = "{498, 10}";
type = Stem;
},
{
place = "{-42, 557}";
type = Stem;
}
);
layerId = "E71AC35F-0C69-4082-8C40-135C79A9FCEF";
paths = (
{
nodes = (
"422 402 LINE SMOOTH",
"447 458 OFFCURVE",
"481 490 OFFCURVE",
"515 498 CURVE",
"515 508 LINE",
"357 508 LINE",
"357 498 LINE",
"393 494 OFFCURVE",
"414 471 OFFCURVE",
"414 438 CURVE SMOOTH",
"414 425 OFFCURVE",
"411 410 OFFCURVE",
"404 393 CURVE SMOOTH",
"302 158 LINE",
"199 399 LINE SMOOTH",
"176 453 OFFCURVE",
"191 493 OFFCURVE",
"238 498 CURVE",
"238 508 LINE",
"-42 508 LINE",
"-42 498 LINE",
"-4 497 OFFCURVE",
"17 475 OFFCURVE",
"30 444 CURVE SMOOTH",
"229 -16 LINE",
"238 -16 LINE"
);
}
);
width = 475;
}
);
leftKerningGroup = v2;
rightKerningGroup = v;
unicode = 0076;
},
{
glyphname = w;
layers = (
{
hints = (
{
horizontal = 1;
place = "{-16, 21}";
target = up;
type = BottomGhost;
},
{
horizontal = 1;
place = "{498, 10}";
type = Stem;
},
{
place = "{-44, 818}";
type = Stem;
},
{
place = "{273, 208}";
type = Stem;
},
{
place = "{683, 91}";
type = Stem;
}
);
layerId = "E71AC35F-0C69-4082-8C40-135C79A9FCEF";
paths = (
{
nodes = (
"385 322 LINE",
"517 -16 LINE",
"525 -16 LINE",
"690 402 LINE SMOOTH",
"712 458 OFFCURVE",
"744 490 OFFCURVE",
"774 498 CURVE",
"774 508 LINE",
"632 508 LINE",
"632 498 LINE",
"665 494 OFFCURVE",
"683 471 OFFCURVE",
"683 438 CURVE SMOOTH",
"683 425 OFFCURVE",
"680 410 OFFCURVE",
"674 393 CURVE",
"582 158 LINE",
"490 399 LINE SMOOTH",
"469 453 OFFCURVE",
"483 493 OFFCURVE",
"525 498 CURVE",
"525 508 LINE",
"273 508 LINE",
"273 498 LINE",
"307 497 OFFCURVE",
"326 475 OFFCURVE",
"338 444 CURVE SMOOTH",
"379 339 LINE",
"301 158 LINE",
"198 399 LINE",
"174 453 OFFCURVE",
"190 493 OFFCURVE",
"237 498 CURVE",
"237 508 LINE",
"-44 508 LINE",
"-44 498 LINE",
"-6 497 OFFCURVE",
"15 475 OFFCURVE",
"29 444 CURVE SMOOTH",
"227 -16 LINE",
"237 -16 LINE"
);
}
);
width = 730;
}
);
leftKerningGroup = v2;
rightKerningGroup = v;
unicode = 0077;
},
{
glyphname = x;
layers = (
{
hints = (
{
horizontal = 1;
place = "{0, 10}";
type = Stem;
},
{
horizontal = 1;
place = "{498, 10}";
type = Stem;
},
{
place = "{-5, 100}";
type = Stem;
},
{
place = "{382, 112}";
type = Stem;
}
);
layerId = "E71AC35F-0C69-4082-8C40-135C79A9FCEF";
paths = (
{
nodes = (
"508 0 LINE",
"508 10 LINE",
"483 13 OFFCURVE",
"469 25 OFFCURVE",
"447 61 CURVE SMOOTH",
"393 150 OFFCURVE",
"348 224 OFFCURVE",
"301 303 CURVE",
"382 415 LINE SMOOTH",
"426 476 OFFCURVE",
"457 494 OFFCURVE",
"494 498 CURVE",
"494 508 LINE",
"349 508 LINE",
"349 498 LINE",
"389 496 OFFCURVE",
"394 456 OFFCURVE",
"361 409 CURVE SMOOTH",
"294 315 LINE",
"275 346 OFFCURVE",
"257 378 OFFCURVE",
"237 412 CURVE SMOOTH",
"214 451 OFFCURVE",
"211 496 OFFCURVE",
"255 498 CURVE",
"255 508 LINE",
"-5 508 LINE",
"-5 498 LINE",
"22 495 OFFCURVE",
"35 482 OFFCURVE",
"64 436 CURVE SMOOTH",
"111 359 OFFCURVE",
"151 293 OFFCURVE",
"192 224 CURVE",
"97 93 LINE SMOOTH",
"53 32 OFFCURVE",
"22 14 OFFCURVE",
"-5 10 CURVE",
"-5 0 LINE",
"140 0 LINE",
"140 10 LINE",
"94 12 OFFCURVE",
"81 47 OFFCURVE",
"111 89 CURVE SMOOTH",
"199 213 LINE",
"221 176 OFFCURVE",
"244 138 OFFCURVE",
"267 97 CURVE SMOOTH",
"296 48 OFFCURVE",
"289 12 OFFCURVE",
"248 10 CURVE",
"248 0 LINE"
);
}
);
width = 496;
}
);
leftKerningGroup = J;
unicode = 0078;
},
{
glyphname = y;
layers = (
{
hints = (
{
horizontal = 1;
place = "{-224, 109}";
type = Stem;
},
{
horizontal = 1;
place = "{498, 10}";
type = Stem;
},
{
place = "{-67, 552}";
type = Stem;
},
{
place = "{404, 81}";
type = Stem;
}
);
layerId = "E71AC35F-0C69-4082-8C40-135C79A9FCEF";
paths = (
{
nodes = (
"412 402 LINE",
"437 458 OFFCURVE",
"455 491 OFFCURVE",
"485 498 CURVE",
"485 508 LINE",
"347 508 LINE",
"347 498 LINE",
"384 494 OFFCURVE",
"404 471 OFFCURVE",
"404 438 CURVE SMOOTH",
"404 425 OFFCURVE",
"401 410 OFFCURVE",
"394 393 CURVE SMOOTH",
"293 156 LINE",
"192 393 LINE SMOOTH",
"185 410 OFFCURVE",
"182 425 OFFCURVE",
"182 438 CURVE SMOOTH",
"182 471 OFFCURVE",
"202 494 OFFCURVE",
"238 498 CURVE",
"238 508 LINE",
"-51 508 LINE",
"-51 498 LINE",
"-13 497 OFFCURVE",
"7 475 OFFCURVE",
"21 444 CURVE SMOOTH",
"219 -15 LINE",
"208 -42 LINE SMOOTH",
"184 -97 OFFCURVE",
"137 -115 OFFCURVE",
"86 -115 CURVE SMOOTH",
"46 -115 OFFCURVE",
"5 -104 OFFCURVE",
"-28 -91 CURVE",
"-67 -208 LINE",
"-40 -219 OFFCURVE",
"-13 -224 OFFCURVE",
"12 -224 CURVE SMOOTH",
"94 -224 OFFCURVE",
"166 -170 OFFCURVE",
"208 -72 CURVE SMOOTH"
);
}
);
width = 446;
}
);
leftKerningGroup = J;
rightKerningGroup = v;
unicode = 0079;
},
{
glyphname = z;
layers = (
{
hints = (
{
horizontal = 1;
place = "{0, 13}";
type = Stem;
},
{
horizontal = 1;
place = "{496, 12}";
type = Stem;
},
{
place = "{26, 415}";
type = Stem;
}
);
layerId = "E71AC35F-0C69-4082-8C40-135C79A9FCEF";
paths = (
{
nodes = (
"69 508 LINE",
"48 347 LINE",
"60 347 LINE",
"76 451 OFFCURVE",
"124 496 OFFCURVE",
"200 496 CURVE SMOOTH",
"270 496 LINE",
"26 10 LINE",
"26 0 LINE",
"416 0 LINE",
"441 183 LINE",
"429 183 LINE",
"411 64 OFFCURVE",
"362 13 OFFCURVE",
"281 13 CURVE SMOOTH",
"175 13 LINE",
"421 498 LINE",
"421 508 LINE"
);
}
);
width = 481;
}
);
leftKerningGroup = z2;
rightKerningGroup = z;
unicode = 007A;
},
{
glyphname = exclam;
layers = (
{
hints = (
{
horizontal = 1;
place = "{-14, 170}";
type = Stem;
},
{
horizontal = 1;
place = "{764, -20}";
target = down;
type = TopGhost;
},
{
place = "{30, 170}";
type = Stem;
},
{
place = "{111, 10}";
type = Stem;
}
);
layerId = "E71AC35F-0C69-4082-8C40-135C79A9FCEF";
paths = (
{
nodes = (
"202 730 OFFCURVE",
"168 764 OFFCURVE",
"116 764 CURVE SMOOTH",
"66 764 OFFCURVE",
"32 730 OFFCURVE",
"32 679 CURVE SMOOTH",
"32 597 OFFCURVE",
"111 520 OFFCURVE",
"111 271 CURVE",
"121 271 LINE",
"121 520 OFFCURVE",
"202 597 OFFCURVE",
"202 679 CURVE SMOOTH"
);
},
{
nodes = (
"30 118 OFFCURVE",
"69 156 OFFCURVE",
"115 156 CURVE SMOOTH",
"161 156 OFFCURVE",
"200 118 OFFCURVE",
"200 71 CURVE SMOOTH",
"200 25 OFFCURVE",
"161 -14 OFFCURVE",
"115 -14 CURVE SMOOTH",
"69 -14 OFFCURVE",
"30 25 OFFCURVE",
"30 71 CURVE SMOOTH"
);
}
);
width = 232;
}
);
leftKerningGroup = J;
unicode = 0021;
},
{
glyphname = asterisk;
layers = (
{
hints = (
{
horizontal = 1;
place = "{522, 185}";
type = Stem;
},
{
horizontal = 1;
place = "{764, -20}";
target = down;
type = TopGhost;
},
{
place = "{32, 170}";
type = Stem;
}
);
layerId = "E71AC35F-0C69-4082-8C40-135C79A9FCEF";
paths = (
{
nodes = (
"142 764 OFFCURVE",
"132 746 OFFCURVE",
"132 730 CURVE SMOOTH",
"132 702 OFFCURVE",
"163 679 OFFCURVE",
"163 614 CURVE",
"171 614 LINE",
"171 679 OFFCURVE",
"202 702 OFFCURVE",
"202 730 CURVE SMOOTH",
"202 746 OFFCURVE",
"192 764 OFFCURVE",
"167 764 CURVE SMOOTH"
);
},
{
nodes = (
"192 464 OFFCURVE",
"202 482 OFFCURVE",
"202 499 CURVE SMOOTH",
"202 526 OFFCURVE",
"171 550 OFFCURVE",
"171 614 CURVE",
"163 614 LINE",
"163 550 OFFCURVE",
"132 526 OFFCURVE",
"132 498 CURVE SMOOTH",
"132 482 OFFCURVE",
"142 464 OFFCURVE",
"167 464 CURVE SMOOTH"
);
},
{
nodes = (
"25 668 OFFCURVE",
"35 650 OFFCURVE",
"49 642 CURVE SMOOTH",
"73 628 OFFCURVE",
"109 643 OFFCURVE",
"165 611 CURVE",
"169 618 LINE",
"113 650 OFFCURVE",
"108 688 OFFCURVE",
"85 702 CURVE",
"70 710 OFFCURVE",
"50 711 OFFCURVE",
"37 689 CURVE SMOOTH"
);
},
{
nodes = (
"310 561 OFFCURVE",
"299 578 OFFCURVE",
"285 587 CURVE",
"261 600 OFFCURVE",
"225 585 OFFCURVE",
"169 617 CURVE",
"165 611 LINE",
"221 578 OFFCURVE",
"226 540 OFFCURVE",
"250 526 CURVE SMOOTH",
"264 518 OFFCURVE",
"285 518 OFFCURVE",
"297 539 CURVE SMOOTH"
);
},
{
nodes = (
"49 518 OFFCURVE",
"70 518 OFFCURVE",
"84 526 CURVE SMOOTH",
"108 540 OFFCURVE",
"113 578 OFFCURVE",
"169 611 CURVE",
"165 618 LINE",
"109 585 OFFCURVE",
"73 600 OFFCURVE",
"49 587 CURVE",
"35 578 OFFCURVE",
"25 561 OFFCURVE",
"37 539 CURVE SMOOTH"
);
},
{
nodes = (
"284 711 OFFCURVE",
"264 711 OFFCURVE",
"249 702 CURVE SMOOTH",
"226 689 OFFCURVE",
"221 650 OFFCURVE",
"165 618 CURVE",
"169 611 LINE",
"225 643 OFFCURVE",
"261 628 OFFCURVE",
"285 642 CURVE SMOOTH",
"299 650 OFFCURVE",
"309 668 OFFCURVE",
"297 689 CURVE SMOOTH"
);
}
);
width = 334;
}
);
leftKerningGroup = J;
unicode = 002A;
},
{
glyphname = plus;
layers = (
{
hints = (
{
horizontal = 1;
place = "{334, 10}";
type = Stem;
},
{
place = "{206, 10}";
type = Stem;
}
);
layerId = "E71AC35F-0C69-4082-8C40-135C79A9FCEF";
paths = (
{
nodes = (
"216 344 LINE",
"216 504 LINE",
"206 504 LINE",
"206 344 LINE",
"46 344 LINE",
"46 334 LINE",
"206 334 LINE",
"206 174 LINE",
"216 174 LINE",
"216 334 LINE",
"376 334 LINE",
"376 344 LINE"
);
}
);
width = 421;
}
);
leftKerningGroup = J;
unicode = 002B;
},
{
glyphname = comma;
layers = (
{
hints = (
{
horizontal = 1;
place = "{-155, 311}";
type = Stem;
},
{
place = "{128, 62}";
type = Stem;
}
);
layerId = "E71AC35F-0C69-4082-8C40-135C79A9FCEF";
paths = (
{
nodes = (
"30 0 OFFCURVE",
"128 28 OFFCURVE",
"128 -30 CURVE SMOOTH",
"128 -74 OFFCURVE",
"91 -100 OFFCURVE",
"48 -151 CURVE",
"57 -155 LINE",
"126 -79 OFFCURVE",
"190 -30 OFFCURVE",
"190 65 CURVE SMOOTH",
"190 120 OFFCURVE",
"158 156 OFFCURVE",
"109 156 CURVE SMOOTH",
"62 156 OFFCURVE",
"30 126 OFFCURVE",
"30 80 CURVE SMOOTH"
);
}
);
width = 220;
}
);
leftKerningGroup = comma;
unicode = 002C;
},
{
glyphname = hyphen;
layers = (
{
hints = (
{
horizontal = 1;
place = "{275, 50}";
type = Stem;
},
{
place = "{29, 250}";
type = Stem;
}
);
layerId = "E71AC35F-0C69-4082-8C40-135C79A9FCEF";
paths = (
{
nodes = (
"29 275 LINE",
"279 275 LINE",
"279 325 LINE",
"29 325 LINE"
);
}
);
width = 308;
}
);
leftKerningGroup = J;
unicode = 002D;
},
{
glyphname = period;
layers = (
{
hints = (
{
horizontal = 1;
place = "{-14, 170}";
type = Stem;
},
{
place = "{40, 170}";
type = Stem;
}
);
layerId = "E71AC35F-0C69-4082-8C40-135C79A9FCEF";
paths = (
{
nodes = (
"40 25 OFFCURVE",
"79 -14 OFFCURVE",
"125 -14 CURVE SMOOTH",
"171 -14 OFFCURVE",
"210 25 OFFCURVE",
"210 71 CURVE SMOOTH",
"210 118 OFFCURVE",
"171 156 OFFCURVE",
"125 156 CURVE SMOOTH",
"79 156 OFFCURVE",
"40 118 OFFCURVE",
"40 71 CURVE SMOOTH"
);
}
);
width = 250;
}
);
leftKerningGroup = comma;
unicode = 002E;
},
{
glyphname = slash;
layers = (
{
hints = (
{
horizontal = 1;
place = "{750, -20}";
target = down;
type = TopGhost;
},
{
place = "{11, 232}";
type = Stem;
}
);
layerId = "E71AC35F-0C69-4082-8C40-135C79A9FCEF";
paths = (
{
nodes = (
"11 -200 LINE",
"24 -200 LINE",
"243 750 LINE",
"230 750 LINE"
);
}
);
width = 253;
}
);
leftKerningGroup = J;
unicode = 002F;
},
{
glyphname = zero;
layers = (
{
hints = (
{
horizontal = 1;
place = "{-14, 15}";
type = Stem;
},
{
horizontal = 1;
place = "{751, 13}";
type = Stem;
},
{
place = "{35, 163}";
type = Stem;
},
{
place = "{459, 163}";
type = Stem;
}
);
layerId = "E71AC35F-0C69-4082-8C40-135C79A9FCEF";
paths = (
{
nodes = (
"35 142 OFFCURVE",
"148 -14 OFFCURVE",
"329 -14 CURVE SMOOTH",
"509 -14 OFFCURVE",
"622 142 OFFCURVE",
"622 375 CURVE SMOOTH",
"622 608 OFFCURVE",
"509 764 OFFCURVE",
"329 764 CURVE SMOOTH",
"148 764 OFFCURVE",
"35 608 OFFCURVE",
"35 375 CURVE SMOOTH"
);
},
{
nodes = (
"198 601 OFFCURVE",
"250 751 OFFCURVE",
"329 751 CURVE SMOOTH",
"407 751 OFFCURVE",
"459 601 OFFCURVE",
"459 376 CURVE SMOOTH",
"459 151 OFFCURVE",
"407 1 OFFCURVE",
"329 1 CURVE SMOOTH",
"250 1 OFFCURVE",
"198 150 OFFCURVE",
"198 376 CURVE SMOOTH"
);
}
);
width = 657;
}
);
leftKerningGroup = J;
unicode = 0030;
},
{
glyphname = one;
layers = (
{
hints = (
{
horizontal = 1;
place = "{0, 10}";
type = Stem;
},
{
horizontal = 1;
place = "{602, 13}";
type = Stem;
},
{
place = "{84, 154}";
type = Stem;
}
);
layerId = "E71AC35F-0C69-4082-8C40-135C79A9FCEF";
paths = (
{
nodes = (
"318 10 LINE",
"270 10 OFFCURVE",
"238 42 OFFCURVE",
"238 90 CURVE SMOOTH",
"238 770 LINE",
"228 770 LINE",
"199 688 OFFCURVE",
"113 624 OFFCURVE",
"13 616 CURVE SMOOTH",
"-12 614 LINE",
"-12 602 LINE",
"86 597 OFFCURVE",
"84 572 OFFCURVE",
"84 468 CURVE SMOOTH",
"84 90 LINE SMOOTH",
"84 42 OFFCURVE",
"52 10 OFFCURVE",
"4 10 CURVE",
"3 10 LINE",
"3 0 LINE",
"319 0 LINE",
"319 10 LINE"
);
}
);
width = 326;
}
);
leftKerningGroup = J;
unicode = 0031;
},
{
glyphname = two;
layers = (
{
hints = (
{
horizontal = 1;
place = "{0, 132}";
type = Stem;
},
{
horizontal = 1;
place = "{749, -20}";
target = down;
type = TopGhost;
},
{
horizontal = 1;
place = "{751, 13}";
type = Stem;
},
{
place = "{308, 155}";
type = Stem;
}
);
layerId = "E71AC35F-0C69-4082-8C40-135C79A9FCEF";
paths = (
{
nodes = (
"434 0 LINE",
"471 224 LINE",
"461 224 LINE",
"450 142 OFFCURVE",
"436 132 OFFCURVE",
"339 132 CURVE SMOOTH",
"94 132 LINE",
"289 314 OFFCURVE",
"463 450 OFFCURVE",
"463 594 CURVE SMOOTH",
"463 687 OFFCURVE",
"380 764 OFFCURVE",
"242 764 CURVE SMOOTH",
"182 764 OFFCURVE",
"120 749 OFFCURVE",
"66 749 CURVE",
"34 541 LINE",
"44 541 LINE",
"63 657 OFFCURVE",
"147 751 OFFCURVE",
"219 751 CURVE SMOOTH",
"273 751 OFFCURVE",
"308 697 OFFCURVE",
"308 621 CURVE SMOOTH",
"308 477 OFFCURVE",
"163 264 OFFCURVE",
"-7 10 CURVE",
"-7 0 LINE"
);
}
);
width = 504;
}
);
leftKerningGroup = J;
unicode = 0032;
},
{
glyphname = three;
layers = (
{
hints = (
{
horizontal = 1;
place = "{-14, 15}";
type = Stem;
},
{
horizontal = 1;
place = "{0, 21}";
target = up;
type = BottomGhost;
},
{
horizontal = 1;
place = "{427, 51}";
type = Stem;
},
{
horizontal = 1;
place = "{750, -20}";
target = down;
type = TopGhost;
},
{
horizontal = 1;
place = "{750, 14}";
type = Stem;
},
{
place = "{283, 149}";
type = Stem;
},
{
place = "{347, 144}";
type = Stem;
}
);
layerId = "E71AC35F-0C69-4082-8C40-135C79A9FCEF";
paths = (
{
nodes = (
"491 394 OFFCURVE",
"398 488 OFFCURVE",
"271 478 CURVE",
"366 513 OFFCURVE",
"432 578 OFFCURVE",
"432 640 CURVE SMOOTH",
"432 714 OFFCURVE",
"354 764 OFFCURVE",
"241 764 CURVE SMOOTH",
"176 764 OFFCURVE",
"138 750 OFFCURVE",
"72 750 CURVE",
"40 541 LINE",
"50 541 LINE",
"68 670 OFFCURVE",
"140 750 OFFCURVE",
"224 750 CURVE SMOOTH",
"263 750 OFFCURVE",
"283 723 OFFCURVE",
"283 659 CURVE SMOOTH",
"283 564 OFFCURVE",
"239 489 OFFCURVE",
"139 414 CURVE",
"139 404 LINE",
"259 467 OFFCURVE",
"347 399 OFFCURVE",
"347 236 CURVE SMOOTH",
"347 95 OFFCURVE",
"279 1 OFFCURVE",
"199 1 CURVE SMOOTH",
"119 1 OFFCURVE",
"48 89 OFFCURVE",
"31 224 CURVE",
"21 224 LINE",
"53 0 LINE",
"116 0 OFFCURVE",
"152 -14 OFFCURVE",
"215 -14 CURVE SMOOTH",
"376 -14 OFFCURVE",
"491 89 OFFCURVE",
"491 243 CURVE SMOOTH"
);
}
);
width = 534;
}
);
leftKerningGroup = J;
unicode = 0033;
},
{
glyphname = four;
layers = (
{
hints = (
{
horizontal = 1;
place = "{1, 10}";
type = Stem;
},
{
horizontal = 1;
place = "{167, 125}";
type = Stem;
},
{
place = "{296, 151}";
type = Stem;
}
);
layerId = "E71AC35F-0C69-4082-8C40-135C79A9FCEF";
paths = (
{
nodes = (
"296 562 LINE",
"296 292 LINE",
"100 292 LINE"
);
},
{
nodes = (
"437 770 LINE",
"5 176 LINE",
"5 167 LINE",
"296 167 LINE",
"296 88 LINE",
"295 42 OFFCURVE",
"263 11 OFFCURVE",
"216 11 CURVE",
"214 1 LINE",
"296 1 LINE",
"296 0 LINE",
"447 0 LINE",
"447 1 LINE",
"530 1 LINE",
"528 11 LINE",
"527 11 LINE",
"479 11 OFFCURVE",
"447 43 OFFCURVE",
"447 91 CURVE SMOOTH",
"447 167 LINE",
"562 167 LINE",
"562 292 LINE",
"447 292 LINE",
"447 770 LINE"
);
}
);
width = 601;
}
);
leftKerningGroup = J;
unicode = 0034;
},
{
glyphname = five;
layers = (
{
hints = (
{
horizontal = 1;
place = "{-14, 15}";
type = Stem;
},
{
horizontal = 1;
place = "{0, 21}";
target = up;
type = BottomGhost;
},
{
horizontal = 1;
place = "{373, 82}";
type = Stem;
},
{
horizontal = 1;
place = "{465, 16}";
type = Stem;
},
{
horizontal = 1;
place = "{580, 119}";
type = Stem;
},
{
place = "{358, 147}";
type = Stem;
}
);
layerId = "E71AC35F-0C69-4082-8C40-135C79A9FCEF";
paths = (
{
nodes = (
"60 0 LINE",
"118 0 OFFCURVE",
"162 -14 OFFCURVE",
"225 -14 CURVE SMOOTH",
"393 -14 OFFCURVE",
"505 87 OFFCURVE",
"505 240 CURVE SMOOTH",
"505 385 OFFCURVE",
"404 481 OFFCURVE",
"250 481 CURVE SMOOTH",
"170 481 OFFCURVE",
"105 455 OFFCURVE",
"73 455 CURVE",
"91 600 LINE",
"223 544 OFFCURVE",
"377 608 OFFCURVE",
"476 760 CURVE",
"476 771 LINE",
"378 675 OFFCURVE",
"227 676 OFFCURVE",
"99 772 CURVE",
"50 373 LINE",
"58 373 LINE",
"93 428 OFFCURVE",
"154 465 OFFCURVE",
"210 465 CURVE SMOOTH",
"298 465 OFFCURVE",
"358 373 OFFCURVE",
"358 237 CURVE SMOOTH",
"358 98 OFFCURVE",
"296 1 OFFCURVE",
"207 1 CURVE SMOOTH",
"123 1 OFFCURVE",
"55 90 OFFCURVE",
"38 224 CURVE",
"28 224 LINE"
);
}
);
width = 547;
}
);
leftKerningGroup = J;
unicode = 0035;
},
{
glyphname = six;
layers = (
{
hints = (
{
horizontal = 1;
place = "{-14, 14}";
type = Stem;
},
{
horizontal = 1;
place = "{437, 44}";
type = Stem;
},
{
horizontal = 1;
place = "{750, -20}";
target = down;
type = TopGhost;
},
{
horizontal = 1;
place = "{750, 14}";
type = Stem;
},
{
place = "{39, 162}";
type = Stem;
},
{
place = "{442, 144}";
type = Stem;
}
);
layerId = "E71AC35F-0C69-4082-8C40-135C79A9FCEF";
paths = (
{
nodes = (
"442 100 OFFCURVE",
"389 0 OFFCURVE",
"324 0 CURVE SMOOTH",
"249 0 OFFCURVE",
"201 132 OFFCURVE",
"201 334 CURVE",
"201 334 OFFCURVE",
"201 361 OFFCURVE",
"202 387 CURVE",
"228 417 OFFCURVE",
"270 437 OFFCURVE",
"307 437 CURVE SMOOTH",
"385 437 OFFCURVE",
"442 346 OFFCURVE",
"442 221 CURVE SMOOTH"
);
},
{
nodes = (
"586 388 OFFCURVE",
"503 481 OFFCURVE",
"378 481 CURVE SMOOTH",
"307 481 OFFCURVE",
"238 452 OFFCURVE",
"202 407 CURVE",
"207 614 OFFCURVE",
"279 750 OFFCURVE",
"374 750 CURVE SMOOTH",
"456 750 OFFCURVE",
"530 665 OFFCURVE",
"544 541 CURVE",
"554 541 LINE",
"528 750 LINE",
"466 750 OFFCURVE",
"395 764 OFFCURVE",
"341 764 CURVE SMOOTH",
"161 764 OFFCURVE",
"39 604 OFFCURVE",
"39 367 CURVE SMOOTH",
"39 136 OFFCURVE",
"155 -14 OFFCURVE",
"336 -14 CURVE SMOOTH",
"486 -14 OFFCURVE",
"586 90 OFFCURVE",
"586 246 CURVE SMOOTH"
);
}
);
width = 622;
}
);
leftKerningGroup = J;
unicode = 0036;
},
{
glyphname = seven;
layers = (
{
hints = (
{
horizontal = 1;
place = "{0, 21}";
target = up;
type = BottomGhost;
},
{
horizontal = 1;
place = "{618, 132}";
type = Stem;
},
{
place = "{138, 149}";
type = Stem;
}
);
layerId = "E71AC35F-0C69-4082-8C40-135C79A9FCEF";
paths = (
{
nodes = (
"51 750 LINE",
"23 541 LINE",
"33 541 LINE",
"43 625 OFFCURVE",
"66 616 OFFCURVE",
"213 617 CURVE SMOOTH",
"413 619 LINE",
"245 466 OFFCURVE",
"138 219 OFFCURVE",
"138 0 CURVE",
"287 0 LINE",
"287 291 OFFCURVE",
"379 587 OFFCURVE",
"517 740 CURVE",
"517 750 LINE"
);
}
);
width = 505;
}
);
leftKerningGroup = J;
unicode = 0037;
},
{
glyphname = eight;
layers = (
{
hints = (
{
horizontal = 1;
place = "{-14, 16}";
type = Stem;
},
{
horizontal = 1;
place = "{477, 13}";
type = Stem;
},
{
horizontal = 1;
place = "{754, 10}";
type = Stem;
},
{
place = "{35, 158}";
type = Stem;
},
{
place = "{74, 161}";
type = Stem;
},
{
place = "{385, 161}";
type = Stem;
},
{
place = "{427, 158}";
type = Stem;
}
);
layerId = "E71AC35F-0C69-4082-8C40-135C79A9FCEF";
paths = (
{
nodes = (
"35 86 OFFCURVE",
"145 -14 OFFCURVE",
"310 -14 CURVE SMOOTH",
"475 -14 OFFCURVE",
"585 86 OFFCURVE",
"585 235 CURVE SMOOTH",
"585 371 OFFCURVE",
"495 466 OFFCURVE",
"357 483 CURVE",
"472 494 OFFCURVE",
"546 548 OFFCURVE",
"546 623 CURVE SMOOTH",
"546 708 OFFCURVE",
"452 764 OFFCURVE",
"310 764 CURVE SMOOTH",
"168 764 OFFCURVE",
"74 708 OFFCURVE",
"74 624 CURVE SMOOTH",
"74 548 OFFCURVE",
"148 494 OFFCURVE",
"263 483 CURVE",
"125 466 OFFCURVE",
"35 371 OFFCURVE",
"35 236 CURVE SMOOTH"
);
},
{
nodes = (
"235 702 OFFCURVE",
"265 754 OFFCURVE",
"310 754 CURVE SMOOTH",
"355 754 OFFCURVE",
"385 702 OFFCURVE",
"385 624 CURVE SMOOTH",
"385 544 OFFCURVE",
"355 490 OFFCURVE",
"310 490 CURVE SMOOTH",
"265 490 OFFCURVE",
"235 544 OFFCURVE",
"235 625 CURVE SMOOTH"
);
},
{
nodes = (
"193 385 OFFCURVE",
"240 477 OFFCURVE",
"310 477 CURVE SMOOTH",
"380 477 OFFCURVE",
"427 385 OFFCURVE",
"427 246 CURVE SMOOTH",
"427 100 OFFCURVE",
"380 2 OFFCURVE",
"310 2 CURVE SMOOTH",
"240 2 OFFCURVE",
"193 100 OFFCURVE",
"193 246 CURVE SMOOTH"
);
}
);
width = 620;
}
);
leftKerningGroup = J;
unicode = 0038;
},
{
glyphname = nine;
layers = (
{
hints = (
{
horizontal = 1;
place = "{-14, 14}";
type = Stem;
},
{
horizontal = 1;
place = "{0, 21}";
target = up;
type = BottomGhost;
},
{
horizontal = 1;
place = "{269, 44}";
type = Stem;
},
{
horizontal = 1;
place = "{750, 14}";
type = Stem;
},
{
place = "{34, 145}";
type = Stem;
},
{
place = "{421, 162}";
type = Stem;
}
);
layerId = "E71AC35F-0C69-4082-8C40-135C79A9FCEF";
paths = (
{
nodes = (
"179 659 OFFCURVE",
"226 750 OFFCURVE",
"293 750 CURVE SMOOTH",
"372 750 OFFCURVE",
"421 621 OFFCURVE",
"421 416 CURVE",
"421 416 OFFCURVE",
"421 389 OFFCURVE",
"420 363 CURVE",
"394 333 OFFCURVE",
"352 313 OFFCURVE",
"314 313 CURVE SMOOTH",
"233 313 OFFCURVE",
"179 401 OFFCURVE",
"179 534 CURVE SMOOTH"
);
},
{
nodes = (
"34 362 OFFCURVE",
"118 269 OFFCURVE",
"244 269 CURVE SMOOTH",
"315 269 OFFCURVE",
"384 298 OFFCURVE",
"420 343 CURVE",
"415 136 OFFCURVE",
"343 0 OFFCURVE",
"248 0 CURVE SMOOTH",
"166 0 OFFCURVE",
"95 85 OFFCURVE",
"81 209 CURVE",
"68 209 LINE",
"94 0 LINE",
"156 0 OFFCURVE",
"227 -14 OFFCURVE",
"281 -14 CURVE SMOOTH",
"464 -14 OFFCURVE",
"583 145 OFFCURVE",
"583 389 CURVE SMOOTH",
"583 623 OFFCURVE",
"474 764 OFFCURVE",
"294 764 CURVE SMOOTH",
"138 764 OFFCURVE",
"34 660 OFFCURVE",
"34 503 CURVE SMOOTH"
);
}
);
width = 622;
}
);
leftKerningGroup = J;
unicode = 0039;
},
{
glyphname = colon;
layers = (
{
hints = (
{
horizontal = 1;
place = "{-14, 170}";
type = Stem;
},
{
horizontal = 1;
place = "{342, 170}";
type = Stem;
},
{
place = "{30, 170}";
type = Stem;
}
);
layerId = "E71AC35F-0C69-4082-8C40-135C79A9FCEF";
paths = (
{
nodes = (
"30 25 OFFCURVE",
"69 -14 OFFCURVE",
"115 -14 CURVE SMOOTH",
"161 -14 OFFCURVE",
"200 25 OFFCURVE",
"200 71 CURVE SMOOTH",
"200 118 OFFCURVE",
"161 156 OFFCURVE",
"115 156 CURVE SMOOTH",
"69 156 OFFCURVE",
"30 118 OFFCURVE",
"30 71 CURVE SMOOTH"
);
},
{
nodes = (
"30 381 OFFCURVE",
"69 342 OFFCURVE",
"115 342 CURVE SMOOTH",
"161 342 OFFCURVE",
"200 381 OFFCURVE",
"200 427 CURVE SMOOTH",
"200 474 OFFCURVE",
"161 512 OFFCURVE",
"115 512 CURVE SMOOTH",
"69 512 OFFCURVE",
"30 474 OFFCURVE",
"30 427 CURVE SMOOTH"
);
}
);
width = 230;
}
);
leftKerningGroup = J;
unicode = 003A;
},
{
glyphname = semicolon;
layers = (
{
hints = (
{
horizontal = 1;
place = "{342, 170}";
type = Stem;
},
{
place = "{30, 170}";
type = Stem;
},
{
place = "{133, 62}";
type = Stem;
}
);
layerId = "E71AC35F-0C69-4082-8C40-135C79A9FCEF";
paths = (
{
nodes = (
"30 381 OFFCURVE",
"69 342 OFFCURVE",
"115 342 CURVE SMOOTH",
"161 342 OFFCURVE",
"200 381 OFFCURVE",
"200 427 CURVE SMOOTH",
"200 474 OFFCURVE",
"161 512 OFFCURVE",
"115 512 CURVE SMOOTH",
"69 512 OFFCURVE",
"30 474 OFFCURVE",
"30 427 CURVE SMOOTH"
);
},
{
nodes = (
"35 0 OFFCURVE",
"133 28 OFFCURVE",
"133 -30 CURVE SMOOTH",
"133 -74 OFFCURVE",
"96 -100 OFFCURVE",
"53 -151 CURVE",
"62 -155 LINE",
"131 -79 OFFCURVE",
"195 -30 OFFCURVE",
"195 65 CURVE SMOOTH",
"195 120 OFFCURVE",
"162 156 OFFCURVE",
"113 156 CURVE SMOOTH",
"66 156 OFFCURVE",
"35 126 OFFCURVE",
"35 80 CURVE SMOOTH"
);
}
);
width = 230;
}
);
leftKerningGroup = J;
unicode = 003B;
},
{
glyphname = less;
layers = (
{
hints = (
{
horizontal = 1;
place = "{174, 331}";
type = Stem;
},
{
place = "{46, 268}";
type = Stem;
}
);
layerId = "E71AC35F-0C69-4082-8C40-135C79A9FCEF";
paths = (
{
nodes = (
"46 342 LINE",
"46 336 LINE",
"314 174 LINE",
"314 188 LINE",
"66 339 LINE",
"314 491 LINE",
"314 505 LINE"
);
}
);
width = 364;
}
);
leftKerningGroup = J;
unicode = 003C;
},
{
glyphname = equal;
layers = (
{
hints = (
{
horizontal = 1;
place = "{281, 10}";
type = Stem;
},
{
horizontal = 1;
place = "{387, 10}";
type = Stem;
},
{
place = "{45, 330}";
type = Stem;
}
);
layerId = "E71AC35F-0C69-4082-8C40-135C79A9FCEF";
paths = (
{
nodes = (
"375 281 LINE",
"375 291 LINE",
"45 291 LINE",
"45 281 LINE"
);
},
{
nodes = (
"375 387 LINE",
"375 397 LINE",
"45 397 LINE",
"45 387 LINE"
);
}
);
width = 420;
}
);
leftKerningGroup = J;
unicode = 003D;
},
{
glyphname = greater;
layers = (
{
hints = (
{
horizontal = 1;
place = "{174, 331}";
type = Stem;
},
{
place = "{51, 268}";
type = Stem;
}
);
layerId = "E71AC35F-0C69-4082-8C40-135C79A9FCEF";
paths = (
{
nodes = (
"319 342 LINE",
"51 505 LINE",
"51 491 LINE",
"299 339 LINE",
"51 188 LINE",
"51 174 LINE",
"319 336 LINE"
);
}
);
width = 364;
}
);
leftKerningGroup = J;
unicode = 003E;
},
{
glyphname = question;
layers = (
{
hints = (
{
horizontal = 1;
place = "{-14, 170}";
type = Stem;
},
{
horizontal = 1;
place = "{750, 14}";
type = Stem;
},
{
place = "{98, 170}";
type = Stem;
},
{
place = "{177, 10}";
type = Stem;
},
{
place = "{258, 158}";
type = Stem;
}
);
layerId = "E71AC35F-0C69-4082-8C40-135C79A9FCEF";
paths = (
{
nodes = (
"187 271 LINE",
"187 381 OFFCURVE",
"222 433 OFFCURVE",
"273 476 CURVE SMOOTH",
"309 506 OFFCURVE",
"416 563 OFFCURVE",
"416 643 CURVE SMOOTH",
"416 716 OFFCURVE",
"343 764 OFFCURVE",
"212 764 CURVE SMOOTH",
"156 764 OFFCURVE",
"121 750 OFFCURVE",
"63 750 CURVE",
"30 498 LINE",
"40 498 LINE",
"63 653 OFFCURVE",
"112 750 OFFCURVE",
"191 750 CURVE SMOOTH",
"242 750 OFFCURVE",
"258 726 OFFCURVE",
"258 670 CURVE SMOOTH",
"258 627 OFFCURVE",
"246 561 OFFCURVE",
"222 512 CURVE SMOOTH",
"201 469 OFFCURVE",
"177 414 OFFCURVE",
"177 271 CURVE"
);
},
{
nodes = (
"98 118 OFFCURVE",
"137 156 OFFCURVE",
"183 156 CURVE SMOOTH",
"229 156 OFFCURVE",
"268 118 OFFCURVE",
"268 71 CURVE SMOOTH",
"268 25 OFFCURVE",
"229 -14 OFFCURVE",
"183 -14 CURVE SMOOTH",
"137 -14 OFFCURVE",
"98 25 OFFCURVE",
"98 71 CURVE SMOOTH"
);
}
);
width = 446;
}
);
leftKerningGroup = J;
unicode = 003F;
},
{
glyphname = backslash;
layers = (
{
hints = (
{
horizontal = 1;
place = "{751, -20}";
target = down;
type = TopGhost;
},
{
place = "{11, 232}";
type = Stem;
}
);
layerId = "E71AC35F-0C69-4082-8C40-135C79A9FCEF";
paths = (
{
nodes = (
"243 -200 LINE",
"24 751 LINE",
"11 750 LINE",
"230 -201 LINE"
);
}
);
width = 253;
}
);
leftKerningGroup = J;
unicode = 005C;
},
{
glyphname = asciicircum;
layers = (
{
hints = (
{
horizontal = 1;
place = "{750, -20}";
target = down;
type = TopGhost;
},
{
place = "{24, 263}";
type = Stem;
}
);
layerId = "E71AC35F-0C69-4082-8C40-135C79A9FCEF";
paths = (
{
nodes = (
"151 750 LINE",
"24 488 LINE",
"37 488 LINE",
"155 729 LINE",
"274 488 LINE",
"287 488 LINE",
"159 750 LINE"
);
}
);
width = 309;
}
);
leftKerningGroup = J;
unicode = 005E;
},
{
glyphname = zero.onum;
layers = (
{
hints = (
{
horizontal = 1;
place = "{-14, 13}";
type = Stem;
},
{
horizontal = 1;
place = "{602, 12}";
type = Stem;
},
{
place = "{35, 160}";
type = Stem;
},
{
place = "{470, 160}";
type = Stem;
}
);
layerId = "E71AC35F-0C69-4082-8C40-135C79A9FCEF";
paths = (
{
nodes = (
"35 112 OFFCURVE",
"154 -14 OFFCURVE",
"333 -14 CURVE SMOOTH",
"511 -14 OFFCURVE",
"630 112 OFFCURVE",
"630 300 CURVE SMOOTH",
"630 488 OFFCURVE",
"511 614 OFFCURVE",
"333 614 CURVE SMOOTH",
"154 614 OFFCURVE",
"35 488 OFFCURVE",
"35 300 CURVE SMOOTH"
);
},
{
nodes = (
"195 478 OFFCURVE",
"252 602 OFFCURVE",
"333 602 CURVE SMOOTH",
"414 602 OFFCURVE",
"470 478 OFFCURVE",
"470 301 CURVE SMOOTH",
"470 123 OFFCURVE",
"413 -1 OFFCURVE",
"332 -1 CURVE SMOOTH",
"250 -1 OFFCURVE",
"195 120 OFFCURVE",
"195 301 CURVE SMOOTH"
);
}
);
width = 665;
}
);
leftKerningGroup = J;
},
{
glyphname = one.onum;
layers = (
{
hints = (
{
horizontal = 1;
place = "{0, 10}";
type = Stem;
},
{
horizontal = 1;
place = "{452, 12}";
type = Stem;
},
{
place = "{110, 152}";
type = Stem;
}
);
layerId = "E71AC35F-0C69-4082-8C40-135C79A9FCEF";
paths = (
{
nodes = (
"347 10 LINE",
"289 10 OFFCURVE",
"262 42 OFFCURVE",
"262 90 CURVE SMOOTH",
"262 612 LINE",
"252 612 LINE",
"231 554 OFFCURVE",
"176 464 OFFCURVE",
"44 464 CURVE SMOOTH",
"19 464 LINE",
"19 452 LINE",
"112 447 OFFCURVE",
"110 422 OFFCURVE",
"110 318 CURVE SMOOTH",
"110 90 LINE SMOOTH",
"110 42 OFFCURVE",
"83 10 OFFCURVE",
"25 10 CURVE",
"24 10 LINE",
"24 0 LINE",
"348 0 LINE",
"348 10 LINE"
);
}
);
width = 362;
}
);
leftKerningGroup = J;
},
{
glyphname = two.onum;
layers = (
{
hints = (
{
horizontal = 1;
place = "{0, 125}";
type = Stem;
},
{
horizontal = 1;
place = "{602, 12}";
type = Stem;
},
{
place = "{305, 147}";
type = Stem;
}
);
layerId = "E71AC35F-0C69-4082-8C40-135C79A9FCEF";
paths = (
{
nodes = (
"425 0 LINE",
"460 213 LINE",
"450 213 LINE",
"439 135 OFFCURVE",
"425 125 OFFCURVE",
"334 125 CURVE SMOOTH",
"122 125 LINE",
"377 280 OFFCURVE",
"452 355 OFFCURVE",
"452 452 CURVE SMOOTH",
"452 541 OFFCURVE",
"374 614 OFFCURVE",
"243 614 CURVE SMOOTH",
"185 614 OFFCURVE",
"127 600 OFFCURVE",
"75 600 CURVE",
"45 402 LINE",
"55 402 LINE",
"73 512 OFFCURVE",
"152 602 OFFCURVE",
"220 602 CURVE SMOOTH",
"272 602 OFFCURVE",
"305 550 OFFCURVE",
"305 478 CURVE SMOOTH",
"305 341 OFFCURVE",
"187 232 OFFCURVE",
"6 10 CURVE",
"6 0 LINE"
);
}
);
width = 494;
}
);
leftKerningGroup = J;
},
{
glyphname = three.onum;
layers = (
{
hints = (
{
horizontal = 1;
place = "{-214, 10}";
type = Stem;
},
{
horizontal = 1;
place = "{254, 49}";
type = Stem;
},
{
horizontal = 1;
place = "{600, 14}";
type = Stem;
},
{
place = "{276, 144}";
type = Stem;
},
{
place = "{339, 139}";
type = Stem;
}
);
layerId = "E71AC35F-0C69-4082-8C40-135C79A9FCEF";
paths = (
{
nodes = (
"478 233 OFFCURVE",
"389 314 OFFCURVE",
"256 303 CURVE",
"356 340 OFFCURVE",
"420 413 OFFCURVE",
"420 482 CURVE SMOOTH",
"420 560 OFFCURVE",
"340 614 OFFCURVE",
"218 614 CURVE SMOOTH",
"156 614 OFFCURVE",
"113 600 OFFCURVE",
"47 600 CURVE",
"17 402 LINE",
"27 402 LINE",
"45 524 OFFCURVE",
"107 600 OFFCURVE",
"181 600 CURVE SMOOTH",
"230 600 OFFCURVE",
"276 558 OFFCURVE",
"276 495 CURVE SMOOTH",
"276 408 OFFCURVE",
"205 304 OFFCURVE",
"119 239 CURVE",
"119 229 LINE",
"240 293 OFFCURVE",
"339 232 OFFCURVE",
"339 94 CURVE SMOOTH",
"339 -85 OFFCURVE",
"201 -204 OFFCURVE",
"-5 -204 CURVE",
"-5 -214 LINE",
"285 -214 OFFCURVE",
"478 -88 OFFCURVE",
"478 102 CURVE SMOOTH"
);
}
);
width = 512;
}
);
leftKerningGroup = J;
},
{
glyphname = four.onum;
layers = (
{
hints = (
{
horizontal = 1;
place = "{-199, 10}";
type = Stem;
},
{
horizontal = 1;
place = "{0, 125}";
type = Stem;
},
{
place = "{296, 151}";
type = Stem;
}
);
layerId = "E71AC35F-0C69-4082-8C40-135C79A9FCEF";
paths = (
{
nodes = (
"296 401 LINE",
"296 125 LINE",
"98 125 LINE"
);
},
{
nodes = (
"437 612 LINE",
"5 9 LINE",
"5 0 LINE",
"296 0 LINE",
"296 -112 LINE",
"295 -158 OFFCURVE",
"263 -189 OFFCURVE",
"216 -189 CURVE",
"214 -199 LINE",
"296 -199 LINE",
"296 -200 LINE",
"447 -200 LINE",
"447 -199 LINE",
"530 -199 LINE",
"528 -189 LINE",
"527 -189 LINE",
"479 -189 OFFCURVE",
"447 -157 OFFCURVE",
"447 -109 CURVE SMOOTH",
"447 0 LINE",
"562 0 LINE",
"562 125 LINE",
"447 125 LINE",
"447 612 LINE"
);
}
);
width = 600;
}
);
leftKerningGroup = J;
},
{
glyphname = five.onum;
layers = (
{
hints = (
{
horizontal = 1;
place = "{-214, 10}";
type = Stem;
},
{
horizontal = 1;
place = "{223, 82}";
type = Stem;
},
{
horizontal = 1;
place = "{315, 16}";
type = Stem;
},
{
horizontal = 1;
place = "{433, 109}";
type = Stem;
},
{
place = "{349, 139}";
type = Stem;
}
);
layerId = "E71AC35F-0C69-4082-8C40-135C79A9FCEF";
paths = (
{
nodes = (
"488 239 OFFCURVE",
"387 331 OFFCURVE",
"234 331 CURVE SMOOTH",
"153 331 OFFCURVE",
"88 305 OFFCURVE",
"56 305 CURVE",
"75 455 LINE",
"209 398 OFFCURVE",
"362 455 OFFCURVE",
"459 604 CURVE",
"459 614 LINE",
"361 518 OFFCURVE",
"210 518 OFFCURVE",
"82 614 CURVE",
"33 223 LINE",
"41 223 LINE",
"76 278 OFFCURVE",
"136 315 OFFCURVE",
"195 315 CURVE SMOOTH",
"286 315 OFFCURVE",
"349 227 OFFCURVE",
"349 101 CURVE SMOOTH",
"349 -85 OFFCURVE",
"211 -204 OFFCURVE",
"5 -204 CURVE",
"5 -214 LINE",
"295 -214 OFFCURVE",
"488 -88 OFFCURVE",
"488 102 CURVE SMOOTH"
);
}
);
width = 529;
}
);
leftKerningGroup = J;
},
{
glyphname = six.onum;
layers = (
{
hints = (
{
horizontal = 1;
place = "{-14, 14}";
type = Stem;
},
{
horizontal = 1;
place = "{437, 44}";
type = Stem;
},
{
horizontal = 1;
place = "{804, 10}";
type = Stem;
},
{
place = "{42, 159}";
type = Stem;
},
{
place = "{458, 138}";
type = Stem;
}
);
layerId = "E71AC35F-0C69-4082-8C40-135C79A9FCEF";
paths = (
{
nodes = (
"458 91 OFFCURVE",
"406 0 OFFCURVE",
"336 0 CURVE SMOOTH",
"244 0 OFFCURVE",
"193 150 OFFCURVE",
"201 387 CURVE",
"228 418 OFFCURVE",
"270 437 OFFCURVE",
"311 437 CURVE SMOOTH",
"398 437 OFFCURVE",
"458 347 OFFCURVE",
"458 215 CURVE SMOOTH"
);
},
{
nodes = (
"596 387 OFFCURVE",
"510 481 OFFCURVE",
"380 481 CURVE SMOOTH",
"308 481 OFFCURVE",
"238 452 OFFCURVE",
"201 407 CURVE",
"210 647 OFFCURVE",
"357 804 OFFCURVE",
"568 804 CURVE",
"568 814 LINE",
"254 814 OFFCURVE",
"42 615 OFFCURVE",
"42 320 CURVE SMOOTH",
"42 120 OFFCURVE",
"156 -14 OFFCURVE",
"326 -14 CURVE SMOOTH",
"488 -14 OFFCURVE",
"596 90 OFFCURVE",
"596 247 CURVE SMOOTH"
);
}
);
width = 635;
}
);
leftKerningGroup = J;
},
{
glyphname = seven.onum;
layers = (
{
hints = (
{
horizontal = 1;
place = "{473, 127}";
type = Stem;
},
{
place = "{133, 154}";
type = Stem;
}
);
layerId = "E71AC35F-0C69-4082-8C40-135C79A9FCEF";
paths = (
{
nodes = (
"51 600 LINE",
"26 396 LINE",
"36 398 LINE",
"46 482 OFFCURVE",
"67 471 OFFCURVE",
"214 472 CURVE SMOOTH",
"417 474 LINE",
"247 319 OFFCURVE",
"133 49 OFFCURVE",
"133 -200 CURVE",
"287 -200 LINE",
"287 121 OFFCURVE",
"379 437 OFFCURVE",
"517 590 CURVE",
"517 600 LINE"
);
}
);
width = 505;
}
);
leftKerningGroup = J;
},
{
glyphname = eight.onum;
layers = (
{
hints = (
{
horizontal = 1;
place = "{-14, 16}";
type = Stem;
},
{
horizontal = 1;
place = "{477, 13}";
type = Stem;
},
{
horizontal = 1;
place = "{754, 10}";
type = Stem;
},
{
place = "{42, 158}";
type = Stem;
},
{
place = "{81, 161}";
type = Stem;
},
{
place = "{392, 161}";
type = Stem;
},
{
place = "{434, 158}";
type = Stem;
}
);
layerId = "E71AC35F-0C69-4082-8C40-135C79A9FCEF";
paths = (
{
nodes = (
"42 86 OFFCURVE",
"152 -14 OFFCURVE",
"317 -14 CURVE SMOOTH",
"482 -14 OFFCURVE",
"592 86 OFFCURVE",
"592 235 CURVE SMOOTH",
"592 371 OFFCURVE",
"502 466 OFFCURVE",
"364 483 CURVE",
"479 494 OFFCURVE",
"553 548 OFFCURVE",
"553 623 CURVE SMOOTH",
"553 708 OFFCURVE",
"459 764 OFFCURVE",
"317 764 CURVE SMOOTH",
"175 764 OFFCURVE",
"81 708 OFFCURVE",
"81 624 CURVE SMOOTH",
"81 548 OFFCURVE",
"155 494 OFFCURVE",
"270 483 CURVE",
"132 466 OFFCURVE",
"42 371 OFFCURVE",
"42 236 CURVE SMOOTH"
);
},
{
nodes = (
"242 702 OFFCURVE",
"272 754 OFFCURVE",
"317 754 CURVE SMOOTH",
"362 754 OFFCURVE",
"392 702 OFFCURVE",
"392 624 CURVE SMOOTH",
"392 544 OFFCURVE",
"362 490 OFFCURVE",
"317 490 CURVE SMOOTH",
"272 490 OFFCURVE",
"242 544 OFFCURVE",
"242 625 CURVE SMOOTH"
);
},
{
nodes = (
"200 385 OFFCURVE",
"247 477 OFFCURVE",
"317 477 CURVE SMOOTH",
"387 477 OFFCURVE",
"434 385 OFFCURVE",
"434 246 CURVE SMOOTH",
"434 100 OFFCURVE",
"387 2 OFFCURVE",
"317 2 CURVE SMOOTH",
"247 2 OFFCURVE",
"200 100 OFFCURVE",
"200 246 CURVE SMOOTH"
);
}
);
width = 634;
}
);
leftKerningGroup = J;
},
{
glyphname = nine.onum;
layers = (
{
hints = (
{
horizontal = 1;
place = "{-214, 10}";
type = Stem;
},
{
horizontal = 1;
place = "{119, 44}";
type = Stem;
},
{
horizontal = 1;
place = "{600, 14}";
type = Stem;
},
{
place = "{31, 138}";
type = Stem;
},
{
place = "{426, 159}";
type = Stem;
}
);
layerId = "E71AC35F-0C69-4082-8C40-135C79A9FCEF";
paths = (
{
nodes = (
"169 509 OFFCURVE",
"221 600 OFFCURVE",
"291 600 CURVE SMOOTH",
"383 600 OFFCURVE",
"434 450 OFFCURVE",
"426 213 CURVE",
"399 182 OFFCURVE",
"357 163 OFFCURVE",
"316 163 CURVE SMOOTH",
"229 163 OFFCURVE",
"169 253 OFFCURVE",
"169 385 CURVE SMOOTH"
);
},
{
nodes = (
"31 213 OFFCURVE",
"117 119 OFFCURVE",
"247 119 CURVE SMOOTH",
"319 119 OFFCURVE",
"389 148 OFFCURVE",
"426 193 CURVE",
"417 -47 OFFCURVE",
"270 -204 OFFCURVE",
"59 -204 CURVE",
"59 -214 LINE",
"373 -214 OFFCURVE",
"585 -15 OFFCURVE",
"585 279 CURVE SMOOTH",
"585 480 OFFCURVE",
"471 614 OFFCURVE",
"301 614 CURVE SMOOTH",
"139 614 OFFCURVE",
"31 510 OFFCURVE",
"31 353 CURVE SMOOTH"
);
}
);
width = 627;
}
);
leftKerningGroup = J;
},
{
glyphname = tilde;
layers = (
{
hints = (
{
horizontal = 1;
place = "{613, 70}";
type = Stem;
},
{
horizontal = 1;
place = "{670, 70}";
type = Stem;
},
{
place = "{31, 295}";
type = Stem;
}
);
layerId = "E71AC35F-0C69-4082-8C40-135C79A9FCEF";
paths = (
{
nodes = (
"316 727 LINE",
"297 693 OFFCURVE",
"276 683 OFFCURVE",
"256 683 CURVE SMOOTH",
"209 683 OFFCURVE",
"181 740 OFFCURVE",
"129 740 CURVE SMOOTH",
"94 740 OFFCURVE",
"55 696 OFFCURVE",
"31 630 CURVE",
"41 626 LINE",
"58 657 OFFCURVE",
"85 670 OFFCURVE",
"107 670 CURVE SMOOTH",
"153 670 OFFCURVE",
"181 613 OFFCURVE",
"234 613 CURVE SMOOTH",
"273 613 OFFCURVE",
"310 657 OFFCURVE",
"326 723 CURVE"
);
}
);
width = 357;
}
);
leftKerningGroup = J;
unicode = 02DC;
},
{
glyphname = quotesingle;
layers = (
{
hints = (
{
horizontal = 1;
place = "{764, -20}";
target = down;
type = TopGhost;
},
{
place = "{91, 10}";
type = Stem;
}
);
layerId = "E71AC35F-0C69-4082-8C40-135C79A9FCEF";
paths = (
{
nodes = (
"58 764 OFFCURVE",
"31 739 OFFCURVE",
"31 706 CURVE SMOOTH",
"31 656 OFFCURVE",
"91 624 OFFCURVE",
"91 516 CURVE",
"101 516 LINE",
"101 624 OFFCURVE",
"161 656 OFFCURVE",
"161 706 CURVE SMOOTH",
"161 739 OFFCURVE",
"133 764 OFFCURVE",
"95 764 CURVE SMOOTH"
);
}
);
width = 191;
}
);
leftKerningGroup = J;
unicode = 0027;
},
{
glyphname = quotedbl;
layers = (
{
hints = (
{
horizontal = 1;
place = "{764, -20}";
target = down;
type = TopGhost;
},
{
place = "{90, 10}";
type = Stem;
},
{
place = "{251, 10}";
type = Stem;
}
);
layerId = "E71AC35F-0C69-4082-8C40-135C79A9FCEF";
paths = (
{
nodes = (
"57 764 OFFCURVE",
"30 739 OFFCURVE",
"30 706 CURVE SMOOTH",
"30 656 OFFCURVE",
"90 624 OFFCURVE",
"90 516 CURVE",
"100 516 LINE",
"100 624 OFFCURVE",
"160 656 OFFCURVE",
"160 706 CURVE SMOOTH",
"160 739 OFFCURVE",
"132 764 OFFCURVE",
"95 764 CURVE SMOOTH"
);
},
{
nodes = (
"218 764 OFFCURVE",
"191 739 OFFCURVE",
"191 706 CURVE SMOOTH",
"191 656 OFFCURVE",
"251 624 OFFCURVE",
"251 516 CURVE",
"261 516 LINE",
"261 624 OFFCURVE",
"321 656 OFFCURVE",
"321 706 CURVE SMOOTH",
"321 739 OFFCURVE",
"293 764 OFFCURVE",
"256 764 CURVE SMOOTH"
);
}
);
width = 352;
}
);
leftKerningGroup = J;
unicode = 0022;
},
{
glyphname = numbersign;
layers = (
{
hints = (
{
horizontal = 1;
place = "{-14, 21}";
target = up;
type = BottomGhost;
},
{
horizontal = 1;
place = "{171, 127}";
type = Stem;
},
{
horizontal = 1;
place = "{452, 127}";
type = Stem;
},
{
horizontal = 1;
place = "{765, -20}";
target = down;
type = TopGhost;
},
{
place = "{31, 512}";
type = Stem;
}
);
layerId = "E71AC35F-0C69-4082-8C40-135C79A9FCEF";
paths = (
{
nodes = (
"105 -14 LINE",
"118 -15 LINE",
"161 171 LINE",
"318 171 LINE",
"275 -14 LINE",
"288 -15 LINE",
"331 171 LINE",
"496 171 LINE",
"496 298 LINE",
"360 298 LINE",
"396 452 LINE",
"542 452 LINE",
"543 579 LINE",
"425 579 LINE",
"468 764 LINE",
"455 765 LINE",
"412 579 LINE",
"256 579 LINE",
"299 764 LINE",
"286 765 LINE",
"243 579 LINE",
"77 579 LINE",
"77 452 LINE",
"213 452 LINE",
"177 298 LINE",
"31 298 LINE",
"31 171 LINE",
"148 171 LINE"
);
},
{
nodes = (
"191 298 LINE",
"226 452 LINE",
"383 452 LINE",
"347 298 LINE"
);
}
);
width = 574;
}
);
leftKerningGroup = J;
unicode = 0023;
},
{
glyphname = at;
layers = (
{
hints = (
{
horizontal = 1;
place = "{-147, 31}";
type = Stem;
},
{
horizontal = 1;
place = "{64, 58}";
type = Stem;
},
{
horizontal = 1;
place = "{65, 16}";
type = Stem;
},
{
horizontal = 1;
place = "{488, 16}";
type = Stem;
},
{
horizontal = 1;
place = "{694, 15}";
type = Stem;
},
{
place = "{33, 119}";
type = Stem;
},
{
place = "{247, 135}";
type = Stem;
},
{
place = "{546, 123}";
type = Stem;
},
{
place = "{840, 105}";
type = Stem;
}
);
layerId = "E71AC35F-0C69-4082-8C40-135C79A9FCEF";
paths = (
{
nodes = (
"540 119 OFFCURVE",
"609 65 OFFCURVE",
"717 65 CURVE",
"849 60 OFFCURVE",
"941 168 OFFCURVE",
"945 333 CURVE SMOOTH",
"950 557 OFFCURVE",
"789 707 OFFCURVE",
"540 709 CURVE SMOOTH",
"253 712 OFFCURVE",
"38 516 OFFCURVE",
"33 246 CURVE SMOOTH",
"29 10 OFFCURVE",
"185 -145 OFFCURVE",
"430 -147 CURVE SMOOTH",
"553 -148 OFFCURVE",
"682 -110 OFFCURVE",
"752 -51 CURVE",
"745 -43 LINE",
"682 -87 OFFCURVE",
"573 -117 OFFCURVE",
"479 -116 CURVE SMOOTH",
"276 -114 OFFCURVE",
"148 33 OFFCURVE",
"152 258 CURVE SMOOTH",
"157 510 OFFCURVE",
"323 697 OFFCURVE",
"539 694 CURVE SMOOTH",
"728 692 OFFCURVE",
"845 544 OFFCURVE",
"840 313 CURVE",
"836 172 OFFCURVE",
"790 79 OFFCURVE",
"724 81 CURVE",
"673 81 OFFCURVE",
"658 124 OFFCURVE",
"677 214 CURVE SMOOTH",
"738 499 LINE",
"728 499 LINE",
"715 466 OFFCURVE",
"694 464 OFFCURVE",
"616 485 CURVE SMOOTH",
"585 493 OFFCURVE",
"555 503 OFFCURVE",
"513 504 CURVE SMOOTH",
"365 507 OFFCURVE",
"255 398 OFFCURVE",
"247 241 CURVE SMOOTH",
"241 130 OFFCURVE",
"292 64 OFFCURVE",
"369 64 CURVE SMOOTH",
"437 64 OFFCURVE",
"504 116 OFFCURVE",
"546 201 CURVE"
);
},
{
nodes = (
"567 302 LINE SMOOTH",
"545 196 OFFCURVE",
"493 122 OFFCURVE",
"442 122 CURVE SMOOTH",
"401 122 OFFCURVE",
"376 168 OFFCURVE",
"382 262 CURVE SMOOTH",
"390 400 OFFCURVE",
"454 491 OFFCURVE",
"539 488 CURVE SMOOTH",
"579 487 OFFCURVE",
"602 467 OFFCURVE",
"596 439 CURVE SMOOTH"
);
}
);
width = 979;
}
);
leftKerningGroup = J;
unicode = 0040;
},
{
glyphname = dollar;
layers = (
{
hints = (
{
horizontal = 1;
place = "{-14, 18}";
type = Stem;
},
{
horizontal = 1;
place = "{-12, 16}";
type = Stem;
},
{
horizontal = 1;
place = "{-11, 21}";
target = up;
type = BottomGhost;
},
{
horizontal = 1;
place = "{0, 21}";
target = up;
type = BottomGhost;
},
{
horizontal = 1;
place = "{749, 15}";
type = Stem;
},
{
horizontal = 1;
place = "{750, -20}";
target = down;
type = TopGhost;
},
{
place = "{44, 122}";
type = Stem;
},
{
place = "{264, 10}";
type = Stem;
},
{
place = "{373, 110}";
type = Stem;
}
);
layerId = "E71AC35F-0C69-4082-8C40-135C79A9FCEF";
paths = (
{
nodes = (
"264 -60 LINE",
"274 -60 LINE",
"274 -11 LINE",
"401 4 OFFCURVE",
"483 92 OFFCURVE",
"483 217 CURVE SMOOTH",
"483 305 OFFCURVE",
"434 368 OFFCURVE",
"314 461 CURVE",
"275 493 LINE",
"274 493 OFFCURVE",
"274 493 OFFCURVE",
"274 493 CURVE",
"274 749 LINE",
"359 747 OFFCURVE",
"403 680 OFFCURVE",
"424 526 CURVE",
"434 526 LINE",
"424 750 LINE",
"350 750 OFFCURVE",
"329 763 OFFCURVE",
"274 764 CURVE",
"274 810 LINE",
"264 810 LINE",
"264 764 LINE",
"132 763 OFFCURVE",
"44 693 OFFCURVE",
"44 588 CURVE SMOOTH",
"44 500 OFFCURVE",
"81 447 OFFCURVE",
"171 375 CURVE SMOOTH",
"210 344 LINE SMOOTH",
"230 328 OFFCURVE",
"248 313 OFFCURVE",
"264 299 CURVE",
"264 6 LINE",
"255 5 OFFCURVE",
"246 4 OFFCURVE",
"237 4 CURVE SMOOTH",
"123 4 OFFCURVE",
"66 84 OFFCURVE",
"44 270 CURVE",
"33 270 LINE",
"66 0 LINE",
"162 0 OFFCURVE",
"175 -14 OFFCURVE",
"237 -14 CURVE",
"246 -13 OFFCURVE",
"255 -13 OFFCURVE",
"264 -12 CURVE"
);
},
{
nodes = (
"264 501 LINE",
"197 556 OFFCURVE",
"166 597 OFFCURVE",
"166 661 CURVE SMOOTH",
"166 712 OFFCURVE",
"205 747 OFFCURVE",
"264 749 CURVE"
);
},
{
nodes = (
"274 290 LINE",
"342 230 OFFCURVE",
"373 184 OFFCURVE",
"373 131 CURVE SMOOTH",
"373 67 OFFCURVE",
"335 21 OFFCURVE",
"274 8 CURVE"
);
}
);
width = 492;
}
);
leftKerningGroup = J;
unicode = 0024;
},
{
glyphname = Euro;
layers = (
{
hints = (
{
horizontal = 1;
place = "{-14, 16}";
type = Stem;
},
{
horizontal = 1;
place = "{0, 21}";
target = up;
type = BottomGhost;
},
{
horizontal = 1;
place = "{327, 13}";
type = Stem;
},
{
horizontal = 1;
place = "{407, 13}";
type = Stem;
},
{
horizontal = 1;
place = "{750, -20}";
target = down;
type = TopGhost;
},
{
horizontal = 1;
place = "{751, 13}";
type = Stem;
},
{
place = "{132, 170}";
type = Stem;
}
);
layerId = "E71AC35F-0C69-4082-8C40-135C79A9FCEF";
paths = (
{
nodes = (
"614 750 LINE",
"542 750 OFFCURVE",
"519 764 OFFCURVE",
"473 764 CURVE SMOOTH",
"263 764 OFFCURVE",
"148 628 OFFCURVE",
"133 420 CURVE",
"33 420 LINE",
"31 407 LINE",
"133 407 LINE",
"132 396 OFFCURVE",
"132 386 OFFCURVE",
"132 375 CURVE SMOOTH",
"132 363 OFFCURVE",
"132 351 OFFCURVE",
"133 340 CURVE",
"33 340 LINE",
"31 327 LINE",
"134 327 LINE",
"149 122 OFFCURVE",
"265 -14 OFFCURVE",
"474 -14 CURVE SMOOTH",
"519 -14 OFFCURVE",
"542 0 OFFCURVE",
"630 0 CURVE",
"659 222 LINE",
"649 220 LINE",
"632 89 OFFCURVE",
"561 2 OFFCURVE",
"471 2 CURVE SMOOTH",
"376 2 OFFCURVE",
"311 130 OFFCURVE",
"303 327 CURVE",
"544 327 LINE",
"546 340 LINE",
"302 340 LINE",
"302 349 OFFCURVE",
"302 358 OFFCURVE",
"302 367 CURVE SMOOTH",
"302 381 OFFCURVE",
"302 394 OFFCURVE",
"303 407 CURVE",
"564 407 LINE",
"566 420 LINE",
"303 420 LINE",
"313 621 OFFCURVE",
"378 751 OFFCURVE",
"473 751 CURVE SMOOTH",
"553 751 OFFCURVE",
"617 663 OFFCURVE",
"634 530 CURVE",
"644 528 LINE"
);
}
);
width = 689;
}
);
leftKerningGroup = J;
unicode = 20AC;
},
{
glyphname = percent;
layers = (
{
hints = (
{
horizontal = 1;
place = "{-14, 12}";
type = Stem;
},
{
horizontal = 1;
place = "{0, 21}";
target = up;
type = BottomGhost;
},
{
horizontal = 1;
place = "{323, 11}";
type = Stem;
},
{
horizontal = 1;
place = "{416, 12}";
type = Stem;
},
{
horizontal = 1;
place = "{750, -20}";
target = down;
type = TopGhost;
},
{
horizontal = 1;
place = "{752, 12}";
type = Stem;
},
{
place = "{41, 106}";
type = Stem;
},
{
place = "{297, 106}";
type = Stem;
},
{
place = "{398, 106}";
type = Stem;
},
{
place = "{654, 106}";
type = Stem;
}
);
layerId = "E71AC35F-0C69-4082-8C40-135C79A9FCEF";
paths = (
{
nodes = (
"41 485 OFFCURVE",
"113 416 OFFCURVE",
"223 416 CURVE SMOOTH",
"332 416 OFFCURVE",
"403 485 OFFCURVE",
"403 590 CURVE SMOOTH",
"403 695 OFFCURVE",
"332 764 OFFCURVE",
"223 764 CURVE SMOOTH",
"113 764 OFFCURVE",
"41 695 OFFCURVE",
"41 590 CURVE SMOOTH"
);
},
{
nodes = (
"147 687 OFFCURVE",
"179 752 OFFCURVE",
"223 752 CURVE SMOOTH",
"266 752 OFFCURVE",
"297 687 OFFCURVE",
"297 590 CURVE SMOOTH",
"297 494 OFFCURVE",
"266 428 OFFCURVE",
"222 428 CURVE SMOOTH",
"178 428 OFFCURVE",
"147 494 OFFCURVE",
"147 590 CURVE SMOOTH"
);
},
{
nodes = (
"398 55 OFFCURVE",
"470 -14 OFFCURVE",
"579 -14 CURVE SMOOTH",
"689 -14 OFFCURVE",
"760 55 OFFCURVE",
"760 160 CURVE SMOOTH",
"760 265 OFFCURVE",
"689 334 OFFCURVE",
"579 334 CURVE SMOOTH",
"470 334 OFFCURVE",
"398 265 OFFCURVE",
"398 160 CURVE SMOOTH"
);
},
{
nodes = (
"504 257 OFFCURVE",
"536 323 OFFCURVE",
"579 323 CURVE SMOOTH",
"623 323 OFFCURVE",
"654 257 OFFCURVE",
"654 161 CURVE SMOOTH",
"654 64 OFFCURVE",
"623 -2 OFFCURVE",
"579 -2 CURVE SMOOTH",
"535 -2 OFFCURVE",
"504 64 OFFCURVE",
"504 161 CURVE SMOOTH"
);
},
{
nodes = (
"131 0 LINE",
"146 0 LINE",
"670 750 LINE",
"655 750 LINE"
);
}
);
width = 802;
}
);
leftKerningGroup = J;
unicode = 0025;
},
{
glyphname = ampersand;
layers = (
{
hints = (
{
horizontal = 1;
place = "{-14, 46}";
type = Stem;
},
{
horizontal = 1;
place = "{1, 12}";
type = Stem;
},
{
horizontal = 1;
place = "{383, 12}";
type = Stem;
},
{
horizontal = 1;
place = "{752, 12}";
type = Stem;
},
{
place = "{28, 144}";
type = Stem;
},
{
place = "{104, 128}";
type = Stem;
},
{
place = "{420, 101}";
type = Stem;
}
);
layerId = "E71AC35F-0C69-4082-8C40-135C79A9FCEF";
paths = (
{
nodes = (
"713 14 LINE SMOOTH",
"694 16 OFFCURVE",
"669 30 OFFCURVE",
"650 49 CURVE SMOOTH",
"634 65 OFFCURVE",
"605 99 OFFCURVE",
"566 149 CURVE SMOOTH",
"546 175 LINE",
"561 203 OFFCURVE",
"582 236 OFFCURVE",
"598 277 CURVE",
"621 341 OFFCURVE",
"656 377 OFFCURVE",
"697 382 CURVE SMOOTH",
"715 384 LINE",
"715 395 LINE",
"509 395 LINE",
"509 384 LINE",
"529 382 LINE SMOOTH",
"566 378 OFFCURVE",
"593 352 OFFCURVE",
"593 321 CURVE SMOOTH",
"593 292 OFFCURVE",
"569 235 OFFCURVE",
"537 184 CURVE",
"352 417 LINE",
"457 466 OFFCURVE",
"521 542 OFFCURVE",
"521 617 CURVE SMOOTH",
"521 702 OFFCURVE",
"437 764 OFFCURVE",
"319 764 CURVE SMOOTH",
"190 764 OFFCURVE",
"104 691 OFFCURVE",
"104 581 CURVE SMOOTH",
"104 520 OFFCURVE",
"124 474 OFFCURVE",
"187 390 CURVE SMOOTH",
"207 363 LINE",
"92 311 OFFCURVE",
"28 237 OFFCURVE",
"28 157 CURVE SMOOTH",
"28 56 OFFCURVE",
"127 -14 OFFCURVE",
"267 -14 CURVE SMOOTH",
"344 -14 OFFCURVE",
"397 7 OFFCURVE",
"451 58 CURVE",
"472 34 OFFCURVE",
"492 13 OFFCURVE",
"505 1 CURVE",
"729 1 LINE",
"729 12 LINE"
);
},
{
nodes = (
"232 706 OFFCURVE",
"267 752 OFFCURVE",
"319 752 CURVE SMOOTH",
"380 752 OFFCURVE",
"420 692 OFFCURVE",
"420 601 CURVE SMOOTH",
"420 526 OFFCURVE",
"392 461 OFFCURVE",
"345 427 CURVE",
"295 488 OFFCURVE",
"232 553 OFFCURVE",
"232 636 CURVE SMOOTH"
);
},
{
nodes = (
"443 65 LINE",
"418 44 OFFCURVE",
"381 32 OFFCURVE",
"342 32 CURVE SMOOTH",
"240 32 OFFCURVE",
"172 112 OFFCURVE",
"172 232 CURVE SMOOTH",
"172 291 OFFCURVE",
"188 337 OFFCURVE",
"215 355 CURVE"
);
}
);
width = 764;
}
);
leftKerningGroup = J;
unicode = 0026;
},
{
glyphname = parenleft;
layers = (
{
hints = (
{
horizontal = 1;
place = "{-155, 1009}";
type = Stem;
},
{
place = "{30, 165}";
type = Stem;
}
);
layerId = "E71AC35F-0C69-4082-8C40-135C79A9FCEF";
paths = (
{
nodes = (
"328 -148 LINE",
"251 -34 OFFCURVE",
"195 122 OFFCURVE",
"195 350 CURVE SMOOTH",
"195 577 OFFCURVE",
"251 733 OFFCURVE",
"328 847 CURVE",
"322 854 LINE",
"191 771 OFFCURVE",
"30 605 OFFCURVE",
"30 350 CURVE SMOOTH",
"30 95 OFFCURVE",
"191 -72 OFFCURVE",
"322 -155 CURVE"
);
}
);
width = 349;
}
);
leftKerningGroup = J;
unicode = 0028;
},
{
glyphname = parenright;
layers = (
{
hints = (
{
horizontal = 1;
place = "{-155, 1009}";
type = Stem;
},
{
place = "{153, 165}";
type = Stem;
}
);
layerId = "E71AC35F-0C69-4082-8C40-135C79A9FCEF";
paths = (
{
nodes = (
"26 -155 LINE",
"157 -72 OFFCURVE",
"318 95 OFFCURVE",
"318 350 CURVE SMOOTH",
"318 605 OFFCURVE",
"157 771 OFFCURVE",
"26 854 CURVE",
"20 847 LINE",
"97 733 OFFCURVE",
"153 577 OFFCURVE",
"153 350 CURVE SMOOTH",
"153 122 OFFCURVE",
"97 -34 OFFCURVE",
"20 -148 CURVE"
);
}
);
width = 349;
}
);
leftKerningGroup = J;
unicode = 0029;
},
{
glyphname = braceleft;
layers = (
{
hints = (
{
horizontal = 1;
place = "{345, 10}";
type = Stem;
},
{
place = "{99, 150}";
type = Stem;
}
);
layerId = "E71AC35F-0C69-4082-8C40-135C79A9FCEF";
paths = (
{
nodes = (
"308 854 LINE",
"148 827 OFFCURVE",
"77 731 OFFCURVE",
"105 541 CURVE SMOOTH",
"119 448 OFFCURVE",
"115 355 OFFCURVE",
"31 355 CURVE",
"31 345 LINE",
"115 345 OFFCURVE",
"120 251 OFFCURVE",
"105 156 CURVE SMOOTH",
"77 -32 OFFCURVE",
"148 -128 OFFCURVE",
"308 -155 CURVE",
"308 -145 LINE",
"248 -118 OFFCURVE",
"235 -53 OFFCURVE",
"244 15 CURVE",
"275 230 OFFCURVE",
"165 321 OFFCURVE",
"71 350 CURVE",
"165 380 OFFCURVE",
"275 469 OFFCURVE",
"244 684 CURVE",
"235 752 OFFCURVE",
"248 817 OFFCURVE",
"308 844 CURVE"
);
}
);
width = 318;
}
);
leftKerningGroup = J;
unicode = 007B;
},
{
glyphname = bar;
layers = (
{
hints = (
{
horizontal = 1;
place = "{-70, 890}";
type = Stem;
},
{
place = "{30, 10}";
type = Stem;
}
);
layerId = "E71AC35F-0C69-4082-8C40-135C79A9FCEF";
paths = (
{
nodes = (
"30 -70 LINE",
"40 -70 LINE",
"40 820 LINE",
"30 820 LINE"
);
}
);
width = 71;
}
);
leftKerningGroup = J;
unicode = 007C;
},
{
glyphname = braceright;
layers = (
{
hints = (
{
horizontal = 1;
place = "{345, 10}";
type = Stem;
},
{
place = "{69, 138}";
type = Stem;
},
{
place = "{69, 151}";
type = Stem;
}
);
layerId = "E71AC35F-0C69-4082-8C40-135C79A9FCEF";
paths = (
{
nodes = (
"11 844 LINE",
"71 817 OFFCURVE",
"84 752 OFFCURVE",
"74 684 CURVE SMOOTH",
"44 469 OFFCURVE",
"154 380 OFFCURVE",
"248 351 CURVE",
"154 321 OFFCURVE",
"44 230 OFFCURVE",
"74 15 CURVE SMOOTH",
"84 -53 OFFCURVE",
"71 -118 OFFCURVE",
"11 -145 CURVE",
"11 -155 LINE",
"171 -128 OFFCURVE",
"242 -32 OFFCURVE",
"213 156 CURVE SMOOTH",
"199 251 OFFCURVE",
"204 345 OFFCURVE",
"288 345 CURVE",
"288 355 LINE",
"204 355 OFFCURVE",
"200 448 OFFCURVE",
"214 541 CURVE SMOOTH",
"242 731 OFFCURVE",
"171 827 OFFCURVE",
"11 854 CURVE"
);
}
);
width = 318;
}
);
leftKerningGroup = J;
unicode = 007D;
},
{
glyphname = bracketleft;
layers = (
{
hints = (
{
horizontal = 1;
place = "{-155, 10}";
type = Stem;
},
{
horizontal = 1;
place = "{844, 10}";
type = Stem;
},
{
place = "{40, 160}";
type = Stem;
}
);
layerId = "E71AC35F-0C69-4082-8C40-135C79A9FCEF";
paths = (
{
nodes = (
"40 -155 LINE",
"350 -155 LINE",
"350 -145 LINE",
"200 -145 LINE",
"200 844 LINE",
"350 844 LINE",
"350 854 LINE",
"40 854 LINE"
);
}
);
width = 361;
}
);
leftKerningGroup = J;
unicode = 005B;
},
{
glyphname = bracketright;
layers = (
{
hints = (
{
horizontal = 1;
place = "{-155, 10}";
type = Stem;
},
{
horizontal = 1;
place = "{844, 10}";
type = Stem;
},
{
place = "{160, 160}";
type = Stem;
}
);
layerId = "E71AC35F-0C69-4082-8C40-135C79A9FCEF";
paths = (
{
nodes = (
"320 -155 LINE",
"320 854 LINE",
"10 854 LINE",
"10 844 LINE",
"160 844 LINE",
"160 -145 LINE",
"10 -145 LINE",
"10 -155 LINE"
);
}
);
width = 361;
}
);
leftKerningGroup = J;
unicode = 005D;
},
{
glyphname = quoteleft;
layers = (
{
hints = (
{
horizontal = 1;
place = "{503, 311}";
type = Stem;
},
{
place = "{31, 62}";
type = Stem;
}
);
layerId = "E71AC35F-0C69-4082-8C40-135C79A9FCEF";
paths = (
{
nodes = (
"191 659 OFFCURVE",
"93 631 OFFCURVE",
"93 689 CURVE SMOOTH",
"93 733 OFFCURVE",
"130 759 OFFCURVE",
"173 810 CURVE",
"164 814 LINE",
"95 738 OFFCURVE",
"31 689 OFFCURVE",
"31 594 CURVE SMOOTH",
"31 539 OFFCURVE",
"63 503 OFFCURVE",
"112 503 CURVE SMOOTH",
"159 503 OFFCURVE",
"191 533 OFFCURVE",
"191 579 CURVE SMOOTH"
);
}
);
width = 221;
}
);
leftKerningGroup = J;
unicode = 2018;
},
{
glyphname = quoteright;
layers = (
{
hints = (
{
horizontal = 1;
place = "{533, 281}";
type = Stem;
},
{
place = "{129, 62}";
type = Stem;
}
);
layerId = "E71AC35F-0C69-4082-8C40-135C79A9FCEF";
paths = (
{
nodes = (
"31 658 OFFCURVE",
"129 686 OFFCURVE",
"129 629 CURVE SMOOTH",
"129 603 OFFCURVE",
"109 581 OFFCURVE",
"52 544 CURVE",
"58 533 LINE",
"155 597 OFFCURVE",
"191 646 OFFCURVE",
"191 714 CURVE SMOOTH",
"191 777 OFFCURVE",
"160 814 OFFCURVE",
"109 814 CURVE SMOOTH",
"62 814 OFFCURVE",
"31 783 OFFCURVE",
"31 738 CURVE SMOOTH"
);
}
);
width = 221;
}
);
leftKerningGroup = J;
unicode = 2019;
},
{
glyphname = quotedblleft;
layers = (
{
hints = (
{
horizontal = 1;
place = "{503, 311}";
type = Stem;
},
{
place = "{31, 62}";
type = Stem;
},
{
place = "{226, 62}";
type = Stem;
}
);
layerId = "E71AC35F-0C69-4082-8C40-135C79A9FCEF";
paths = (
{
nodes = (
"386 659 OFFCURVE",
"288 631 OFFCURVE",
"288 689 CURVE SMOOTH",
"288 733 OFFCURVE",
"325 759 OFFCURVE",
"368 810 CURVE",
"359 814 LINE",
"290 738 OFFCURVE",
"226 689 OFFCURVE",
"226 594 CURVE SMOOTH",
"226 539 OFFCURVE",
"258 503 OFFCURVE",
"307 503 CURVE SMOOTH",
"354 503 OFFCURVE",
"386 533 OFFCURVE",
"386 579 CURVE SMOOTH"
);
},
{
nodes = (
"191 659 OFFCURVE",
"93 631 OFFCURVE",
"93 689 CURVE SMOOTH",
"93 733 OFFCURVE",
"130 759 OFFCURVE",
"173 810 CURVE",
"164 814 LINE",
"95 738 OFFCURVE",
"31 689 OFFCURVE",
"31 594 CURVE SMOOTH",
"31 539 OFFCURVE",
"63 503 OFFCURVE",
"112 503 CURVE SMOOTH",
"159 503 OFFCURVE",
"191 533 OFFCURVE",
"191 579 CURVE SMOOTH"
);
}
);
width = 416;
}
);
leftKerningGroup = J;
unicode = 201C;
},
{
glyphname = quotedblright;
layers = (
{
hints = (
{
horizontal = 1;
place = "{503, 311}";
type = Stem;
},
{
place = "{129, 62}";
type = Stem;
},
{
place = "{324, 62}";
type = Stem;
}
);
layerId = "E71AC35F-0C69-4082-8C40-135C79A9FCEF";
paths = (
{
nodes = (
"31 658 OFFCURVE",
"129 686 OFFCURVE",
"129 628 CURVE SMOOTH",
"129 584 OFFCURVE",
"92 558 OFFCURVE",
"49 507 CURVE",
"58 503 LINE",
"127 579 OFFCURVE",
"191 628 OFFCURVE",
"191 723 CURVE SMOOTH",
"191 778 OFFCURVE",
"159 814 OFFCURVE",
"110 814 CURVE SMOOTH",
"63 814 OFFCURVE",
"31 784 OFFCURVE",
"31 738 CURVE SMOOTH"
);
},
{
nodes = (
"226 658 OFFCURVE",
"324 686 OFFCURVE",
"324 628 CURVE SMOOTH",
"324 584 OFFCURVE",
"287 558 OFFCURVE",
"244 507 CURVE",
"253 503 LINE",
"322 579 OFFCURVE",
"386 628 OFFCURVE",
"386 723 CURVE SMOOTH",
"386 778 OFFCURVE",
"354 814 OFFCURVE",
"305 814 CURVE SMOOTH",
"258 814 OFFCURVE",
"226 784 OFFCURVE",
"226 738 CURVE SMOOTH"
);
}
);
width = 416;
}
);
leftKerningGroup = J;
unicode = 201D;
},
{
glyphname = quotesinglbase;
layers = (
{
hints = (
{
horizontal = 1;
place = "{-155, 311}";
type = Stem;
},
{
place = "{128, 62}";
type = Stem;
}
);
layerId = "E71AC35F-0C69-4082-8C40-135C79A9FCEF";
paths = (
{
nodes = (
"30 0 OFFCURVE",
"128 28 OFFCURVE",
"128 -30 CURVE SMOOTH",
"128 -74 OFFCURVE",
"91 -100 OFFCURVE",
"48 -151 CURVE",
"57 -155 LINE",
"126 -79 OFFCURVE",
"190 -30 OFFCURVE",
"190 65 CURVE SMOOTH",
"190 120 OFFCURVE",
"158 156 OFFCURVE",
"109 156 CURVE SMOOTH",
"62 156 OFFCURVE",
"30 126 OFFCURVE",
"30 80 CURVE SMOOTH"
);
}
);
width = 220;
}
);
leftKerningGroup = comma;
unicode = 201A;
},
{
glyphname = quotedblbase;
layers = (
{
hints = (
{
horizontal = 1;
place = "{-155, 311}";
type = Stem;
},
{
place = "{128, 62}";
type = Stem;
},
{
place = "{323, 62}";
type = Stem;
}
);
layerId = "E71AC35F-0C69-4082-8C40-135C79A9FCEF";
paths = (
{
nodes = (
"30 0 OFFCURVE",
"128 28 OFFCURVE",
"128 -30 CURVE SMOOTH",
"128 -74 OFFCURVE",
"91 -100 OFFCURVE",
"48 -151 CURVE",
"57 -155 LINE",
"126 -79 OFFCURVE",
"190 -30 OFFCURVE",
"190 65 CURVE SMOOTH",
"190 120 OFFCURVE",
"158 156 OFFCURVE",
"109 156 CURVE SMOOTH",
"62 156 OFFCURVE",
"30 126 OFFCURVE",
"30 80 CURVE SMOOTH"
);
},
{
nodes = (
"225 0 OFFCURVE",
"323 28 OFFCURVE",
"323 -30 CURVE SMOOTH",
"323 -74 OFFCURVE",
"286 -100 OFFCURVE",
"243 -151 CURVE",
"252 -155 LINE",
"321 -79 OFFCURVE",
"385 -30 OFFCURVE",
"385 65 CURVE SMOOTH",
"385 120 OFFCURVE",
"353 156 OFFCURVE",
"304 156 CURVE SMOOTH",
"257 156 OFFCURVE",
"225 126 OFFCURVE",
"225 80 CURVE SMOOTH"
);
}
);
width = 416;
}
);
leftKerningGroup = comma;
unicode = 201E;
},
{
glyphname = bullet;
layers = (
{
hints = (
{
horizontal = 1;
place = "{144, 340}";
type = Stem;
},
{
place = "{30, 340}";
type = Stem;
}
);
layerId = "E71AC35F-0C69-4082-8C40-135C79A9FCEF";
paths = (
{
nodes = (
"30 222 OFFCURVE",
"108 144 OFFCURVE",
"200 144 CURVE SMOOTH",
"292 144 OFFCURVE",
"370 222 OFFCURVE",
"370 314 CURVE SMOOTH",
"370 408 OFFCURVE",
"292 484 OFFCURVE",
"200 484 CURVE SMOOTH",
"108 484 OFFCURVE",
"30 408 OFFCURVE",
"30 314 CURVE SMOOTH"
);
}
);
width = 400;
}
);
leftKerningGroup = J;
unicode = 2022;
},
{
glyphname = underscore;
layers = (
{
hints = (
{
horizontal = 1;
place = "{-55, 10}";
type = Stem;
},
{
place = "{30, 350}";
type = Stem;
}
);
layerId = "E71AC35F-0C69-4082-8C40-135C79A9FCEF";
paths = (
{
nodes = (
"30 -55 LINE",
"380 -55 LINE",
"380 -45 LINE",
"30 -45 LINE"
);
}
);
width = 409;
}
);
leftKerningGroup = J;
unicode = 005F;
},
{
glyphname = endash;
layers = (
{
hints = (
{
horizontal = 1;
place = "{295, 10}";
type = Stem;
},
{
place = "{30, 395}";
type = Stem;
}
);
layerId = "E71AC35F-0C69-4082-8C40-135C79A9FCEF";
paths = (
{
nodes = (
"30 295 LINE",
"425 295 LINE",
"425 305 LINE",
"30 305 LINE"
);
}
);
width = 454;
}
);
leftKerningGroup = J;
unicode = 2013;
},
{
glyphname = emdash;
layers = (
{
hints = (
{
horizontal = 1;
place = "{295, 10}";
type = Stem;
},
{
place = "{29, 790}";
type = Stem;
}
);
layerId = "E71AC35F-0C69-4082-8C40-135C79A9FCEF";
paths = (
{
nodes = (
"29 295 LINE",
"819 295 LINE",
"819 305 LINE",
"29 305 LINE"
);
}
);
width = 848;
}
);
leftKerningGroup = J;
unicode = 2014;
},
{
glyphname = macron;
layers = (
{
hints = (
{
horizontal = 1;
place = "{671, 53}";
type = Stem;
},
{
place = "{32, 220}";
type = Stem;
}
);
layerId = "E71AC35F-0C69-4082-8C40-135C79A9FCEF";
paths = (
{
nodes = (
"32 671 LINE",
"252 671 LINE",
"252 724 LINE",
"32 724 LINE"
);
}
);
width = 283;
}
);
leftKerningGroup = J;
unicode = 00AF;
},
{
glyphname = logicalnot;
layers = (
{
hints = (
{
horizontal = 1;
place = "{411, 10}";
type = Stem;
},
{
place = "{365, 10}";
type = Stem;
}
);
layerId = "E71AC35F-0C69-4082-8C40-135C79A9FCEF";
paths = (
{
nodes = (
"45 411 LINE",
"375 411 LINE",
"375 421 LINE",
"45 421 LINE"
);
},
{
nodes = (
"365 421 LINE",
"365 256 LINE",
"375 256 LINE",
"375 421 LINE"
);
}
);
width = 420;
}
);
leftKerningGroup = J;
unicode = 00AC;
},
{
glyphname = registered;
layers = (
{
hints = (
{
horizontal = 1;
place = "{372, 17}";
type = Stem;
},
{
horizontal = 1;
place = "{450, 7}";
type = Stem;
},
{
horizontal = 1;
place = "{676, 7}";
type = Stem;
},
{
horizontal = 1;
place = "{677, 83}";
type = Stem;
},
{
horizontal = 1;
place = "{743, 17}";
type = Stem;
},
{
place = "{13, 20}";
type = Stem;
},
{
place = "{134, 46}";
type = Stem;
},
{
place = "{238, 43}";
type = Stem;
},
{
place = "{381, 20}";
type = Stem;
}
);
layerId = "E71AC35F-0C69-4082-8C40-135C79A9FCEF";
paths = (
{
nodes = (
"33 673 OFFCURVE",
"101 743 OFFCURVE",
"207 743 CURVE SMOOTH",
"313 743 OFFCURVE",
"381 673 OFFCURVE",
"381 565 CURVE SMOOTH",
"381 458 OFFCURVE",
"313 389 OFFCURVE",
"207 389 CURVE SMOOTH",
"101 389 OFFCURVE",
"33 458 OFFCURVE",
"33 565 CURVE SMOOTH"
);
},
{
nodes = (
"13 449 OFFCURVE",
"90 372 OFFCURVE",
"207 372 CURVE SMOOTH",
"323 372 OFFCURVE",
"401 449 OFFCURVE",
"401 565 CURVE SMOOTH",
"401 682 OFFCURVE",
"323 760 OFFCURVE",
"207 760 CURVE SMOOTH",
"90 760 OFFCURVE",
"13 682 OFFCURVE",
"13 565 CURVE SMOOTH"
);
},
{
nodes = (
"180 563 LINE",
"183 563 LINE SMOOTH",
"194 563 OFFCURVE",
"198 559 OFFCURVE",
"209 537 CURVE",
"239 481 LINE",
"243 471 OFFCURVE",
"250 459 OFFCURVE",
"256 450 CURVE",
"318 450 LINE",
"318 457 LINE",
"308 457 OFFCURVE",
"297 466 OFFCURVE",
"289 479 CURVE SMOOTH",
"257 535 LINE",
"249 551 OFFCURVE",
"238 562 OFFCURVE",
"231 564 CURVE",
"261 568 OFFCURVE",
"281 592 OFFCURVE",
"281 622 CURVE SMOOTH",
"281 659 OFFCURVE",
"253 683 OFFCURVE",
"210 683 CURVE SMOOTH",
"110 683 LINE",
"110 676 LINE",
"124 676 OFFCURVE",
"134 666 OFFCURVE",
"134 652 CURVE SMOOTH",
"134 638 LINE",
"134 478 LINE SMOOTH",
"134 465 OFFCURVE",
"124 457 OFFCURVE",
"110 457 CURVE",
"110 450 LINE",
"205 450 LINE",
"205 457 LINE",
"190 457 OFFCURVE",
"180 465 OFFCURVE",
"180 478 CURVE SMOOTH"
);
},
{
nodes = (
"180 569 LINE",
"180 637 LINE",
"180 677 LINE",
"197 677 LINE SMOOTH",
"222 677 OFFCURVE",
"238 657 OFFCURVE",
"238 623 CURVE SMOOTH",
"238 589 OFFCURVE",
"221 569 OFFCURVE",
"195 569 CURVE SMOOTH"
);
}
);
width = 414;
}
);
leftKerningGroup = J;
unicode = 00AE;
},
{
glyphname = copyright;
layers = (
{
hints = (
{
horizontal = 1;
place = "{-14, 21}";
type = Stem;
},
{
horizontal = 1;
place = "{128, 13}";
type = Stem;
},
{
horizontal = 1;
place = "{610, 12}";
type = Stem;
},
{
horizontal = 1;
place = "{743, 21}";
type = Stem;
},
{
place = "{38, 24}";
type = Stem;
},
{
place = "{173, 110}";
type = Stem;
},
{
place = "{798, 24}";
type = Stem;
}
);
layerId = "E71AC35F-0C69-4082-8C40-135C79A9FCEF";
paths = (
{
nodes = (
"597 612 LINE",
"533 612 OFFCURVE",
"518 622 OFFCURVE",
"462 622 CURVE SMOOTH",
"287 622 OFFCURVE",
"173 525 OFFCURVE",
"173 376 CURVE SMOOTH",
"173 227 OFFCURVE",
"286 128 OFFCURVE",
"454 128 CURVE SMOOTH",
"512 128 OFFCURVE",
"541 139 OFFCURVE",
"603 139 CURVE",
"626 286 LINE",
"616 286 LINE",
"596 192 OFFCURVE",
"534 141 OFFCURVE",
"456 141 CURVE SMOOTH",
"352 141 OFFCURVE",
"283 231 OFFCURVE",
"283 371 CURVE SMOOTH",
"283 513 OFFCURVE",
"353 610 OFFCURVE",
"453 610 CURVE SMOOTH",
"532 610 OFFCURVE",
"594 550 OFFCURVE",
"611 464 CURVE",
"621 464 LINE"
);
},
{
nodes = (
"33 166 OFFCURVE",
"216 -18 OFFCURVE",
"430 -14 CURVE",
"644 -18 OFFCURVE",
"827 166 OFFCURVE",
"822 375 CURVE",
"827 585 OFFCURVE",
"643 767 OFFCURVE",
"430 764 CURVE",
"216 767 OFFCURVE",
"33 585 OFFCURVE",
"38 375 CURVE"
);
},
{
nodes = (
"801 182 OFFCURVE",
"622 3 OFFCURVE",
"430 7 CURVE",
"238 3 OFFCURVE",
"59 182 OFFCURVE",
"62 375 CURVE",
"59 568 OFFCURVE",
"238 746 OFFCURVE",
"430 743 CURVE",
"622 746 OFFCURVE",
"801 568 OFFCURVE",
"798 375 CURVE"
);
}
);
width = 860;
}
);
leftKerningGroup = J;
unicode = 00A9;
},
{
glyphname = currency;
layers = (
{
hints = (
{
horizontal = 1;
place = "{199, 11}";
type = Stem;
},
{
horizontal = 1;
place = "{468, 11}";
type = Stem;
},
{
place = "{62, 12}";
type = Stem;
},
{
place = "{340, 12}";
type = Stem;
}
);
layerId = "E71AC35F-0C69-4082-8C40-135C79A9FCEF";
paths = (
{
nodes = (
"62 301 OFFCURVE",
"78 267 OFFCURVE",
"103 242 CURVE",
"36 175 LINE",
"43 168 LINE",
"110 235 LINE",
"136 212 OFFCURVE",
"170 199 OFFCURVE",
"207 199 CURVE SMOOTH",
"244 199 OFFCURVE",
"278 212 OFFCURVE",
"304 235 CURVE",
"371 168 LINE",
"378 175 LINE",
"311 242 LINE",
"336 267 OFFCURVE",
"352 301 OFFCURVE",
"352 339 CURVE SMOOTH",
"352 378 OFFCURVE",
"336 412 OFFCURVE",
"311 437 CURVE",
"378 503 LINE",
"371 510 LINE",
"304 443 LINE",
"278 466 OFFCURVE",
"244 479 OFFCURVE",
"207 479 CURVE SMOOTH",
"170 479 OFFCURVE",
"136 466 OFFCURVE",
"110 443 CURVE",
"43 510 LINE",
"36 503 LINE",
"102 436 LINE",
"78 412 OFFCURVE",
"62 378 OFFCURVE",
"62 339 CURVE SMOOTH"
);
},
{
nodes = (
"74 409 OFFCURVE",
"135 468 OFFCURVE",
"207 468 CURVE SMOOTH",
"279 468 OFFCURVE",
"340 409 OFFCURVE",
"340 339 CURVE SMOOTH",
"340 270 OFFCURVE",
"279 210 OFFCURVE",
"207 210 CURVE SMOOTH",
"135 210 OFFCURVE",
"74 270 OFFCURVE",
"74 339 CURVE SMOOTH"
);
}
);
width = 413;
}
);
leftKerningGroup = J;
unicode = 00A4;
},
{
glyphname = cent;
layers = (
{
hints = (
{
horizontal = 1;
place = "{-14, 89}";
type = Stem;
},
{
horizontal = 1;
place = "{507, 15}";
type = Stem;
},
{
place = "{48, 127}";
type = Stem;
},
{
place = "{279, 10}";
type = Stem;
}
);
layerId = "E71AC35F-0C69-4082-8C40-135C79A9FCEF";
paths = (
{
nodes = (
"48 96 OFFCURVE",
"142 -13 OFFCURVE",
"279 -14 CURVE",
"279 -104 LINE",
"289 -104 LINE",
"289 -14 LINE",
"395 -11 OFFCURVE",
"484 58 OFFCURVE",
"518 166 CURVE",
"508 169 LINE",
"469 112 OFFCURVE",
"404 75 OFFCURVE",
"343 75 CURVE SMOOTH",
"323 75 OFFCURVE",
"305 79 OFFCURVE",
"289 85 CURVE",
"289 506 LINE",
"344 498 OFFCURVE",
"378 416 OFFCURVE",
"378 286 CURVE",
"498 353 LINE",
"483 462 OFFCURVE",
"395 523 OFFCURVE",
"289 522 CURVE",
"289 612 LINE",
"279 612 LINE",
"279 522 LINE",
"142 515 OFFCURVE",
"48 406 OFFCURVE",
"48 251 CURVE SMOOTH"
);
},
{
nodes = (
"279 90 LINE",
"215 122 OFFCURVE",
"175 204 OFFCURVE",
"175 312 CURVE SMOOTH",
"175 425 OFFCURVE",
"218 506 OFFCURVE",
"279 507 CURVE"
);
}
);
width = 567;
}
);
leftKerningGroup = c2;
unicode = 00A2;
},
{
glyphname = yen;
layers = (
{
hints = (
{
horizontal = 1;
place = "{0, 10}";
type = Stem;
},
{
horizontal = 1;
place = "{336, 13}";
type = Stem;
},
{
horizontal = 1;
place = "{435, 13}";
type = Stem;
},
{
horizontal = 1;
place = "{740, 10}";
type = Stem;
},
{
place = "{283, 145}";
type = Stem;
},
{
place = "{570, 119}";
type = Stem;
}
);
layerId = "E71AC35F-0C69-4082-8C40-135C79A9FCEF";
paths = (
{
nodes = (
"79 336 LINE",
"633 336 LINE",
"633 349 LINE",
"79 349 LINE"
);
},
{
nodes = (
"79 435 LINE",
"633 435 LINE",
"633 448 LINE",
"79 448 LINE"
);
},
{
nodes = (
"499 740 LINE",
"578 740 OFFCURVE",
"590 690 OFFCURVE",
"539 621 CURVE SMOOTH",
"418 458 LINE",
"288 634 LINE SMOOTH",
"246 690 OFFCURVE",
"264 740 OFFCURVE",
"337 740 CURVE",
"337 750 LINE",
"-2 750 LINE",
"-2 740 LINE",
"-1 740 LINE",
"33 740 OFFCURVE",
"56 724 OFFCURVE",
"73 702 CURVE SMOOTH",
"283 430 LINE",
"283 90 LINE SMOOTH",
"283 42 OFFCURVE",
"251 10 OFFCURVE",
"203 10 CURVE",
"201 10 LINE",
"200 0 LINE",
"509 0 LINE",
"508 10 LINE",
"506 10 LINE",
"460 10 OFFCURVE",
"428 43 OFFCURVE",
"428 90 CURVE SMOOTH",
"428 448 LINE",
"568 637 LINE SMOOTH",
"613 697 OFFCURVE",
"644 737 OFFCURVE",
"689 740 CURVE",
"689 750 LINE",
"499 750 LINE"
);
}
);
width = 689;
}
);
leftKerningGroup = J;
unicode = 00A5;
},
{
glyphname = minus;
layers = (
{
hints = (
{
horizontal = 1;
place = "{334, 10}";
type = Stem;
},
{
place = "{45, 330}";
type = Stem;
}
);
layerId = "E71AC35F-0C69-4082-8C40-135C79A9FCEF";
paths = (
{
nodes = (
"45 334 LINE",
"375 334 LINE",
"375 344 LINE",
"45 344 LINE"
);
}
);
width = 420;
}
);
leftKerningGroup = J;
unicode = 2212;
},
{
glyphname = plusminus;
layers = (
{
hints = (
{
horizontal = 1;
place = "{134, 10}";
type = Stem;
},
{
horizontal = 1;
place = "{374, 10}";
type = Stem;
},
{
place = "{206, 10}";
type = Stem;
}
);
layerId = "E71AC35F-0C69-4082-8C40-135C79A9FCEF";
paths = (
{
nodes = (
"45 134 LINE",
"375 134 LINE",
"375 144 LINE",
"45 144 LINE"
);
},
{
nodes = (
"216 384 LINE",
"216 544 LINE",
"206 544 LINE",
"206 384 LINE",
"46 384 LINE",
"46 374 LINE",
"206 374 LINE",
"206 214 LINE",
"216 214 LINE",
"216 374 LINE",
"376 374 LINE",
"376 384 LINE"
);
}
);
width = 421;
}
);
leftKerningGroup = J;
unicode = 00B1;
},
{
glyphname = multiply;
layers = (
{
hints = (
{
horizontal = 1;
place = "{187, 302}";
type = Stem;
},
{
place = "{51, 284}";
type = Stem;
}
);
layerId = "E71AC35F-0C69-4082-8C40-135C79A9FCEF";
paths = (
{
nodes = (
"193 346 LINE",
"59 489 LINE",
"51 483 LINE",
"186 339 LINE",
"51 193 LINE",
"59 187 LINE",
"193 332 LINE",
"327 187 LINE",
"335 193 LINE",
"200 339 LINE",
"335 483 LINE",
"327 489 LINE"
);
}
);
width = 386;
}
);
leftKerningGroup = J;
unicode = 00D7;
},
{
glyphname = divide;
layers = (
{
hints = (
{
horizontal = 1;
place = "{182, 92}";
type = Stem;
},
{
horizontal = 1;
place = "{334, 10}";
type = Stem;
},
{
horizontal = 1;
place = "{404, 91}";
type = Stem;
},
{
place = "{167, 87}";
type = Stem;
}
);
layerId = "E71AC35F-0C69-4082-8C40-135C79A9FCEF";
paths = (
{
nodes = (
"46 334 LINE",
"376 334 LINE",
"376 344 LINE",
"46 344 LINE"
);
},
{
nodes = (
"167 203 OFFCURVE",
"186 182 OFFCURVE",
"211 182 CURVE SMOOTH",
"235 182 OFFCURVE",
"254 203 OFFCURVE",
"254 228 CURVE SMOOTH",
"254 254 OFFCURVE",
"235 274 OFFCURVE",
"211 274 CURVE SMOOTH",
"186 274 OFFCURVE",
"167 254 OFFCURVE",
"167 228 CURVE SMOOTH"
);
},
{
nodes = (
"167 425 OFFCURVE",
"186 404 OFFCURVE",
"211 404 CURVE SMOOTH",
"235 404 OFFCURVE",
"254 425 OFFCURVE",
"254 449 CURVE SMOOTH",
"254 475 OFFCURVE",
"235 495 OFFCURVE",
"211 495 CURVE SMOOTH",
"186 495 OFFCURVE",
"167 475 OFFCURVE",
"167 449 CURVE SMOOTH"
);
}
);
width = 421;
}
);
leftKerningGroup = J;
unicode = 00F7;
},
{
glyphname = brokenbar;
layers = (
{
hints = (
{
horizontal = 1;
place = "{-70, 890}";
type = Stem;
},
{
place = "{30, 10}";
type = Stem;
}
);
layerId = "E71AC35F-0C69-4082-8C40-135C79A9FCEF";
paths = (
{
nodes = (
"40 410 LINE",
"40 820 LINE",
"30 820 LINE",
"30 410 LINE"
);
},
{
nodes = (
"30 290 LINE",
"30 -70 LINE",
"40 -70 LINE",
"40 290 LINE"
);
}
);
width = 71;
}
);
leftKerningGroup = J;
unicode = 00A6;
},
{
glyphname = ellipsis;
layers = (
{
hints = (
{
horizontal = 1;
place = "{-14, 170}";
type = Stem;
},
{
place = "{30, 170}";
type = Stem;
},
{
place = "{248, 170}";
type = Stem;
},
{
place = "{466, 170}";
type = Stem;
}
);
layerId = "E71AC35F-0C69-4082-8C40-135C79A9FCEF";
paths = (
{
nodes = (
"30 25 OFFCURVE",
"69 -14 OFFCURVE",
"115 -14 CURVE SMOOTH",
"161 -14 OFFCURVE",
"200 25 OFFCURVE",
"200 71 CURVE SMOOTH",
"200 118 OFFCURVE",
"161 156 OFFCURVE",
"115 156 CURVE SMOOTH",
"69 156 OFFCURVE",
"30 118 OFFCURVE",
"30 71 CURVE SMOOTH"
);
},
{
nodes = (
"248 25 OFFCURVE",
"287 -14 OFFCURVE",
"333 -14 CURVE SMOOTH",
"379 -14 OFFCURVE",
"418 25 OFFCURVE",
"418 71 CURVE SMOOTH",
"418 118 OFFCURVE",
"379 156 OFFCURVE",
"333 156 CURVE SMOOTH",
"287 156 OFFCURVE",
"248 118 OFFCURVE",
"248 71 CURVE SMOOTH"
);
},
{
nodes = (
"466 25 OFFCURVE",
"505 -14 OFFCURVE",
"551 -14 CURVE SMOOTH",
"597 -14 OFFCURVE",
"636 25 OFFCURVE",
"636 71 CURVE SMOOTH",
"636 118 OFFCURVE",
"597 156 OFFCURVE",
"551 156 CURVE SMOOTH",
"505 156 OFFCURVE",
"466 118 OFFCURVE",
"466 71 CURVE SMOOTH"
);
}
);
width = 666;
}
);
leftKerningGroup = comma;
unicode = 2026;
},
{
glyphname = periodcentered;
layers = (
{
hints = (
{
horizontal = 1;
place = "{169, 170}";
type = Stem;
},
{
place = "{31, 170}";
type = Stem;
}
);
layerId = "E71AC35F-0C69-4082-8C40-135C79A9FCEF";
paths = (
{
nodes = (
"31 208 OFFCURVE",
"70 169 OFFCURVE",
"116 169 CURVE SMOOTH",
"162 169 OFFCURVE",
"201 208 OFFCURVE",
"201 254 CURVE SMOOTH",
"201 301 OFFCURVE",
"162 339 OFFCURVE",
"116 339 CURVE SMOOTH",
"70 339 OFFCURVE",
"31 301 OFFCURVE",
"31 254 CURVE SMOOTH"
);
}
);
width = 231;
}
);
leftKerningGroup = J;
unicode = 00B7;
},
{
glyphname = exclamdown;
layers = (
{
hints = (
{
horizontal = 1;
place = "{-214, 21}";
target = up;
type = BottomGhost;
},
{
place = "{52, 170}";
type = Stem;
}
);
layerId = "E71AC35F-0C69-4082-8C40-135C79A9FCEF";
paths = (
{
nodes = (
"52 -180 OFFCURVE",
"86 -214 OFFCURVE",
"137 -214 CURVE SMOOTH",
"188 -214 OFFCURVE",
"222 -180 OFFCURVE",
"222 -128 CURVE SMOOTH",
"222 -47 OFFCURVE",
"141 22 OFFCURVE",
"143 269 CURVE",
"133 269 LINE",
"136 22 OFFCURVE",
"52 -47 OFFCURVE",
"52 -128 CURVE SMOOTH"
);
},
{
nodes = (
"224 390 OFFCURVE",
"186 352 OFFCURVE",
"139 352 CURVE SMOOTH",
"93 352 OFFCURVE",
"54 390 OFFCURVE",
"54 436 CURVE SMOOTH",
"54 483 OFFCURVE",
"93 522 OFFCURVE",
"139 522 CURVE SMOOTH",
"185 522 OFFCURVE",
"224 483 OFFCURVE",
"224 436 CURVE SMOOTH"
);
}
);
width = 269;
}
);
leftKerningGroup = J;
unicode = 00A1;
},
{
glyphname = questiondown;
layers = (
{
hints = (
{
horizontal = 1;
place = "{-214, 14}";
type = Stem;
},
{
place = "{30, 158}";
type = Stem;
},
{
place = "{259, 10}";
type = Stem;
}
);
layerId = "E71AC35F-0C69-4082-8C40-135C79A9FCEF";
paths = (
{
nodes = (
"259 269 LINE",
"259 38 OFFCURVE",
"30 40 OFFCURVE",
"30 -97 CURVE SMOOTH",
"30 -192 OFFCURVE",
"151 -214 OFFCURVE",
"225 -214 CURVE SMOOTH",
"278 -214 OFFCURVE",
"330 -201 OFFCURVE",
"383 -200 CURVE",
"416 52 LINE",
"406 52 LINE",
"393 -35 OFFCURVE",
"361 -200 OFFCURVE",
"247 -200 CURVE SMOOTH",
"197 -200 OFFCURVE",
"188 -162 OFFCURVE",
"188 -120 CURVE SMOOTH",
"188 8 OFFCURVE",
"269 85 OFFCURVE",
"269 269 CURVE"
);
},
{
nodes = (
"348 391 OFFCURVE",
"309 352 OFFCURVE",
"263 352 CURVE SMOOTH",
"217 352 OFFCURVE",
"178 391 OFFCURVE",
"178 436 CURVE SMOOTH",
"178 482 OFFCURVE",
"217 522 OFFCURVE",
"263 522 CURVE SMOOTH",
"309 522 OFFCURVE",
"348 482 OFFCURVE",
"348 436 CURVE SMOOTH"
);
}
);
width = 434;
}
);
leftKerningGroup = J;
unicode = 00BF;
},
{
glyphname = degree;
layers = (
{
hints = (
{
horizontal = 1;
place = "{558, 19}";
type = Stem;
},
{
horizontal = 1;
place = "{766, 19}";
type = Stem;
},
{
place = "{34, 25}";
type = Stem;
},
{
place = "{246, 24}";
type = Stem;
}
);
layerId = "E71AC35F-0C69-4082-8C40-135C79A9FCEF";
paths = (
{
nodes = (
"59 723 OFFCURVE",
"101 766 OFFCURVE",
"152 766 CURVE SMOOTH",
"203 766 OFFCURVE",
"246 723 OFFCURVE",
"246 671 CURVE SMOOTH",
"246 621 OFFCURVE",
"203 577 OFFCURVE",
"152 577 CURVE SMOOTH",
"101 577 OFFCURVE",
"59 621 OFFCURVE",
"59 671 CURVE SMOOTH"
);
},
{
nodes = (
"34 608 OFFCURVE",
"88 558 OFFCURVE",
"152 558 CURVE SMOOTH",
"216 558 OFFCURVE",
"270 608 OFFCURVE",
"270 671 CURVE SMOOTH",
"270 737 OFFCURVE",
"216 785 OFFCURVE",
"152 785 CURVE SMOOTH",
"88 785 OFFCURVE",
"34 737 OFFCURVE",
"34 671 CURVE SMOOTH"
);
}
);
width = 304;
}
);
leftKerningGroup = J;
unicode = 00B0;
},
{
glyphname = ordfeminine;
layers = (
{
hints = (
{
horizontal = 1;
place = "{362, 46}";
type = Stem;
},
{
horizontal = 1;
place = "{754, 10}";
type = Stem;
},
{
place = "{32, 100}";
type = Stem;
},
{
place = "{256, 108}";
type = Stem;
}
);
layerId = "E71AC35F-0C69-4082-8C40-135C79A9FCEF";
paths = (
{
nodes = (
"145 764 OFFCURVE",
"76 723 OFFCURVE",
"50 662 CURVE",
"131 615 LINE",
"140 701 OFFCURVE",
"168 754 OFFCURVE",
"206 754 CURVE SMOOTH",
"237 754 OFFCURVE",
"257 719 OFFCURVE",
"257 662 CURVE SMOOTH",
"257 605 LINE",
"187 580 LINE SMOOTH",
"55 532 OFFCURVE",
"32 497 OFFCURVE",
"32 452 CURVE SMOOTH",
"32 398 OFFCURVE",
"72 362 OFFCURVE",
"133 362 CURVE SMOOTH",
"176 362 OFFCURVE",
"208 380 OFFCURVE",
"258 433 CURVE",
"265 390 OFFCURVE",
"294 362 OFFCURVE",
"332 362 CURVE SMOOTH",
"368 362 OFFCURVE",
"409 386 OFFCURVE",
"434 421 CURVE",
"428 426 LINE",
"417 413 OFFCURVE",
"406 407 OFFCURVE",
"394 407 CURVE SMOOTH",
"375 407 OFFCURVE",
"364 423 OFFCURVE",
"365 451 CURVE",
"365 632 LINE SMOOTH",
"365 711 OFFCURVE",
"307 764 OFFCURVE",
"221 764 CURVE SMOOTH"
);
},
{
nodes = (
"256 443 LINE",
"231 419 OFFCURVE",
"211 408 OFFCURVE",
"189 408 CURVE SMOOTH",
"156 408 OFFCURVE",
"132 439 OFFCURVE",
"132 481 CURVE SMOOTH",
"132 525 OFFCURVE",
"148 555 OFFCURVE",
"227 584 CURVE SMOOTH",
"257 595 LINE"
);
}
);
width = 418;
}
);
leftKerningGroup = J;
unicode = 00AA;
},
{
glyphname = ordmasculine;
layers = (
{
hints = (
{
horizontal = 1;
place = "{362, 10}";
type = Stem;
},
{
horizontal = 1;
place = "{755, 9}";
type = Stem;
},
{
place = "{28, 126}";
type = Stem;
},
{
place = "{315, 126}";
type = Stem;
}
);
layerId = "E71AC35F-0C69-4082-8C40-135C79A9FCEF";
paths = (
{
nodes = (
"28 442 OFFCURVE",
"111 362 OFFCURVE",
"235 362 CURVE SMOOTH",
"358 362 OFFCURVE",
"441 442 OFFCURVE",
"441 563 CURVE SMOOTH",
"441 684 OFFCURVE",
"358 764 OFFCURVE",
"235 764 CURVE SMOOTH",
"111 764 OFFCURVE",
"28 684 OFFCURVE",
"28 563 CURVE SMOOTH"
);
},
{
nodes = (
"154 675 OFFCURVE",
"186 755 OFFCURVE",
"235 755 CURVE SMOOTH",
"284 755 OFFCURVE",
"315 675 OFFCURVE",
"315 564 CURVE SMOOTH",
"315 453 OFFCURVE",
"284 372 OFFCURVE",
"234 372 CURVE SMOOTH",
"185 372 OFFCURVE",
"154 453 OFFCURVE",
"154 564 CURVE SMOOTH"
);
}
);
width = 470;
}
);
leftKerningGroup = J;
unicode = 00BA;
},
{
glyphname = onesuperior;
layers = (
{
hints = (
{
horizontal = 1;
place = "{351, 10}";
type = Stem;
},
{
horizontal = 1;
place = "{673, 10}";
type = Stem;
},
{
horizontal = 1;
place = "{764, -20}";
target = down;
type = TopGhost;
},
{
place = "{103, 90}";
type = Stem;
}
);
layerId = "E71AC35F-0C69-4082-8C40-135C79A9FCEF";
paths = (
{
nodes = (
"193 764 LINE",
"183 764 LINE",
"176 731 OFFCURVE",
"130 683 OFFCURVE",
"59 683 CURVE SMOOTH",
"46 683 LINE",
"46 673 LINE",
"98 670 OFFCURVE",
"103 650 OFFCURVE",
"103 604 CURVE SMOOTH",
"103 400 LINE SMOOTH",
"103 374 OFFCURVE",
"85 361 OFFCURVE",
"59 361 CURVE",
"59 351 LINE",
"237 351 LINE",
"237 361 LINE",
"211 361 OFFCURVE",
"193 374 OFFCURVE",
"193 400 CURVE SMOOTH"
);
}
);
width = 279;
}
);
leftKerningGroup = J;
unicode = 00B9;
},
{
glyphname = twosuperior;
layers = (
{
hints = (
{
horizontal = 1;
place = "{351, 72}";
type = Stem;
},
{
horizontal = 1;
place = "{757, 7}";
type = Stem;
},
{
place = "{64, 10}";
type = Stem;
},
{
place = "{220, 84}";
type = Stem;
}
);
layerId = "E71AC35F-0C69-4082-8C40-135C79A9FCEF";
paths = (
{
nodes = (
"46 351 LINE",
"284 351 LINE",
"304 472 LINE",
"295 472 LINE",
"288 424 OFFCURVE",
"275 422 OFFCURVE",
"229 423 CURVE",
"111 423 LINE",
"227 510 OFFCURVE",
"304 611 OFFCURVE",
"304 675 CURVE SMOOTH",
"304 728 OFFCURVE",
"249 764 OFFCURVE",
"174 764 CURVE SMOOTH",
"142 764 OFFCURVE",
"110 756 OFFCURVE",
"81 756 CURVE",
"64 644 LINE",
"74 644 LINE",
"81 688 OFFCURVE",
"112 757 OFFCURVE",
"166 757 CURVE SMOOTH",
"196 757 OFFCURVE",
"220 727 OFFCURVE",
"220 682 CURVE SMOOTH",
"220 616 OFFCURVE",
"150 489 OFFCURVE",
"46 361 CURVE"
);
}
);
width = 351;
}
);
leftKerningGroup = J;
unicode = 00B2;
},
{
glyphname = threesuperior;
layers = (
{
hints = (
{
horizontal = 1;
place = "{344, 12}";
type = Stem;
},
{
horizontal = 1;
place = "{580, 29}";
type = Stem;
},
{
horizontal = 1;
place = "{752, 12}";
type = Stem;
},
{
place = "{46, 9}";
type = Stem;
},
{
place = "{56, 9}";
type = Stem;
},
{
place = "{187, 81}";
type = Stem;
},
{
place = "{222, 78}";
type = Stem;
}
);
layerId = "E71AC35F-0C69-4082-8C40-135C79A9FCEF";
paths = (
{
nodes = (
"300 564 OFFCURVE",
"254 615 OFFCURVE",
"185 609 CURVE",
"236 628 OFFCURVE",
"268 663 OFFCURVE",
"268 697 CURVE SMOOTH",
"268 737 OFFCURVE",
"226 764 OFFCURVE",
"165 764 CURVE SMOOTH",
"130 764 OFFCURVE",
"109 756 OFFCURVE",
"73 756 CURVE",
"56 643 LINE",
"65 643 LINE",
"75 713 OFFCURVE",
"110 752 OFFCURVE",
"155 752 CURVE SMOOTH",
"177 752 OFFCURVE",
"187 742 OFFCURVE",
"187 707 CURVE SMOOTH",
"187 656 OFFCURVE",
"164 617 OFFCURVE",
"110 577 CURVE",
"110 567 LINE",
"174 601 OFFCURVE",
"222 567 OFFCURVE",
"222 479 CURVE SMOOTH",
"222 403 OFFCURVE",
"186 356 OFFCURVE",
"143 356 CURVE SMOOTH",
"100 356 OFFCURVE",
"64 399 OFFCURVE",
"55 472 CURVE",
"46 472 LINE",
"63 351 LINE",
"97 351 OFFCURVE",
"117 344 OFFCURVE",
"151 344 CURVE SMOOTH",
"237 344 OFFCURVE",
"300 399 OFFCURVE",
"300 483 CURVE SMOOTH"
);
}
);
width = 343;
}
);
leftKerningGroup = J;
unicode = 00B3;
},
{
glyphname = fraction;
layers = (
{
hints = (
{
horizontal = 1;
place = "{0, 21}";
target = up;
type = BottomGhost;
},
{
horizontal = 1;
place = "{750, -20}";
target = down;
type = TopGhost;
},
{
place = "{10, 540}";
type = Stem;
}
);
layerId = "E71AC35F-0C69-4082-8C40-135C79A9FCEF";
paths = (
{
nodes = (
"10 0 LINE",
"25 0 LINE",
"550 750 LINE",
"535 750 LINE"
);
}
);
width = 560;
}
);
leftKerningGroup = J;
unicode = 2044;
},
{
glyphname = onequarter;
layers = (
{
hints = (
{
horizontal = 1;
place = "{0, 160}";
type = Stem;
},
{
horizontal = 1;
place = "{92, 68}";
type = Stem;
},
{
horizontal = 1;
place = "{351, 10}";
type = Stem;
},
{
horizontal = 1;
place = "{673, 10}";
type = Stem;
},
{
horizontal = 1;
place = "{750, -20}";
target = down;
type = TopGhost;
},
{
horizontal = 1;
place = "{764, -20}";
target = down;
type = TopGhost;
},
{
place = "{113, 90}";
type = Stem;
},
{
place = "{475, 83}";
type = Stem;
}
);
layerId = "E71AC35F-0C69-4082-8C40-135C79A9FCEF";
paths = (
{
nodes = (
"203 764 LINE",
"194 764 LINE",
"186 731 OFFCURVE",
"140 683 OFFCURVE",
"69 683 CURVE SMOOTH",
"55 683 LINE",
"55 673 LINE",
"108 670 OFFCURVE",
"113 649 OFFCURVE",
"113 604 CURVE SMOOTH",
"113 400 LINE SMOOTH",
"113 374 OFFCURVE",
"95 361 OFFCURVE",
"69 361 CURVE",
"69 351 LINE",
"247 351 LINE",
"247 361 LINE",
"221 361 OFFCURVE",
"203 374 OFFCURVE",
"203 400 CURVE SMOOTH"
);
},
{
nodes = (
"104 0 LINE",
"628 750 LINE",
"613 750 LINE",
"89 0 LINE"
);
},
{
nodes = (
"475 303 LINE",
"475 160 LINE",
"371 160 LINE"
);
},
{
nodes = (
"552 424 LINE",
"315 97 LINE",
"315 92 LINE",
"319 92 LINE",
"320 91 LINE",
"321 92 LINE",
"475 92 LINE",
"475 47 LINE",
"474 22 OFFCURVE",
"456 6 OFFCURVE",
"431 6 CURVE",
"430 0 LINE",
"475 0 LINE",
"558 0 LINE",
"603 0 LINE",
"602 6 LINE",
"602 6 LINE",
"575 6 OFFCURVE",
"558 23 OFFCURVE",
"558 50 CURVE SMOOTH",
"558 92 LINE",
"621 92 LINE",
"621 160 LINE",
"558 160 LINE",
"558 424 LINE"
);
}
);
width = 697;
}
);
leftKerningGroup = J;
unicode = 00BC;
},
{
glyphname = onehalf;
layers = (
{
hints = (
{
horizontal = 1;
place = "{0, 84}";
type = Stem;
},
{
horizontal = 1;
place = "{351, 10}";
type = Stem;
},
{
horizontal = 1;
place = "{404, 8}";
type = Stem;
},
{
horizontal = 1;
place = "{673, 10}";
type = Stem;
},
{
horizontal = 1;
place = "{750, -20}";
target = down;
type = TopGhost;
},
{
horizontal = 1;
place = "{764, -20}";
target = down;
type = TopGhost;
},
{
place = "{113, 90}";
type = Stem;
},
{
place = "{588, 94}";
type = Stem;
}
);
layerId = "E71AC35F-0C69-4082-8C40-135C79A9FCEF";
paths = (
{
nodes = (
"203 400 LINE SMOOTH",
"203 375 OFFCURVE",
"219 361 OFFCURVE",
"247 361 CURVE",
"247 351 LINE",
"69 351 LINE",
"69 361 LINE",
"96 361 OFFCURVE",
"113 375 OFFCURVE",
"113 400 CURVE SMOOTH",
"113 604 LINE SMOOTH",
"113 657 OFFCURVE",
"102 671 OFFCURVE",
"56 673 CURVE",
"56 683 LINE",
"69 683 LINE SMOOTH",
"127 683 OFFCURVE",
"184 720 OFFCURVE",
"193 764 CURVE",
"203 764 LINE"
);
},
{
nodes = (
"613 750 LINE",
"628 750 LINE",
"104 0 LINE",
"89 0 LINE"
);
},
{
nodes = (
"665 0 LINE",
"687 143 LINE",
"679 143 LINE",
"672 91 OFFCURVE",
"664 84 OFFCURVE",
"605 84 CURVE SMOOTH",
"472 84 LINE",
"633 187 OFFCURVE",
"682 237 OFFCURVE",
"682 300 CURVE SMOOTH",
"682 366 OFFCURVE",
"628 412 OFFCURVE",
"548 412 CURVE SMOOTH",
"512 412 OFFCURVE",
"474 402 OFFCURVE",
"442 402 CURVE",
"422 270 LINE",
"430 270 LINE",
"441 341 OFFCURVE",
"490 404 OFFCURVE",
"535 404 CURVE SMOOTH",
"567 404 OFFCURVE",
"588 371 OFFCURVE",
"588 322 CURVE SMOOTH",
"588 229 OFFCURVE",
"513 156 OFFCURVE",
"397 6 CURVE",
"397 0 LINE"
);
}
);
width = 735;
}
);
leftKerningGroup = J;
unicode = 00BD;
},
{
glyphname = threequarters;
layers = (
{
hints = (
{
horizontal = 1;
place = "{0, 160}";
type = Stem;
},
{
horizontal = 1;
place = "{92, 68}";
type = Stem;
},
{
horizontal = 1;
place = "{344, 12}";
type = Stem;
},
{
horizontal = 1;
place = "{580, 29}";
type = Stem;
},
{
horizontal = 1;
place = "{750, -20}";
target = down;
type = TopGhost;
},
{
horizontal = 1;
place = "{752, 12}";
type = Stem;
},
{
place = "{65, 9}";
type = Stem;
},
{
place = "{75, 9}";
type = Stem;
},
{
place = "{206, 81}";
type = Stem;
},
{
place = "{241, 78}";
type = Stem;
},
{
place = "{475, 83}";
type = Stem;
}
);
layerId = "E71AC35F-0C69-4082-8C40-135C79A9FCEF";
paths = (
{
nodes = (
"124 0 LINE",
"648 750 LINE",
"633 750 LINE",
"109 0 LINE"
);
},
{
nodes = (
"475 303 LINE",
"475 160 LINE",
"371 160 LINE"
);
},
{
nodes = (
"552 424 LINE",
"315 97 LINE",
"315 92 LINE",
"319 92 LINE",
"320 91 LINE",
"321 92 LINE",
"475 92 LINE",
"475 47 LINE",
"474 22 OFFCURVE",
"456 6 OFFCURVE",
"431 6 CURVE",
"430 0 LINE",
"475 0 LINE",
"558 0 LINE",
"603 0 LINE",
"602 6 LINE",
"602 6 LINE",
"575 6 OFFCURVE",
"558 23 OFFCURVE",
"558 50 CURVE SMOOTH",
"558 92 LINE",
"621 92 LINE",
"621 160 LINE",
"558 160 LINE",
"558 424 LINE"
);
},
{
nodes = (
"319 564 OFFCURVE",
"273 615 OFFCURVE",
"204 609 CURVE",
"255 628 OFFCURVE",
"287 663 OFFCURVE",
"287 697 CURVE SMOOTH",
"287 737 OFFCURVE",
"245 764 OFFCURVE",
"184 764 CURVE SMOOTH",
"149 764 OFFCURVE",
"128 756 OFFCURVE",
"92 756 CURVE",
"75 643 LINE",
"84 643 LINE",
"94 713 OFFCURVE",
"129 752 OFFCURVE",
"174 752 CURVE SMOOTH",
"196 752 OFFCURVE",
"206 742 OFFCURVE",
"206 707 CURVE SMOOTH",
"206 656 OFFCURVE",
"183 617 OFFCURVE",
"129 577 CURVE",
"129 567 LINE",
"193 601 OFFCURVE",
"241 567 OFFCURVE",
"241 479 CURVE SMOOTH",
"241 403 OFFCURVE",
"205 356 OFFCURVE",
"162 356 CURVE SMOOTH",
"119 356 OFFCURVE",
"83 399 OFFCURVE",
"74 472 CURVE",
"65 472 LINE",
"82 351 LINE",
"116 351 OFFCURVE",
"136 344 OFFCURVE",
"170 344 CURVE SMOOTH",
"256 344 OFFCURVE",
"319 399 OFFCURVE",
"319 483 CURVE SMOOTH"
);
}
);
width = 717;
}
);
leftKerningGroup = J;
unicode = 00BE;
},
{
glyphname = perthousand;
layers = (
{
hints = (
{
horizontal = 1;
place = "{-14, 12}";
type = Stem;
},
{
horizontal = 1;
place = "{0, 21}";
target = up;
type = BottomGhost;
},
{
horizontal = 1;
place = "{323, 11}";
type = Stem;
},
{
horizontal = 1;
place = "{416, 12}";
type = Stem;
},
{
horizontal = 1;
place = "{750, -20}";
target = down;
type = TopGhost;
},
{
horizontal = 1;
place = "{752, 12}";
type = Stem;
},
{
place = "{42, 112}";
type = Stem;
},
{
place = "{311, 112}";
type = Stem;
},
{
place = "{418, 112}";
type = Stem;
},
{
place = "{687, 112}";
type = Stem;
},
{
place = "{849, 112}";
type = Stem;
},
{
place = "{1119, 112}";
type = Stem;
}
);
layerId = "E71AC35F-0C69-4082-8C40-135C79A9FCEF";
paths = (
{
nodes = (
"42 485 OFFCURVE",
"118 416 OFFCURVE",
"233 416 CURVE SMOOTH",
"348 416 OFFCURVE",
"423 485 OFFCURVE",
"423 590 CURVE SMOOTH",
"423 695 OFFCURVE",
"348 764 OFFCURVE",
"233 764 CURVE SMOOTH",
"118 764 OFFCURVE",
"42 695 OFFCURVE",
"42 590 CURVE SMOOTH"
);
},
{
nodes = (
"154 687 OFFCURVE",
"187 752 OFFCURVE",
"233 752 CURVE SMOOTH",
"279 752 OFFCURVE",
"311 687 OFFCURVE",
"311 590 CURVE SMOOTH",
"311 494 OFFCURVE",
"278 428 OFFCURVE",
"232 428 CURVE SMOOTH",
"187 428 OFFCURVE",
"154 494 OFFCURVE",
"154 590 CURVE SMOOTH"
);
},
{
nodes = (
"418 55 OFFCURVE",
"494 -14 OFFCURVE",
"609 -14 CURVE SMOOTH",
"724 -14 OFFCURVE",
"799 55 OFFCURVE",
"799 160 CURVE SMOOTH",
"799 265 OFFCURVE",
"724 334 OFFCURVE",
"609 334 CURVE SMOOTH",
"494 334 OFFCURVE",
"418 265 OFFCURVE",
"418 160 CURVE SMOOTH"
);
},
{
nodes = (
"530 257 OFFCURVE",
"563 323 OFFCURVE",
"609 323 CURVE SMOOTH",
"655 323 OFFCURVE",
"687 257 OFFCURVE",
"687 161 CURVE SMOOTH",
"687 64 OFFCURVE",
"654 -2 OFFCURVE",
"608 -2 CURVE SMOOTH",
"562 -2 OFFCURVE",
"530 64 OFFCURVE",
"530 161 CURVE SMOOTH"
);
},
{
nodes = (
"151 0 LINE",
"166 0 LINE",
"690 750 LINE",
"675 750 LINE"
);
},
{
nodes = (
"849 55 OFFCURVE",
"925 -14 OFFCURVE",
"1040 -14 CURVE SMOOTH",
"1155 -14 OFFCURVE",
"1231 55 OFFCURVE",
"1231 160 CURVE SMOOTH",
"1231 265 OFFCURVE",
"1155 334 OFFCURVE",
"1040 334 CURVE SMOOTH",
"925 334 OFFCURVE",
"849 265 OFFCURVE",
"849 160 CURVE SMOOTH"
);
},
{
nodes = (
"961 257 OFFCURVE",
"994 323 OFFCURVE",
"1040 323 CURVE SMOOTH",
"1086 323 OFFCURVE",
"1119 257 OFFCURVE",
"1119 161 CURVE SMOOTH",
"1119 64 OFFCURVE",
"1086 -2 OFFCURVE",
"1040 -2 CURVE SMOOTH",
"994 -2 OFFCURVE",
"961 64 OFFCURVE",
"961 161 CURVE SMOOTH"
);
}
);
width = 1269;
}
);
leftKerningGroup = J;
unicode = 2030;
},
{
glyphname = paragraph;
layers = (
{
hints = (
{
horizontal = 1;
place = "{740, 10}";
type = Stem;
},
{
place = "{227, 11}";
type = Stem;
},
{
place = "{312, 11}";
type = Stem;
}
);
layerId = "E71AC35F-0C69-4082-8C40-135C79A9FCEF";
paths = (
{
nodes = (
"323 750 LINE",
"192 750 LINE SMOOTH",
"90 750 OFFCURVE",
"30 695 OFFCURVE",
"30 602 CURVE SMOOTH",
"30 509 OFFCURVE",
"90 454 OFFCURVE",
"192 454 CURVE SMOOTH",
"227 454 LINE",
"227 -50 LINE",
"238 -50 LINE",
"238 740 LINE",
"312 740 LINE",
"312 -50 LINE",
"323 -50 LINE"
);
}
);
width = 354;
}
);
leftKerningGroup = J;
unicode = 00B6;
},
{
glyphname = section;
layers = (
{
hints = (
{
horizontal = 1;
place = "{-186, 15}";
type = Stem;
},
{
horizontal = 1;
place = "{749, 15}";
type = Stem;
},
{
place = "{43, 83}";
type = Stem;
},
{
place = "{43, 116}";
type = Stem;
},
{
place = "{333, 100}";
type = Stem;
},
{
place = "{355, 78}";
type = Stem;
}
);
layerId = "E71AC35F-0C69-4082-8C40-135C79A9FCEF";
paths = (
{
nodes = (
"59 -171 LINE",
"170 -171 OFFCURVE",
"156 -186 OFFCURVE",
"218 -186 CURVE SMOOTH",
"344 -186 OFFCURVE",
"433 -123 OFFCURVE",
"433 -34 CURVE SMOOTH",
"433 27 OFFCURVE",
"391 91 OFFCURVE",
"317 146 CURVE",
"385 171 OFFCURVE",
"433 241 OFFCURVE",
"433 318 CURVE SMOOTH",
"433 400 OFFCURVE",
"378 473 OFFCURVE",
"274 531 CURVE",
"196 573 OFFCURVE",
"159 618 OFFCURVE",
"159 668 CURVE SMOOTH",
"159 716 OFFCURVE",
"194 749 OFFCURVE",
"245 749 CURVE SMOOTH",
"320 749 OFFCURVE",
"381 678 OFFCURVE",
"396 572 CURVE",
"406 572 LINE",
"397 749 LINE",
"309 749 OFFCURVE",
"302 764 OFFCURVE",
"242 764 CURVE SMOOTH",
"125 764 OFFCURVE",
"43 705 OFFCURVE",
"43 621 CURVE SMOOTH",
"43 557 OFFCURVE",
"90 488 OFFCURVE",
"168 435 CURVE",
"94 411 OFFCURVE",
"43 344 OFFCURVE",
"43 271 CURVE SMOOTH",
"43 195 OFFCURVE",
"97 121 OFFCURVE",
"196 62 CURVE SMOOTH",
"280 12 OFFCURVE",
"333 -48 OFFCURVE",
"333 -94 CURVE SMOOTH",
"333 -138 OFFCURVE",
"287 -171 OFFCURVE",
"228 -171 CURVE SMOOTH",
"136 -171 OFFCURVE",
"62 -90 OFFCURVE",
"43 36 CURVE",
"33 36 LINE"
);
},
{
nodes = (
"293 163 OFFCURVE",
"279 172 OFFCURVE",
"264 181 CURVE SMOOTH",
"177 230 OFFCURVE",
"126 288 OFFCURVE",
"126 337 CURVE SMOOTH",
"126 371 OFFCURVE",
"150 407 OFFCURVE",
"183 425 CURVE",
"190 421 OFFCURVE",
"196 418 OFFCURVE",
"203 414 CURVE SMOOTH",
"294 364 OFFCURVE",
"355 291 OFFCURVE",
"355 235 CURVE SMOOTH",
"355 203 OFFCURVE",
"336 171 OFFCURVE",
"307 153 CURVE"
);
}
);
width = 513;
}
);
leftKerningGroup = J;
unicode = 00A7;
},
{
glyphname = dagger;
layers = (
{
hints = (
{
horizontal = 1;
place = "{656, 8}";
type = Stem;
},
{
horizontal = 1;
place = "{664, 150}";
type = Stem;
},
{
place = "{180, 10}";
type = Stem;
}
);
layerId = "E71AC35F-0C69-4082-8C40-135C79A9FCEF";
paths = (
{
nodes = (
"164 814 OFFCURVE",
"149 800 OFFCURVE",
"149 780 CURVE SMOOTH",
"149 752 OFFCURVE",
"180 729 OFFCURVE",
"180 664 CURVE",
"190 664 LINE",
"190 729 OFFCURVE",
"221 752 OFFCURVE",
"221 780 CURVE SMOOTH",
"221 799 OFFCURVE",
"206 814 OFFCURVE",
"185 814 CURVE SMOOTH"
);
},
{
nodes = (
"180 -100 LINE",
"190 -100 LINE",
"190 656 LINE",
"254 656 OFFCURVE",
"278 625 OFFCURVE",
"306 625 CURVE SMOOTH",
"322 625 OFFCURVE",
"340 635 OFFCURVE",
"340 660 CURVE SMOOTH",
"340 685 OFFCURVE",
"322 695 OFFCURVE",
"305 695 CURVE SMOOTH",
"278 695 OFFCURVE",
"254 664 OFFCURVE",
"190 664 CURVE SMOOTH",
"180 664 LINE SMOOTH",
"116 664 OFFCURVE",
"92 695 OFFCURVE",
"65 695 CURVE SMOOTH",
"48 695 OFFCURVE",
"30 685 OFFCURVE",
"30 660 CURVE SMOOTH",
"30 635 OFFCURVE",
"48 625 OFFCURVE",
"64 625 CURVE SMOOTH",
"92 625 OFFCURVE",
"116 656 OFFCURVE",
"180 656 CURVE"
);
}
);
width = 370;
}
);
leftKerningGroup = J;
unicode = 2020;
},
{
glyphname = daggerdbl;
layers = (
{
hints = (
{
horizontal = 1;
place = "{-114, 150}";
type = Stem;
},
{
horizontal = 1;
place = "{36, 8}";
type = Stem;
},
{
horizontal = 1;
place = "{345, 10}";
type = Stem;
},
{
horizontal = 1;
place = "{656, 8}";
type = Stem;
},
{
horizontal = 1;
place = "{664, 150}";
type = Stem;
},
{
place = "{181, 10}";
type = Stem;
}
);
layerId = "E71AC35F-0C69-4082-8C40-135C79A9FCEF";
paths = (
{
nodes = (
"165 814 OFFCURVE",
"150 800 OFFCURVE",
"150 780 CURVE SMOOTH",
"150 752 OFFCURVE",
"181 729 OFFCURVE",
"181 664 CURVE",
"191 664 LINE",
"191 729 OFFCURVE",
"222 752 OFFCURVE",
"222 780 CURVE SMOOTH",
"222 799 OFFCURVE",
"207 814 OFFCURVE",
"186 814 CURVE SMOOTH"
);
},
{
nodes = (
"31 635 OFFCURVE",
"48 625 OFFCURVE",
"65 625 CURVE SMOOTH",
"93 625 OFFCURVE",
"116 656 OFFCURVE",
"181 656 CURVE",
"181 475 LINE",
"181 425 LINE SMOOTH",
"181 383 OFFCURVE",
"153 355 OFFCURVE",
"111 355 CURVE SMOOTH",
"106 355 LINE",
"106 345 LINE",
"111 345 LINE SMOOTH",
"153 345 OFFCURVE",
"181 317 OFFCURVE",
"181 275 CURVE SMOOTH",
"181 245 LINE",
"181 44 LINE",
"116 44 OFFCURVE",
"93 75 OFFCURVE",
"65 75 CURVE SMOOTH",
"48 75 OFFCURVE",
"31 64 OFFCURVE",
"31 40 CURVE SMOOTH",
"31 15 OFFCURVE",
"49 5 OFFCURVE",
"65 5 CURVE SMOOTH",
"93 5 OFFCURVE",
"116 36 OFFCURVE",
"181 36 CURVE SMOOTH",
"191 36 LINE SMOOTH",
"255 36 OFFCURVE",
"279 5 OFFCURVE",
"306 5 CURVE SMOOTH",
"323 5 OFFCURVE",
"341 15 OFFCURVE",
"341 40 CURVE SMOOTH",
"341 64 OFFCURVE",
"323 75 OFFCURVE",
"306 75 CURVE SMOOTH",
"279 75 OFFCURVE",
"255 44 OFFCURVE",
"191 44 CURVE",
"191 225 LINE",
"191 245 LINE",
"191 275 LINE SMOOTH",
"191 317 OFFCURVE",
"219 345 OFFCURVE",
"261 345 CURVE SMOOTH",
"266 345 LINE",
"266 355 LINE",
"261 355 LINE SMOOTH",
"219 355 OFFCURVE",
"192 382 OFFCURVE",
"191 423 CURVE",
"191 656 LINE",
"255 656 OFFCURVE",
"279 625 OFFCURVE",
"306 625 CURVE SMOOTH",
"323 625 OFFCURVE",
"341 635 OFFCURVE",
"341 660 CURVE SMOOTH",
"341 685 OFFCURVE",
"323 695 OFFCURVE",
"306 695 CURVE SMOOTH",
"279 695 OFFCURVE",
"255 664 OFFCURVE",
"191 664 CURVE SMOOTH",
"181 664 LINE SMOOTH",
"116 664 OFFCURVE",
"93 695 OFFCURVE",
"65 695 CURVE SMOOTH",
"49 695 OFFCURVE",
"31 685 OFFCURVE",
"31 660 CURVE SMOOTH"
);
},
{
nodes = (
"207 -114 OFFCURVE",
"222 -100 OFFCURVE",
"222 -80 CURVE SMOOTH",
"222 -53 OFFCURVE",
"191 -29 OFFCURVE",
"191 36 CURVE",
"181 36 LINE",
"181 -29 OFFCURVE",
"150 -53 OFFCURVE",
"150 -80 CURVE SMOOTH",
"150 -101 OFFCURVE",
"165 -114 OFFCURVE",
"186 -114 CURVE SMOOTH"
);
}
);
width = 371;
}
);
leftKerningGroup = J;
unicode = 2021;
},
{
glyphname = asciitilde;
layers = (
{
hints = (
{
horizontal = 1;
place = "{273, 66}";
type = Stem;
},
{
horizontal = 1;
place = "{341, 66}";
type = Stem;
},
{
place = "{51, 410}";
type = Stem;
}
);
layerId = "E71AC35F-0C69-4082-8C40-135C79A9FCEF";
paths = (
{
nodes = (
"451 399 LINE",
"434 364 OFFCURVE",
"405 339 OFFCURVE",
"376 339 CURVE SMOOTH",
"310 339 OFFCURVE",
"251 407 OFFCURVE",
"178 407 CURVE SMOOTH",
"129 407 OFFCURVE",
"84 348 OFFCURVE",
"51 282 CURVE",
"62 282 LINE",
"76 313 OFFCURVE",
"117 341 OFFCURVE",
"147 341 CURVE SMOOTH",
"212 341 OFFCURVE",
"271 273 OFFCURVE",
"345 273 CURVE SMOOTH",
"400 273 OFFCURVE",
"439 333 OFFCURVE",
"461 399 CURVE"
);
}
);
width = 512;
}
);
leftKerningGroup = J;
unicode = 007E;
},
{
glyphname = guilsinglleft;
layers = (
{
hints = (
{
horizontal = 1;
place = "{96, 316}";
type = Stem;
},
{
place = "{31, 151}";
type = Stem;
}
);
layerId = "E71AC35F-0C69-4082-8C40-135C79A9FCEF";
paths = (
{
nodes = (
"34 261 LINE SMOOTH",
"30 257 OFFCURVE",
"30 251 OFFCURVE",
"34 247 CURVE SMOOTH",
"175 96 LINE",
"182 103 LINE",
"103 254 LINE",
"182 405 LINE",
"175 412 LINE"
);
}
);
width = 213;
}
);
leftKerningGroup = J;
unicode = 2039;
},
{
glyphname = guilsinglright;
layers = (
{
hints = (
{
horizontal = 1;
place = "{96, 316}";
type = Stem;
},
{
place = "{31, 152}";
type = Stem;
}
);
layerId = "E71AC35F-0C69-4082-8C40-135C79A9FCEF";
paths = (
{
nodes = (
"180 247 LINE SMOOTH",
"184 251 OFFCURVE",
"184 257 OFFCURVE",
"180 261 CURVE SMOOTH",
"38 412 LINE",
"31 405 LINE",
"110 254 LINE",
"31 103 LINE",
"38 96 LINE"
);
}
);
width = 213;
}
);
leftKerningGroup = J;
unicode = 203A;
},
{
glyphname = guillemotleft;
layers = (
{
hints = (
{
horizontal = 1;
place = "{96, 316}";
type = Stem;
},
{
place = "{30, 289}";
type = Stem;
}
);
layerId = "E71AC35F-0C69-4082-8C40-135C79A9FCEF";
paths = (
{
nodes = (
"170 261 LINE SMOOTH",
"166 257 OFFCURVE",
"166 251 OFFCURVE",
"170 247 CURVE SMOOTH",
"312 96 LINE",
"319 103 LINE",
"240 254 LINE",
"319 405 LINE",
"312 412 LINE"
);
},
{
nodes = (
"33 261 LINE SMOOTH",
"29 257 OFFCURVE",
"29 251 OFFCURVE",
"33 247 CURVE SMOOTH",
"175 96 LINE",
"182 103 LINE",
"103 254 LINE",
"182 405 LINE",
"175 412 LINE"
);
}
);
width = 349;
}
);
leftKerningGroup = J;
unicode = 00AB;
},
{
glyphname = guillemotright;
layers = (
{
hints = (
{
horizontal = 1;
place = "{96, 316}";
type = Stem;
},
{
place = "{31, 289}";
type = Stem;
}
);
layerId = "E71AC35F-0C69-4082-8C40-135C79A9FCEF";
paths = (
{
nodes = (
"317 247 LINE SMOOTH",
"321 251 OFFCURVE",
"321 257 OFFCURVE",
"317 261 CURVE SMOOTH",
"175 412 LINE",
"168 405 LINE",
"247 254 LINE",
"168 103 LINE",
"175 96 LINE"
);
},
{
nodes = (
"179 247 LINE SMOOTH",
"183 251 OFFCURVE",
"183 257 OFFCURVE",
"179 261 CURVE SMOOTH",
"38 412 LINE",
"31 405 LINE",
"110 254 LINE",
"31 103 LINE",
"38 96 LINE"
);
}
);
width = 350;
}
);
leftKerningGroup = J;
unicode = 00BB;
},
{
glyphname = breve;
layers = (
{
hints = (
{
horizontal = 1;
place = "{618, 60}";
type = Stem;
},
{
horizontal = 1;
place = "{764, -20}";
target = down;
type = TopGhost;
},
{
place = "{31, 10}";
type = Stem;
},
{
place = "{267, 10}";
type = Stem;
}
);
layerId = "E71AC35F-0C69-4082-8C40-135C79A9FCEF";
paths = (
{
nodes = (
"236 618 OFFCURVE",
"276 677 OFFCURVE",
"277 764 CURVE",
"267 764 LINE",
"264 715 OFFCURVE",
"215 678 OFFCURVE",
"154 678 CURVE SMOOTH",
"93 678 OFFCURVE",
"44 715 OFFCURVE",
"41 764 CURVE",
"31 764 LINE",
"32 677 OFFCURVE",
"71 618 OFFCURVE",
"154 618 CURVE SMOOTH"
);
}
);
width = 308;
}
);
leftKerningGroup = J;
unicode = 02D8;
},
{
glyphname = dotaccent;
layers = (
{
hints = (
{
horizontal = 1;
place = "{609, 140}";
type = Stem;
},
{
place = "{32, 145}";
type = Stem;
}
);
layerId = "E71AC35F-0C69-4082-8C40-135C79A9FCEF";
paths = (
{
nodes = (
"32 641 OFFCURVE",
"65 609 OFFCURVE",
"104 609 CURVE SMOOTH",
"143 609 OFFCURVE",
"177 641 OFFCURVE",
"177 679 CURVE SMOOTH",
"177 718 OFFCURVE",
"143 749 OFFCURVE",
"104 749 CURVE SMOOTH",
"65 749 OFFCURVE",
"32 718 OFFCURVE",
"32 679 CURVE SMOOTH"
);
}
);
width = 208;
}
);
leftKerningGroup = J;
unicode = 02D9;
},
{
glyphname = ring;
layers = (
{
hints = (
{
horizontal = 1;
place = "{614, 19}";
type = Stem;
},
{
horizontal = 1;
place = "{745, 19}";
type = Stem;
},
{
place = "{32, 22}";
type = Stem;
},
{
place = "{165, 22}";
type = Stem;
}
);
layerId = "E71AC35F-0C69-4082-8C40-135C79A9FCEF";
paths = (
{
nodes = (
"32 648 OFFCURVE",
"67 614 OFFCURVE",
"109 614 CURVE SMOOTH",
"151 614 OFFCURVE",
"187 648 OFFCURVE",
"187 689 CURVE SMOOTH",
"187 730 OFFCURVE",
"151 764 OFFCURVE",
"109 764 CURVE SMOOTH",
"67 764 OFFCURVE",
"32 730 OFFCURVE",
"32 689 CURVE SMOOTH"
);
},
{
nodes = (
"54 719 OFFCURVE",
"79 745 OFFCURVE",
"109 745 CURVE SMOOTH",
"140 745 OFFCURVE",
"165 719 OFFCURVE",
"165 689 CURVE SMOOTH",
"165 659 OFFCURVE",
"140 633 OFFCURVE",
"109 633 CURVE SMOOTH",
"79 633 OFFCURVE",
"54 659 OFFCURVE",
"54 689 CURVE SMOOTH"
);
}
);
width = 218;
}
);
leftKerningGroup = J;
unicode = 02DA;
},
{
glyphname = hungarumlaut;
layers = (
{
hints = (
{
horizontal = 1;
place = "{581, 203}";
type = Stem;
},
{
place = "{31, 373}";
type = Stem;
}
);
layerId = "E71AC35F-0C69-4082-8C40-135C79A9FCEF";
paths = (
{
nodes = (
"238 721 LINE",
"238 726 LINE",
"173 784 LINE",
"168 784 LINE",
"31 591 LINE",
"38 581 LINE"
);
},
{
nodes = (
"404 721 LINE",
"404 726 LINE",
"340 784 LINE",
"335 784 LINE",
"197 591 LINE",
"204 581 LINE"
);
}
);
width = 435;
}
);
leftKerningGroup = J;
unicode = 02DD;
},
{
glyphname = caron;
layers = (
{
hints = (
{
horizontal = 1;
place = "{581, 70}";
type = Stem;
},
{
place = "{22, 306}";
type = Stem;
}
);
layerId = "E71AC35F-0C69-4082-8C40-135C79A9FCEF";
paths = (
{
nodes = (
"200 581 LINE",
"328 777 LINE",
"321 784 LINE",
"175 651 LINE",
"29 784 LINE",
"22 777 LINE",
"149 581 LINE"
);
}
);
width = 349;
}
);
leftKerningGroup = J;
unicode = 02C7;
},
{
glyphname = grave;
layers = (
{
hints = (
{
horizontal = 1;
place = "{581, 203}";
type = Stem;
},
{
place = "{31, 207}";
type = Stem;
}
);
layerId = "E71AC35F-0C69-4082-8C40-135C79A9FCEF";
paths = (
{
nodes = (
"31 721 LINE",
"231 581 LINE",
"238 591 LINE",
"101 784 LINE",
"96 784 LINE",
"31 726 LINE"
);
}
);
width = 269;
}
);
leftKerningGroup = J;
unicode = 0060;
},
{
glyphname = circumflex;
layers = (
{
hints = (
{
horizontal = 1;
place = "{714, 70}";
type = Stem;
},
{
place = "{22, 306}";
type = Stem;
}
);
layerId = "E71AC35F-0C69-4082-8C40-135C79A9FCEF";
paths = (
{
nodes = (
"200 784 LINE",
"149 784 LINE",
"22 588 LINE",
"29 581 LINE",
"175 714 LINE",
"321 581 LINE",
"328 588 LINE"
);
}
);
width = 349;
}
);
leftKerningGroup = J;
unicode = 02C6;
},
{
glyphname = dieresis;
layers = (
{
hints = (
{
horizontal = 1;
place = "{604, 150}";
type = Stem;
},
{
place = "{32, 150}";
type = Stem;
},
{
place = "{230, 150}";
type = Stem;
}
);
layerId = "E71AC35F-0C69-4082-8C40-135C79A9FCEF";
paths = (
{
nodes = (
"32 638 OFFCURVE",
"66 604 OFFCURVE",
"107 604 CURVE SMOOTH",
"147 604 OFFCURVE",
"182 638 OFFCURVE",
"182 679 CURVE SMOOTH",
"182 720 OFFCURVE",
"147 754 OFFCURVE",
"107 754 CURVE SMOOTH",
"66 754 OFFCURVE",
"32 720 OFFCURVE",
"32 679 CURVE SMOOTH"
);
},
{
nodes = (
"230 638 OFFCURVE",
"264 604 OFFCURVE",
"305 604 CURVE SMOOTH",
"345 604 OFFCURVE",
"380 638 OFFCURVE",
"380 679 CURVE SMOOTH",
"380 720 OFFCURVE",
"345 754 OFFCURVE",
"305 754 CURVE SMOOTH",
"264 754 OFFCURVE",
"230 720 OFFCURVE",
"230 679 CURVE SMOOTH"
);
}
);
width = 411;
}
);
leftKerningGroup = J;
unicode = 00A8;
},
{
glyphname = acute;
layers = (
{
hints = (
{
horizontal = 1;
place = "{581, 203}";
type = Stem;
},
{
place = "{31, 207}";
type = Stem;
}
);
layerId = "E71AC35F-0C69-4082-8C40-135C79A9FCEF";
paths = (
{
nodes = (
"238 721 LINE",
"238 726 LINE",
"173 784 LINE",
"168 784 LINE",
"31 591 LINE",
"38 581 LINE"
);
}
);
width = 269;
}
);
leftKerningGroup = J;
unicode = 00B4;
},
{
glyphname = cedilla;
layers = (
{
hints = (
{
horizontal = 1;
place = "{-225, 17}";
type = Stem;
},
{
horizontal = 1;
place = "{-218, 21}";
target = up;
type = BottomGhost;
},
{
horizontal = 1;
place = "{-63, 7}";
type = Stem;
},
{
place = "{92, 14}";
type = Stem;
},
{
place = "{149, 80}";
type = Stem;
}
);
layerId = "E71AC35F-0C69-4082-8C40-135C79A9FCEF";
paths = (
{
nodes = (
"115 0 LINE",
"92 -57 LINE",
"92 -63 LINE",
"124 -69 OFFCURVE",
"149 -106 OFFCURVE",
"149 -150 CURVE SMOOTH",
"149 -186 OFFCURVE",
"132 -208 OFFCURVE",
"106 -208 CURVE SMOOTH",
"75 -208 OFFCURVE",
"51 -177 OFFCURVE",
"38 -119 CURVE",
"27 -119 LINE",
"46 -218 LINE",
"81 -218 OFFCURVE",
"88 -225 OFFCURVE",
"120 -225 CURVE SMOOTH",
"186 -225 OFFCURVE",
"229 -193 OFFCURVE",
"229 -145 CURVE SMOOTH",
"229 -92 OFFCURVE",
"180 -57 OFFCURVE",
"106 -56 CURVE",
"129 0 LINE"
);
}
);
width = 260;
}
);
leftKerningGroup = J;
unicode = 00B8;
},
{
glyphname = fi;
layers = (
{
hints = (
{
horizontal = 1;
place = "{0, 10}";
type = Stem;
},
{
horizontal = 1;
place = "{490, 18}";
type = Stem;
},
{
horizontal = 1;
place = "{546, -20}";
target = down;
type = TopGhost;
},
{
horizontal = 1;
place = "{767, 13}";
type = Stem;
},
{
place = "{81, 144}";
type = Stem;
},
{
place = "{407, 144}";
type = Stem;
}
);
layerId = "E71AC35F-0C69-4082-8C40-135C79A9FCEF";
paths = (
{
nodes = (
"631 10 LINE",
"583 10 OFFCURVE",
"551 42 OFFCURVE",
"551 90 CURVE SMOOTH",
"551 546 LINE",
"541 546 LINE",
"525 520 OFFCURVE",
"491 508 OFFCURVE",
"428 508 CURVE SMOOTH",
"225 508 LINE",
"225 584 LINE SMOOTH",
"225 695 OFFCURVE",
"260 767 OFFCURVE",
"314 767 CURVE SMOOTH",
"366 767 OFFCURVE",
"401 703 OFFCURVE",
"402 607 CURVE",
"522 675 LINE",
"497 738 OFFCURVE",
"415 780 OFFCURVE",
"318 780 CURVE SMOOTH",
"176 780 OFFCURVE",
"81 680 OFFCURVE",
"81 531 CURVE SMOOTH",
"81 508 LINE",
"6 508 LINE",
"-4 490 LINE",
"81 490 LINE",
"81 90 LINE SMOOTH",
"81 42 OFFCURVE",
"48 10 OFFCURVE",
"0 10 CURVE",
"0 0 LINE",
"632 0 LINE",
"632 10 LINE"
);
},
{
nodes = (
"225 490 LINE",
"346 490 LINE SMOOTH",
"390 490 OFFCURVE",
"407 462 OFFCURVE",
"407 411 CURVE SMOOTH",
"407 90 LINE SMOOTH",
"407 42 OFFCURVE",
"375 10 OFFCURVE",
"326 10 CURVE SMOOTH",
"306 10 LINE SMOOTH",
"258 10 OFFCURVE",
"225 43 OFFCURVE",
"225 90 CURVE SMOOTH"
);
}
);
width = 616;
}
);
leftKerningGroup = f;
rightKerningGroup = i;
unicode = FB01;
},
{
glyphname = fl;
layers = (
{
hints = (
{
horizontal = 1;
place = "{0, 10}";
type = Stem;
},
{
horizontal = 1;
place = "{490, 18}";
type = Stem;
},
{
horizontal = 1;
place = "{751, -20}";
target = down;
type = TopGhost;
},
{
horizontal = 1;
place = "{767, 13}";
type = Stem;
},
{
place = "{81, 144}";
type = Stem;
},
{
place = "{407, 144}";
type = Stem;
}
);
layerId = "E71AC35F-0C69-4082-8C40-135C79A9FCEF";
paths = (
{
nodes = (
"632 0 LINE",
"632 10 LINE",
"631 10 LINE",
"583 10 OFFCURVE",
"551 42 OFFCURVE",
"551 90 CURVE SMOOTH",
"551 788 LINE",
"541 788 LINE",
"527 765 OFFCURVE",
"499 753 OFFCURVE",
"451 751 CURVE",
"415 769 OFFCURVE",
"369 780 OFFCURVE",
"320 780 CURVE SMOOTH",
"178 780 OFFCURVE",
"81 680 OFFCURVE",
"81 531 CURVE SMOOTH",
"81 508 LINE",
"6 508 LINE",
"-4 490 LINE",
"81 490 LINE",
"81 90 LINE SMOOTH",
"81 42 OFFCURVE",
"48 10 OFFCURVE",
"0 10 CURVE",
"0 0 LINE"
);
},
{
nodes = (
"358 508 LINE",
"225 508 LINE",
"225 584 LINE SMOOTH",
"225 695 OFFCURVE",
"262 767 OFFCURVE",
"316 767 CURVE SMOOTH",
"366 767 OFFCURVE",
"407 706 OFFCURVE",
"407 614 CURVE SMOOTH",
"407 90 LINE SMOOTH",
"407 42 OFFCURVE",
"375 10 OFFCURVE",
"326 10 CURVE SMOOTH",
"306 10 LINE SMOOTH",
"258 10 OFFCURVE",
"225 42 OFFCURVE",
"225 90 CURVE SMOOTH",
"225 490 LINE",
"348 490 LINE"
);
}
);
width = 616;
}
);
leftKerningGroup = f;
rightKerningGroup = d;
unicode = FB02;
},
{
glyphname = Thorn;
layers = (
{
hints = (
{
horizontal = 1;
place = "{0, 10}";
type = Stem;
},
{
horizontal = 1;
place = "{147, 10}";
type = Stem;
},
{
horizontal = 1;
place = "{592, 11}";
type = Stem;
},
{
horizontal = 1;
place = "{740, 10}";
type = Stem;
},
{
place = "{81, 144}";
type = Stem;
},
{
place = "{407, 160}";
type = Stem;
}
);
layerId = "E71AC35F-0C69-4082-8C40-135C79A9FCEF";
paths = (
{
nodes = (
"225 147 LINE",
"295 147 LINE SMOOTH",
"459 147 OFFCURVE",
"567 238 OFFCURVE",
"567 375 CURVE SMOOTH",
"567 512 OFFCURVE",
"459 603 OFFCURVE",
"295 603 CURVE SMOOTH",
"225 603 LINE",
"225 660 LINE SMOOTH",
"225 708 OFFCURVE",
"257 740 OFFCURVE",
"305 740 CURVE",
"306 740 LINE",
"306 750 LINE",
"0 750 LINE",
"0 740 LINE",
"1 740 LINE",
"49 740 OFFCURVE",
"81 708 OFFCURVE",
"81 660 CURVE SMOOTH",
"81 90 LINE SMOOTH",
"81 42 OFFCURVE",
"49 10 OFFCURVE",
"1 10 CURVE",
"0 10 LINE",
"0 0 LINE",
"306 0 LINE",
"306 10 LINE",
"305 10 LINE",
"257 10 OFFCURVE",
"225 42 OFFCURVE",
"225 90 CURVE SMOOTH"
);
},
{
nodes = (
"225 157 LINE",
"225 592 LINE",
"265 592 LINE SMOOTH",
"350 592 OFFCURVE",
"407 505 OFFCURVE",
"407 375 CURVE SMOOTH",
"407 246 OFFCURVE",
"350 159 OFFCURVE",
"264 158 CURVE SMOOTH"
);
}
);
width = 591;
}
);
leftKerningGroup = B;
unicode = 00DE;
},
{
glyphname = thorn;
layers = (
{
hints = (
{
horizontal = 1;
place = "{-210, 10}";
type = Stem;
},
{
horizontal = 1;
place = "{-14, 17}";
type = Stem;
},
{
horizontal = 1;
place = "{483, 40}";
type = Stem;
},
{
horizontal = 1;
place = "{740, 10}";
type = Stem;
},
{
place = "{88, 144}";
type = Stem;
},
{
place = "{434, 156}";
type = Stem;
}
);
layerId = "E71AC35F-0C69-4082-8C40-135C79A9FCEF";
paths = (
{
nodes = (
"590 414 OFFCURVE",
"510 523 OFFCURVE",
"399 523 CURVE SMOOTH",
"330 523 OFFCURVE",
"264 481 OFFCURVE",
"232 422 CURVE",
"232 788 LINE",
"219 788 LINE",
"206 767 OFFCURVE",
"182 750 OFFCURVE",
"106 750 CURVE SMOOTH",
"7 750 LINE",
"7 740 LINE",
"65 740 OFFCURVE",
"87 718 OFFCURVE",
"88 660 CURVE",
"88 -120 LINE SMOOTH",
"88 -168 OFFCURVE",
"56 -200 OFFCURVE",
"8 -200 CURVE",
"7 -200 LINE",
"7 -210 LINE",
"313 -210 LINE",
"313 -200 LINE",
"312 -200 LINE",
"264 -200 OFFCURVE",
"232 -168 OFFCURVE",
"232 -120 CURVE SMOOTH",
"232 40 LINE",
"260 1 OFFCURVE",
"292 -14 OFFCURVE",
"346 -14 CURVE SMOOTH",
"494 -14 OFFCURVE",
"590 94 OFFCURVE",
"590 262 CURVE SMOOTH"
);
},
{
nodes = (
"232 390 LINE",
"250 441 OFFCURVE",
"300 483 OFFCURVE",
"346 483 CURVE SMOOTH",
"405 483 OFFCURVE",
"434 411 OFFCURVE",
"434 264 CURVE SMOOTH",
"434 95 OFFCURVE",
"396 3 OFFCURVE",
"325 3 CURVE SMOOTH",
"268 3 OFFCURVE",
"232 62 OFFCURVE",
"232 157 CURVE SMOOTH"
);
}
);
width = 623;
}
);
leftKerningGroup = B;
rightKerningGroup = b;
unicode = 00FE;
},
{
glyphname = germandbls;
layers = (
{
hints = (
{
horizontal = 1;
place = "{-14, 14}";
type = Stem;
},
{
horizontal = 1;
place = "{0, 10}";
type = Stem;
},
{
horizontal = 1;
place = "{498, 10}";
type = Stem;
},
{
horizontal = 1;
place = "{750, 14}";
type = Stem;
},
{
place = "{89, 155}";
type = Stem;
},
{
place = "{331, 27}";
type = Stem;
},
{
place = "{444, 121}";
type = Stem;
},
{
place = "{534, 157}";
type = Stem;
}
);
layerId = "E71AC35F-0C69-4082-8C40-135C79A9FCEF";
paths = (
{
nodes = (
"89 90 LINE SMOOTH",
"89 42 OFFCURVE",
"57 10 OFFCURVE",
"9 10 CURVE",
"8 10 LINE",
"7 0 LINE",
"89 0 LINE",
"244 0 LINE",
"244 559 LINE SMOOTH",
"244 674 OFFCURVE",
"284 750 OFFCURVE",
"345 750 CURVE SMOOTH",
"404 750 OFFCURVE",
"444 676 OFFCURVE",
"444 564 CURVE",
"367 537 OFFCURVE",
"331 498 OFFCURVE",
"331 441 CURVE SMOOTH",
"331 303 OFFCURVE",
"534 267 OFFCURVE",
"534 107 CURVE SMOOTH",
"534 42 OFFCURVE",
"501 0 OFFCURVE",
"450 0 CURVE SMOOTH",
"371 0 OFFCURVE",
"339 42 OFFCURVE",
"319 202 CURVE",
"309 202 LINE",
"332 0 LINE",
"402 0 OFFCURVE",
"414 -14 OFFCURVE",
"482 -14 CURVE SMOOTH",
"616 -14 OFFCURVE",
"691 43 OFFCURVE",
"691 134 CURVE SMOOTH",
"691 316 OFFCURVE",
"358 342 OFFCURVE",
"358 461 CURVE SMOOTH",
"358 522 OFFCURVE",
"442 564 OFFCURVE",
"565 564 CURVE",
"565 683 OFFCURVE",
"471 764 OFFCURVE",
"333 764 CURVE SMOOTH",
"187 764 OFFCURVE",
"91 673 OFFCURVE",
"91 534 CURVE",
"90 508 LINE",
"7 508 LINE",
"8 498 LINE",
"9 498 LINE",
"57 498 OFFCURVE",
"89 466 OFFCURVE",
"89 418 CURVE SMOOTH"
);
}
);
width = 707;
}
);
leftKerningGroup = J;
unicode = 00DF;
},
{
glyphname = eth;
layers = (
{
hints = (
{
horizontal = 1;
place = "{-14, 12}";
type = Stem;
},
{
horizontal = 1;
place = "{489, 11}";
type = Stem;
},
{
place = "{33, 160}";
type = Stem;
},
{
place = "{418, 155}";
type = Stem;
}
);
layerId = "E71AC35F-0C69-4082-8C40-135C79A9FCEF";
paths = (
{
nodes = (
"33 88 OFFCURVE",
"141 -14 OFFCURVE",
"304 -14 CURVE SMOOTH",
"470 -14 OFFCURVE",
"573 91 OFFCURVE",
"573 260 CURVE SMOOTH",
"573 398 OFFCURVE",
"509 551 OFFCURVE",
"411 646 CURVE",
"516 681 LINE",
"513 690 LINE",
"404 653 LINE",
"342 710 OFFCURVE",
"240 768 OFFCURVE",
"150 796 CURVE",
"146 787 LINE",
"211 755 OFFCURVE",
"287 688 OFFCURVE",
"327 627 CURVE",
"176 576 LINE",
"179 567 LINE",
"332 619 LINE",
"361 573 OFFCURVE",
"387 512 OFFCURVE",
"401 457 CURVE",
"382 483 OFFCURVE",
"337 500 OFFCURVE",
"290 500 CURVE SMOOTH",
"136 500 OFFCURVE",
"33 397 OFFCURVE",
"33 243 CURVE SMOOTH"
);
},
{
nodes = (
"193 387 OFFCURVE",
"240 489 OFFCURVE",
"306 489 CURVE SMOOTH",
"371 489 OFFCURVE",
"418 387 OFFCURVE",
"418 244 CURVE SMOOTH",
"418 101 OFFCURVE",
"371 -2 OFFCURVE",
"305 -2 CURVE SMOOTH",
"240 -2 OFFCURVE",
"193 101 OFFCURVE",
"193 244 CURVE SMOOTH"
);
}
);
width = 612;
}
);
leftKerningGroup = J;
unicode = 00F0;
},
{
glyphname = notequal;
layers = (
{
hints = (
{
horizontal = 1;
place = "{281, 10}";
type = Stem;
},
{
horizontal = 1;
place = "{387, 10}";
type = Stem;
},
{
place = "{45, 330}";
type = Stem;
}
);
layerId = "E71AC35F-0C69-4082-8C40-135C79A9FCEF";
paths = (
{
nodes = (
"375 281 LINE",
"375 291 LINE",
"191 291 LINE",
"240 387 LINE",
"375 387 LINE",
"375 397 LINE",
"245 397 LINE",
"300 507 LINE",
"289 507 LINE",
"234 397 LINE",
"45 397 LINE",
"45 387 LINE",
"229 387 LINE",
"180 291 LINE",
"45 291 LINE",
"45 281 LINE",
"175 281 LINE",
"120 171 LINE",
"131 171 LINE",
"186 281 LINE"
);
}
);
width = 420;
}
);
leftKerningGroup = J;
unicode = 2260;
},
{
glyphname = Eacute;
layers = (
{
hints = (
{
horizontal = 1;
place = "{0, 10}";
type = Stem;
},
{
horizontal = 1;
place = "{0, 13}";
type = Stem;
},
{
horizontal = 1;
place = "{435, 13}";
type = Stem;
},
{
horizontal = 1;
place = "{737, 13}";
type = Stem;
},
{
horizontal = 1;
place = "{740, 10}";
type = Stem;
},
{
place = "{90, 154}";
type = Stem;
},
{
place = "{444, 10}";
type = Stem;
}
);
layerId = "E71AC35F-0C69-4082-8C40-135C79A9FCEF";
paths = (
{
nodes = (
"314 13 LINE SMOOTH",
"267 13 OFFCURVE",
"244 37 OFFCURVE",
"244 84 CURVE SMOOTH",
"244 435 LINE",
"323 435 LINE SMOOTH",
"395 435 OFFCURVE",
"443 385 OFFCURVE",
"444 313 CURVE",
"454 313 LINE",
"454 559 LINE",
"444 559 LINE",
"444 493 OFFCURVE",
"400 448 OFFCURVE",
"334 448 CURVE SMOOTH",
"244 448 LINE",
"244 737 LINE",
"328 737 LINE SMOOTH",
"466 737 OFFCURVE",
"545 674 OFFCURVE",
"565 549 CURVE",
"575 549 LINE",
"545 750 LINE",
"9 750 LINE",
"10 740 LINE",
"58 740 OFFCURVE",
"90 708 OFFCURVE",
"90 660 CURVE SMOOTH",
"90 84 LINE SMOOTH",
"90 36 OFFCURVE",
"58 10 OFFCURVE",
"10 10 CURVE",
"9 10 LINE",
"8 0 LINE",
"563 0 LINE",
"593 220 LINE",
"583 220 LINE",
"562 78 OFFCURVE",
"484 13 OFFCURVE",
"356 13 CURVE SMOOTH"
);
},
{
nodes = (
"447 923 LINE",
"447 928 LINE",
"383 986 LINE",
"378 986 LINE",
"241 793 LINE",
"248 783 LINE"
);
}
);
width = 606;
}
);
leftKerningGroup = B;
rightKerningGroup = E;
unicode = 00C9;
},
{
glyphname = Aacute;
layers = (
{
hints = (
{
horizontal = 1;
place = "{0, 10}";
type = Stem;
},
{
horizontal = 1;
place = "{263, 13}";
type = Stem;
},
{
horizontal = 1;
place = "{765, -20}";
target = down;
type = TopGhost;
},
{
place = "{-24, 111}";
type = Stem;
}
);
layerId = "E71AC35F-0C69-4082-8C40-135C79A9FCEF";
paths = (
{
nodes = (
"77 119 LINE SMOOTH",
"55 66 OFFCURVE",
"13 13 OFFCURVE",
"-24 10 CURVE",
"-24 0 LINE",
"171 0 LINE",
"171 10 LINE",
"105 13 OFFCURVE",
"70 66 OFFCURVE",
"94 124 CURVE SMOOTH",
"150 263 LINE",
"391 263 LINE",
"451 114 LINE SMOOTH",
"477 49 OFFCURVE",
"455 10 OFFCURVE",
"395 10 CURVE SMOOTH",
"391 10 LINE",
"391 0 LINE",
"711 0 LINE",
"711 10 LINE",
"708 10 LINE SMOOTH",
"673 10 OFFCURVE",
"639 48 OFFCURVE",
"610 119 CURVE SMOOTH",
"350 765 LINE",
"341 765 LINE"
);
},
{
nodes = (
"272 564 LINE",
"386 276 LINE",
"155 276 LINE"
);
},
{
nodes = (
"497 913 LINE",
"497 918 LINE",
"433 976 LINE",
"428 976 LINE",
"290 783 LINE",
"297 773 LINE"
);
}
);
width = 684;
}
);
leftKerningGroup = A2;
rightKerningGroup = A;
unicode = 00C1;
},
{
glyphname = Egrave;
layers = (
{
hints = (
{
horizontal = 1;
place = "{0, 10}";
type = Stem;
},
{
horizontal = 1;
place = "{0, 13}";
type = Stem;
},
{
horizontal = 1;
place = "{435, 13}";
type = Stem;
},
{
horizontal = 1;
place = "{737, 13}";
type = Stem;
},
{
horizontal = 1;
place = "{740, 10}";
type = Stem;
},
{
place = "{90, 154}";
type = Stem;
},
{
place = "{444, 10}";
type = Stem;
}
);
layerId = "E71AC35F-0C69-4082-8C40-135C79A9FCEF";
paths = (
{
nodes = (
"314 13 LINE SMOOTH",
"267 13 OFFCURVE",
"244 37 OFFCURVE",
"244 84 CURVE SMOOTH",
"244 435 LINE",
"323 435 LINE SMOOTH",
"395 435 OFFCURVE",
"443 385 OFFCURVE",
"444 313 CURVE",
"454 313 LINE",
"454 559 LINE",
"444 559 LINE",
"444 493 OFFCURVE",
"400 448 OFFCURVE",
"334 448 CURVE SMOOTH",
"244 448 LINE",
"244 737 LINE",
"328 737 LINE SMOOTH",
"466 737 OFFCURVE",
"545 674 OFFCURVE",
"565 549 CURVE",
"575 549 LINE",
"545 750 LINE",
"9 750 LINE",
"10 740 LINE",
"58 740 OFFCURVE",
"90 708 OFFCURVE",
"90 660 CURVE SMOOTH",
"90 84 LINE SMOOTH",
"90 36 OFFCURVE",
"58 10 OFFCURVE",
"10 10 CURVE",
"9 10 LINE",
"8 0 LINE",
"563 0 LINE",
"593 220 LINE",
"583 220 LINE",
"562 78 OFFCURVE",
"484 13 OFFCURVE",
"356 13 CURVE SMOOTH"
);
},
{
nodes = (
"90 919 LINE",
"290 779 LINE",
"297 789 LINE",
"159 982 LINE",
"154 982 LINE",
"90 924 LINE"
);
}
);
width = 606;
}
);
leftKerningGroup = B;
rightKerningGroup = E;
unicode = 00C8;
},
{
glyphname = Acircumflex;
layers = (
{
hints = (
{
horizontal = 1;
place = "{0, 10}";
type = Stem;
},
{
horizontal = 1;
place = "{263, 13}";
type = Stem;
},
{
horizontal = 1;
place = "{765, -20}";
target = down;
type = TopGhost;
},
{
horizontal = 1;
place = "{906, 70}";
type = Stem;
},
{
place = "{-24, 111}";
type = Stem;
}
);
layerId = "E71AC35F-0C69-4082-8C40-135C79A9FCEF";
paths = (
{
nodes = (
"77 119 LINE SMOOTH",
"55 66 OFFCURVE",
"13 13 OFFCURVE",
"-24 10 CURVE",
"-24 0 LINE",
"171 0 LINE",
"171 10 LINE",
"105 13 OFFCURVE",
"70 66 OFFCURVE",
"94 124 CURVE SMOOTH",
"150 263 LINE",
"391 263 LINE",
"451 114 LINE SMOOTH",
"477 49 OFFCURVE",
"455 10 OFFCURVE",
"395 10 CURVE SMOOTH",
"391 10 LINE",
"391 0 LINE",
"711 0 LINE",
"711 10 LINE",
"708 10 LINE SMOOTH",
"673 10 OFFCURVE",
"639 48 OFFCURVE",
"610 119 CURVE SMOOTH",
"350 765 LINE",
"341 765 LINE"
);
},
{
nodes = (
"272 564 LINE",
"386 276 LINE",
"155 276 LINE"
);
},
{
nodes = (
"372 976 LINE",
"321 976 LINE",
"193 780 LINE",
"200 773 LINE",
"346 906 LINE",
"492 773 LINE",
"499 780 LINE"
);
}
);
width = 684;
}
);
leftKerningGroup = A2;
rightKerningGroup = A;
unicode = 00C2;
},
{
glyphname = Ecircumflex;
layers = (
{
hints = (
{
horizontal = 1;
place = "{0, 10}";
type = Stem;
},
{
horizontal = 1;
place = "{0, 13}";
type = Stem;
},
{
horizontal = 1;
place = "{435, 13}";
type = Stem;
},
{
horizontal = 1;
place = "{737, 13}";
type = Stem;
},
{
horizontal = 1;
place = "{740, 10}";
type = Stem;
},
{
horizontal = 1;
place = "{916, 70}";
type = Stem;
},
{
place = "{90, 154}";
type = Stem;
},
{
place = "{444, 10}";
type = Stem;
}
);
layerId = "E71AC35F-0C69-4082-8C40-135C79A9FCEF";
paths = (
{
nodes = (
"314 13 LINE SMOOTH",
"267 13 OFFCURVE",
"244 37 OFFCURVE",
"244 84 CURVE SMOOTH",
"244 435 LINE",
"323 435 LINE SMOOTH",
"395 435 OFFCURVE",
"443 385 OFFCURVE",
"444 313 CURVE",
"454 313 LINE",
"454 559 LINE",
"444 559 LINE",
"444 493 OFFCURVE",
"400 448 OFFCURVE",
"334 448 CURVE SMOOTH",
"244 448 LINE",
"244 737 LINE",
"328 737 LINE SMOOTH",
"466 737 OFFCURVE",
"545 674 OFFCURVE",
"565 549 CURVE",
"575 549 LINE",
"545 750 LINE",
"9 750 LINE",
"10 740 LINE",
"58 740 OFFCURVE",
"90 708 OFFCURVE",
"90 660 CURVE SMOOTH",
"90 84 LINE SMOOTH",
"90 36 OFFCURVE",
"58 10 OFFCURVE",
"10 10 CURVE",
"9 10 LINE",
"8 0 LINE",
"563 0 LINE",
"593 220 LINE",
"583 220 LINE",
"562 78 OFFCURVE",
"484 13 OFFCURVE",
"356 13 CURVE SMOOTH"
);
},
{
nodes = (
"322 986 LINE",
"271 986 LINE",
"144 790 LINE",
"151 783 LINE",
"297 916 LINE",
"443 783 LINE",
"450 790 LINE"
);
}
);
width = 606;
}
);
leftKerningGroup = B;
rightKerningGroup = E;
unicode = 00CA;
},
{
glyphname = Edieresis;
layers = (
{
hints = (
{
horizontal = 1;
place = "{0, 10}";
type = Stem;
},
{
horizontal = 1;
place = "{0, 13}";
type = Stem;
},
{
horizontal = 1;
place = "{435, 13}";
type = Stem;
},
{
horizontal = 1;
place = "{737, 13}";
type = Stem;
},
{
horizontal = 1;
place = "{740, 10}";
type = Stem;
},
{
horizontal = 1;
place = "{806, 150}";
type = Stem;
},
{
place = "{90, 154}";
type = Stem;
},
{
place = "{123, 150}";
type = Stem;
},
{
place = "{321, 150}";
type = Stem;
},
{
place = "{444, 10}";
type = Stem;
}
);
layerId = "E71AC35F-0C69-4082-8C40-135C79A9FCEF";
paths = (
{
nodes = (
"314 13 LINE SMOOTH",
"267 13 OFFCURVE",
"244 37 OFFCURVE",
"244 84 CURVE SMOOTH",
"244 435 LINE",
"323 435 LINE SMOOTH",
"395 435 OFFCURVE",
"443 385 OFFCURVE",
"444 313 CURVE",
"454 313 LINE",
"454 559 LINE",
"444 559 LINE",
"444 493 OFFCURVE",
"400 448 OFFCURVE",
"334 448 CURVE SMOOTH",
"244 448 LINE",
"244 737 LINE",
"328 737 LINE SMOOTH",
"466 737 OFFCURVE",
"545 674 OFFCURVE",
"565 549 CURVE",
"575 549 LINE",
"545 750 LINE",
"9 750 LINE",
"10 740 LINE",
"58 740 OFFCURVE",
"90 708 OFFCURVE",
"90 660 CURVE SMOOTH",
"90 84 LINE SMOOTH",
"90 36 OFFCURVE",
"58 10 OFFCURVE",
"10 10 CURVE",
"9 10 LINE",
"8 0 LINE",
"563 0 LINE",
"593 220 LINE",
"583 220 LINE",
"562 78 OFFCURVE",
"484 13 OFFCURVE",
"356 13 CURVE SMOOTH"
);
},
{
nodes = (
"123 840 OFFCURVE",
"157 806 OFFCURVE",
"198 806 CURVE SMOOTH",
"238 806 OFFCURVE",
"273 840 OFFCURVE",
"273 881 CURVE SMOOTH",
"273 922 OFFCURVE",
"238 956 OFFCURVE",
"198 956 CURVE SMOOTH",
"157 956 OFFCURVE",
"123 922 OFFCURVE",
"123 881 CURVE SMOOTH"
);
},
{
nodes = (
"321 840 OFFCURVE",
"355 806 OFFCURVE",
"396 806 CURVE SMOOTH",
"436 806 OFFCURVE",
"471 840 OFFCURVE",
"471 881 CURVE SMOOTH",
"471 922 OFFCURVE",
"436 956 OFFCURVE",
"396 956 CURVE SMOOTH",
"355 956 OFFCURVE",
"321 922 OFFCURVE",
"321 881 CURVE SMOOTH"
);
}
);
width = 606;
}
);
leftKerningGroup = B;
rightKerningGroup = E;
unicode = 00CB;
},
{
glyphname = Iacute;
layers = (
{
hints = (
{
horizontal = 1;
place = "{0, 10}";
type = Stem;
},
{
horizontal = 1;
place = "{740, 10}";
type = Stem;
},
{
place = "{81, 155}";
type = Stem;
}
);
layerId = "E71AC35F-0C69-4082-8C40-135C79A9FCEF";
paths = (
{
nodes = (
"316 10 LINE",
"268 10 OFFCURVE",
"236 42 OFFCURVE",
"236 90 CURVE SMOOTH",
"236 660 LINE SMOOTH",
"236 708 OFFCURVE",
"268 740 OFFCURVE",
"316 740 CURVE",
"317 740 LINE",
"317 750 LINE",
"0 750 LINE",
"0 740 LINE",
"1 740 LINE",
"49 740 OFFCURVE",
"81 708 OFFCURVE",
"81 660 CURVE SMOOTH",
"81 90 LINE SMOOTH",
"81 42 OFFCURVE",
"49 10 OFFCURVE",
"1 10 CURVE",
"0 10 LINE",
"0 0 LINE",
"317 0 LINE",
"317 10 LINE"
);
},
{
nodes = (
"263 923 LINE",
"263 928 LINE",
"199 986 LINE",
"194 986 LINE",
"57 793 LINE",
"64 783 LINE"
);
}
);
width = 317;
}
);
leftKerningGroup = H2;
rightKerningGroup = H;
unicode = 00CD;
},
{
glyphname = Icircumflex;
layers = (
{
hints = (
{
horizontal = 1;
place = "{0, 10}";
type = Stem;
},
{
horizontal = 1;
place = "{740, 10}";
type = Stem;
},
{
horizontal = 1;
place = "{916, 70}";
type = Stem;
},
{
place = "{81, 155}";
type = Stem;
}
);
layerId = "E71AC35F-0C69-4082-8C40-135C79A9FCEF";
paths = (
{
nodes = (
"316 10 LINE",
"268 10 OFFCURVE",
"236 42 OFFCURVE",
"236 90 CURVE SMOOTH",
"236 660 LINE SMOOTH",
"236 708 OFFCURVE",
"268 740 OFFCURVE",
"316 740 CURVE",
"317 740 LINE",
"317 750 LINE",
"0 750 LINE",
"0 740 LINE",
"1 740 LINE",
"49 740 OFFCURVE",
"81 708 OFFCURVE",
"81 660 CURVE SMOOTH",
"81 90 LINE SMOOTH",
"81 42 OFFCURVE",
"49 10 OFFCURVE",
"1 10 CURVE",
"0 10 LINE",
"0 0 LINE",
"317 0 LINE",
"317 10 LINE"
);
},
{
nodes = (
"184 986 LINE",
"133 986 LINE",
"6 790 LINE",
"13 783 LINE",
"159 916 LINE",
"305 783 LINE",
"312 790 LINE"
);
}
);
width = 317;
}
);
leftKerningGroup = H2;
rightKerningGroup = H;
unicode = 00CE;
},
{
glyphname = Idieresis;
layers = (
{
hints = (
{
horizontal = 1;
place = "{0, 10}";
type = Stem;
},
{
horizontal = 1;
place = "{740, 10}";
type = Stem;
},
{
horizontal = 1;
place = "{806, 150}";
type = Stem;
},
{
place = "{-15, 151}";
type = Stem;
},
{
place = "{81, 155}";
type = Stem;
},
{
place = "{184, 150}";
type = Stem;
}
);
layerId = "E71AC35F-0C69-4082-8C40-135C79A9FCEF";
paths = (
{
nodes = (
"316 10 LINE",
"268 10 OFFCURVE",
"236 42 OFFCURVE",
"236 90 CURVE SMOOTH",
"236 660 LINE SMOOTH",
"236 708 OFFCURVE",
"268 740 OFFCURVE",
"316 740 CURVE",
"317 740 LINE",
"317 750 LINE",
"0 750 LINE",
"0 740 LINE",
"1 740 LINE",
"49 740 OFFCURVE",
"81 708 OFFCURVE",
"81 660 CURVE SMOOTH",
"81 90 LINE SMOOTH",
"81 42 OFFCURVE",
"49 10 OFFCURVE",
"1 10 CURVE",
"0 10 LINE",
"0 0 LINE",
"317 0 LINE",
"317 10 LINE"
);
},
{
nodes = (
"-15 840 OFFCURVE",
"20 806 OFFCURVE",
"61 806 CURVE SMOOTH",
"101 806 OFFCURVE",
"136 840 OFFCURVE",
"136 881 CURVE SMOOTH",
"136 922 OFFCURVE",
"101 956 OFFCURVE",
"61 956 CURVE SMOOTH",
"20 956 OFFCURVE",
"-15 922 OFFCURVE",
"-15 881 CURVE SMOOTH"
);
},
{
nodes = (
"184 840 OFFCURVE",
"218 806 OFFCURVE",
"259 806 CURVE SMOOTH",
"299 806 OFFCURVE",
"334 840 OFFCURVE",
"334 881 CURVE SMOOTH",
"334 922 OFFCURVE",
"299 956 OFFCURVE",
"259 956 CURVE SMOOTH",
"218 956 OFFCURVE",
"184 922 OFFCURVE",
"184 881 CURVE SMOOTH"
);
}
);
width = 317;
}
);
leftKerningGroup = H2;
rightKerningGroup = H;
unicode = 00CF;
},
{
glyphname = Aring;
layers = (
{
hints = (
{
horizontal = 1;
place = "{0, 10}";
type = Stem;
},
{
horizontal = 1;
place = "{263, 13}";
type = Stem;
},
{
horizontal = 1;
place = "{765, -20}";
target = down;
type = TopGhost;
},
{
horizontal = 1;
place = "{806, 19}";
type = Stem;
},
{
horizontal = 1;
place = "{937, 19}";
type = Stem;
},
{
place = "{-24, 111}";
type = Stem;
},
{
place = "{268, 22}";
type = Stem;
},
{
place = "{402, 21}";
type = Stem;
}
);
layerId = "E71AC35F-0C69-4082-8C40-135C79A9FCEF";
paths = (
{
nodes = (
"77 119 LINE SMOOTH",
"55 66 OFFCURVE",
"13 13 OFFCURVE",
"-24 10 CURVE",
"-24 0 LINE",
"171 0 LINE",
"171 10 LINE",
"105 13 OFFCURVE",
"70 66 OFFCURVE",
"94 124 CURVE SMOOTH",
"150 263 LINE",
"391 263 LINE",
"451 114 LINE SMOOTH",
"477 49 OFFCURVE",
"455 10 OFFCURVE",
"395 10 CURVE SMOOTH",
"391 10 LINE",
"391 0 LINE",
"711 0 LINE",
"711 10 LINE",
"708 10 LINE SMOOTH",
"673 10 OFFCURVE",
"639 48 OFFCURVE",
"610 119 CURVE SMOOTH",
"350 765 LINE",
"341 765 LINE"
);
},
{
nodes = (
"272 564 LINE",
"386 276 LINE",
"155 276 LINE"
);
},
{
nodes = (
"268 840 OFFCURVE",
"304 806 OFFCURVE",
"346 806 CURVE SMOOTH",
"387 806 OFFCURVE",
"423 840 OFFCURVE",
"423 881 CURVE SMOOTH",
"423 922 OFFCURVE",
"387 956 OFFCURVE",
"346 956 CURVE SMOOTH",
"304 956 OFFCURVE",
"268 922 OFFCURVE",
"268 881 CURVE SMOOTH"
);
},
{
nodes = (
"290 911 OFFCURVE",
"315 937 OFFCURVE",
"346 937 CURVE SMOOTH",
"376 937 OFFCURVE",
"402 911 OFFCURVE",
"402 881 CURVE SMOOTH",
"402 851 OFFCURVE",
"376 825 OFFCURVE",
"346 825 CURVE SMOOTH",
"315 825 OFFCURVE",
"290 851 OFFCURVE",
"290 881 CURVE SMOOTH"
);
}
);
width = 684;
}
);
leftKerningGroup = A2;
rightKerningGroup = A;
unicode = 00C5;
},
{
glyphname = Adieresis;
layers = (
{
hints = (
{
horizontal = 1;
place = "{0, 10}";
type = Stem;
},
{
horizontal = 1;
place = "{263, 13}";
type = Stem;
},
{
horizontal = 1;
place = "{765, -20}";
target = down;
type = TopGhost;
},
{
horizontal = 1;
place = "{796, 150}";
type = Stem;
},
{
place = "{-24, 111}";
type = Stem;
},
{
place = "{172, 150}";
type = Stem;
},
{
place = "{370, 150}";
type = Stem;
}
);
layerId = "E71AC35F-0C69-4082-8C40-135C79A9FCEF";
paths = (
{
nodes = (
"77 119 LINE SMOOTH",
"55 66 OFFCURVE",
"13 13 OFFCURVE",
"-24 10 CURVE",
"-24 0 LINE",
"171 0 LINE",
"171 10 LINE",
"105 13 OFFCURVE",
"70 66 OFFCURVE",
"94 124 CURVE SMOOTH",
"150 263 LINE",
"391 263 LINE",
"451 114 LINE SMOOTH",
"477 49 OFFCURVE",
"455 10 OFFCURVE",
"395 10 CURVE SMOOTH",
"391 10 LINE",
"391 0 LINE",
"711 0 LINE",
"711 10 LINE",
"708 10 LINE SMOOTH",
"673 10 OFFCURVE",
"639 48 OFFCURVE",
"610 119 CURVE SMOOTH",
"350 765 LINE",
"341 765 LINE"
);
},
{
nodes = (
"272 564 LINE",
"386 276 LINE",
"155 276 LINE"
);
},
{
nodes = (
"172 830 OFFCURVE",
"206 796 OFFCURVE",
"247 796 CURVE SMOOTH",
"287 796 OFFCURVE",
"322 830 OFFCURVE",
"322 871 CURVE SMOOTH",
"322 912 OFFCURVE",
"287 946 OFFCURVE",
"247 946 CURVE SMOOTH",
"206 946 OFFCURVE",
"172 912 OFFCURVE",
"172 871 CURVE SMOOTH"
);
},
{
nodes = (
"370 830 OFFCURVE",
"404 796 OFFCURVE",
"445 796 CURVE SMOOTH",
"485 796 OFFCURVE",
"520 830 OFFCURVE",
"520 871 CURVE SMOOTH",
"520 912 OFFCURVE",
"485 946 OFFCURVE",
"445 946 CURVE SMOOTH",
"404 946 OFFCURVE",
"370 912 OFFCURVE",
"370 871 CURVE SMOOTH"
);
}
);
width = 684;
}
);
leftKerningGroup = A2;
rightKerningGroup = A;
unicode = 00C4;
},
{
glyphname = Oacute;
layers = (
{
hints = (
{
horizontal = 1;
place = "{-14, 16}";
type = Stem;
},
{
horizontal = 1;
place = "{751, 13}";
type = Stem;
},
{
place = "{37, 170}";
type = Stem;
},
{
place = "{671, 170}";
type = Stem;
}
);
layerId = "E71AC35F-0C69-4082-8C40-135C79A9FCEF";
paths = (
{
nodes = (
"37 142 OFFCURVE",
"198 -14 OFFCURVE",
"439 -14 CURVE SMOOTH",
"680 -14 OFFCURVE",
"841 142 OFFCURVE",
"841 375 CURVE SMOOTH",
"841 608 OFFCURVE",
"680 764 OFFCURVE",
"439 764 CURVE SMOOTH",
"198 764 OFFCURVE",
"37 608 OFFCURVE",
"37 375 CURVE SMOOTH"
);
},
{
nodes = (
"207 601 OFFCURVE",
"300 751 OFFCURVE",
"439 751 CURVE SMOOTH",
"578 751 OFFCURVE",
"671 601 OFFCURVE",
"671 376 CURVE SMOOTH",
"671 151 OFFCURVE",
"578 2 OFFCURVE",
"439 2 CURVE SMOOTH",
"300 2 OFFCURVE",
"207 151 OFFCURVE",
"207 376 CURVE SMOOTH"
);
},
{
nodes = (
"593 923 LINE",
"593 928 LINE",
"529 986 LINE",
"524 986 LINE",
"386 793 LINE",
"393 783 LINE"
);
}
);
width = 878;
}
);
leftKerningGroup = C;
rightKerningGroup = D;
unicode = 00D3;
},
{
glyphname = Ocircumflex;
layers = (
{
hints = (
{
horizontal = 1;
place = "{-14, 16}";
type = Stem;
},
{
horizontal = 1;
place = "{751, 13}";
type = Stem;
},
{
horizontal = 1;
place = "{916, 70}";
type = Stem;
},
{
place = "{37, 170}";
type = Stem;
},
{
place = "{671, 170}";
type = Stem;
}
);
layerId = "E71AC35F-0C69-4082-8C40-135C79A9FCEF";
paths = (
{
nodes = (
"37 142 OFFCURVE",
"198 -14 OFFCURVE",
"439 -14 CURVE SMOOTH",
"680 -14 OFFCURVE",
"841 142 OFFCURVE",
"841 375 CURVE SMOOTH",
"841 608 OFFCURVE",
"680 764 OFFCURVE",
"439 764 CURVE SMOOTH",
"198 764 OFFCURVE",
"37 608 OFFCURVE",
"37 375 CURVE SMOOTH"
);
},
{
nodes = (
"207 601 OFFCURVE",
"300 751 OFFCURVE",
"439 751 CURVE SMOOTH",
"578 751 OFFCURVE",
"671 601 OFFCURVE",
"671 376 CURVE SMOOTH",
"671 151 OFFCURVE",
"578 2 OFFCURVE",
"439 2 CURVE SMOOTH",
"300 2 OFFCURVE",
"207 151 OFFCURVE",
"207 376 CURVE SMOOTH"
);
},
{
nodes = (
"464 986 LINE",
"413 986 LINE",
"286 790 LINE",
"293 783 LINE",
"439 916 LINE",
"585 783 LINE",
"592 790 LINE"
);
}
);
width = 878;
}
);
leftKerningGroup = C;
rightKerningGroup = D;
unicode = 00D4;
},
{
glyphname = Odieresis;
layers = (
{
hints = (
{
horizontal = 1;
place = "{-14, 16}";
type = Stem;
},
{
horizontal = 1;
place = "{751, 13}";
type = Stem;
},
{
horizontal = 1;
place = "{806, 150}";
type = Stem;
},
{
place = "{37, 170}";
type = Stem;
},
{
place = "{265, 150}";
type = Stem;
},
{
place = "{463, 150}";
type = Stem;
},
{
place = "{671, 170}";
type = Stem;
}
);
layerId = "E71AC35F-0C69-4082-8C40-135C79A9FCEF";
paths = (
{
nodes = (
"37 142 OFFCURVE",
"198 -14 OFFCURVE",
"439 -14 CURVE SMOOTH",
"680 -14 OFFCURVE",
"841 142 OFFCURVE",
"841 375 CURVE SMOOTH",
"841 608 OFFCURVE",
"680 764 OFFCURVE",
"439 764 CURVE SMOOTH",
"198 764 OFFCURVE",
"37 608 OFFCURVE",
"37 375 CURVE SMOOTH"
);
},
{
nodes = (
"207 601 OFFCURVE",
"300 751 OFFCURVE",
"439 751 CURVE SMOOTH",
"578 751 OFFCURVE",
"671 601 OFFCURVE",
"671 376 CURVE SMOOTH",
"671 151 OFFCURVE",
"578 2 OFFCURVE",
"439 2 CURVE SMOOTH",
"300 2 OFFCURVE",
"207 151 OFFCURVE",
"207 376 CURVE SMOOTH"
);
},
{
nodes = (
"265 840 OFFCURVE",
"299 806 OFFCURVE",
"340 806 CURVE SMOOTH",
"381 806 OFFCURVE",
"415 840 OFFCURVE",
"415 881 CURVE SMOOTH",
"415 922 OFFCURVE",
"381 956 OFFCURVE",
"340 956 CURVE SMOOTH",
"299 956 OFFCURVE",
"265 922 OFFCURVE",
"265 881 CURVE SMOOTH"
);
},
{
nodes = (
"463 840 OFFCURVE",
"497 806 OFFCURVE",
"538 806 CURVE SMOOTH",
"579 806 OFFCURVE",
"613 840 OFFCURVE",
"613 881 CURVE SMOOTH",
"613 922 OFFCURVE",
"579 956 OFFCURVE",
"538 956 CURVE SMOOTH",
"497 956 OFFCURVE",
"463 922 OFFCURVE",
"463 881 CURVE SMOOTH"
);
}
);
width = 878;
}
);
leftKerningGroup = C;
rightKerningGroup = D;
unicode = 00D6;
},
{
glyphname = adieresis;
layers = (
{
hints = (
{
horizontal = 1;
place = "{-14, 62}";
type = Stem;
},
{
horizontal = 1;
place = "{510, 13}";
type = Stem;
},
{
horizontal = 1;
place = "{604, 150}";
type = Stem;
},
{
place = "{31, 134}";
type = Stem;
},
{
place = "{86, 150}";
type = Stem;
},
{
place = "{284, 150}";
type = Stem;
},
{
place = "{331, 144}";
type = Stem;
}
);
layerId = "E71AC35F-0C69-4082-8C40-135C79A9FCEF";
paths = (
{
nodes = (
"182 523 OFFCURVE",
"90 468 OFFCURVE",
"55 386 CURVE",
"163 324 LINE",
"175 439 OFFCURVE",
"213 509 OFFCURVE",
"263 510 CURVE",
"305 510 OFFCURVE",
"331 462 OFFCURVE",
"331 386 CURVE SMOOTH",
"331 311 LINE",
"238 277 LINE SMOOTH",
"62 213 OFFCURVE",
"31 166 OFFCURVE",
"31 106 CURVE SMOOTH",
"31 34 OFFCURVE",
"85 -14 OFFCURVE",
"166 -14 CURVE SMOOTH",
"223 -14 OFFCURVE",
"266 11 OFFCURVE",
"332 81 CURVE",
"341 24 OFFCURVE",
"381 -14 OFFCURVE",
"432 -14 CURVE SMOOTH",
"479 -14 OFFCURVE",
"533 18 OFFCURVE",
"567 65 CURVE",
"559 72 LINE",
"544 55 OFFCURVE",
"530 47 OFFCURVE",
"514 47 CURVE SMOOTH",
"489 47 OFFCURVE",
"474 68 OFFCURVE",
"475 105 CURVE",
"475 346 LINE SMOOTH",
"475 453 OFFCURVE",
"398 523 OFFCURVE",
"283 523 CURVE SMOOTH"
);
},
{
nodes = (
"330 95 LINE",
"296 62 OFFCURVE",
"270 48 OFFCURVE",
"241 48 CURVE SMOOTH",
"197 48 OFFCURVE",
"165 89 OFFCURVE",
"165 146 CURVE SMOOTH",
"165 204 OFFCURVE",
"186 243 OFFCURVE",
"291 283 CURVE SMOOTH",
"331 298 LINE"
);
},
{
nodes = (
"86 638 OFFCURVE",
"120 604 OFFCURVE",
"161 604 CURVE SMOOTH",
"202 604 OFFCURVE",
"236 638 OFFCURVE",
"236 679 CURVE SMOOTH",
"236 720 OFFCURVE",
"202 754 OFFCURVE",
"161 754 CURVE SMOOTH",
"120 754 OFFCURVE",
"86 720 OFFCURVE",
"86 679 CURVE SMOOTH"
);
},
{
nodes = (
"284 638 OFFCURVE",
"318 604 OFFCURVE",
"359 604 CURVE SMOOTH",
"400 604 OFFCURVE",
"434 638 OFFCURVE",
"434 679 CURVE SMOOTH",
"434 720 OFFCURVE",
"400 754 OFFCURVE",
"359 754 CURVE SMOOTH",
"318 754 OFFCURVE",
"284 720 OFFCURVE",
"284 679 CURVE SMOOTH"
);
}
);
width = 551;
}
);
leftKerningGroup = a2;
rightKerningGroup = a;
unicode = 00E4;
},
{
glyphname = acircumflex;
layers = (
{
hints = (
{
horizontal = 1;
place = "{-14, 62}";
type = Stem;
},
{
horizontal = 1;
place = "{510, 13}";
type = Stem;
},
{
horizontal = 1;
place = "{714, 70}";
type = Stem;
},
{
place = "{31, 134}";
type = Stem;
},
{
place = "{331, 144}";
type = Stem;
}
);
layerId = "E71AC35F-0C69-4082-8C40-135C79A9FCEF";
paths = (
{
nodes = (
"182 523 OFFCURVE",
"90 468 OFFCURVE",
"55 386 CURVE",
"163 324 LINE",
"175 439 OFFCURVE",
"213 509 OFFCURVE",
"263 510 CURVE",
"305 510 OFFCURVE",
"331 462 OFFCURVE",
"331 386 CURVE SMOOTH",
"331 311 LINE",
"238 277 LINE SMOOTH",
"62 213 OFFCURVE",
"31 166 OFFCURVE",
"31 106 CURVE SMOOTH",
"31 34 OFFCURVE",
"85 -14 OFFCURVE",
"166 -14 CURVE SMOOTH",
"223 -14 OFFCURVE",
"266 11 OFFCURVE",
"332 81 CURVE",
"341 24 OFFCURVE",
"381 -14 OFFCURVE",
"432 -14 CURVE SMOOTH",
"479 -14 OFFCURVE",
"533 18 OFFCURVE",
"567 65 CURVE",
"559 72 LINE",
"544 55 OFFCURVE",
"530 47 OFFCURVE",
"514 47 CURVE SMOOTH",
"489 47 OFFCURVE",
"474 68 OFFCURVE",
"475 105 CURVE",
"475 346 LINE SMOOTH",
"475 453 OFFCURVE",
"398 523 OFFCURVE",
"283 523 CURVE SMOOTH"
);
},
{
nodes = (
"330 95 LINE",
"296 62 OFFCURVE",
"270 48 OFFCURVE",
"241 48 CURVE SMOOTH",
"197 48 OFFCURVE",
"165 89 OFFCURVE",
"165 146 CURVE SMOOTH",
"165 204 OFFCURVE",
"186 243 OFFCURVE",
"291 283 CURVE SMOOTH",
"331 298 LINE"
);
},
{
nodes = (
"295 784 LINE",
"244 784 LINE",
"117 588 LINE",
"124 581 LINE",
"270 714 LINE",
"416 581 LINE",
"423 588 LINE"
);
}
);
width = 551;
}
);
leftKerningGroup = a2;
rightKerningGroup = a;
unicode = 00E2;
},
{
glyphname = aacute;
layers = (
{
hints = (
{
horizontal = 1;
place = "{-14, 62}";
type = Stem;
},
{
horizontal = 1;
place = "{510, 13}";
type = Stem;
},
{
place = "{31, 134}";
type = Stem;
},
{
place = "{331, 144}";
type = Stem;
}
);
layerId = "E71AC35F-0C69-4082-8C40-135C79A9FCEF";
paths = (
{
nodes = (
"182 523 OFFCURVE",
"90 468 OFFCURVE",
"55 386 CURVE",
"163 324 LINE",
"175 439 OFFCURVE",
"213 509 OFFCURVE",
"263 510 CURVE",
"305 510 OFFCURVE",
"331 462 OFFCURVE",
"331 386 CURVE SMOOTH",
"331 311 LINE",
"238 277 LINE SMOOTH",
"62 213 OFFCURVE",
"31 166 OFFCURVE",
"31 106 CURVE SMOOTH",
"31 34 OFFCURVE",
"85 -14 OFFCURVE",
"166 -14 CURVE SMOOTH",
"223 -14 OFFCURVE",
"266 11 OFFCURVE",
"332 81 CURVE",
"341 24 OFFCURVE",
"381 -14 OFFCURVE",
"432 -14 CURVE SMOOTH",
"479 -14 OFFCURVE",
"533 18 OFFCURVE",
"567 65 CURVE",
"559 72 LINE",
"544 55 OFFCURVE",
"530 47 OFFCURVE",
"514 47 CURVE SMOOTH",
"489 47 OFFCURVE",
"474 68 OFFCURVE",
"475 105 CURVE",
"475 346 LINE SMOOTH",
"475 453 OFFCURVE",
"398 523 OFFCURVE",
"283 523 CURVE SMOOTH"
);
},
{
nodes = (
"330 95 LINE",
"296 62 OFFCURVE",
"270 48 OFFCURVE",
"241 48 CURVE SMOOTH",
"197 48 OFFCURVE",
"165 89 OFFCURVE",
"165 146 CURVE SMOOTH",
"165 204 OFFCURVE",
"186 243 OFFCURVE",
"291 283 CURVE SMOOTH",
"331 298 LINE"
);
},
{
nodes = (
"414 721 LINE",
"414 726 LINE",
"350 784 LINE",
"345 784 LINE",
"207 591 LINE",
"214 581 LINE"
);
}
);
width = 551;
}
);
leftKerningGroup = a2;
rightKerningGroup = a;
unicode = 00E1;
},
{
glyphname = ecircumflex;
layers = (
{
hints = (
{
horizontal = 1;
place = "{-12, 89}";
type = Stem;
},
{
horizontal = 1;
place = "{315, 15}";
type = Stem;
},
{
horizontal = 1;
place = "{507, 15}";
type = Stem;
},
{
horizontal = 1;
place = "{714, 70}";
type = Stem;
},
{
place = "{33, 136}";
type = Stem;
},
{
place = "{373, 131}";
type = Stem;
}
);
layerId = "E71AC35F-0C69-4082-8C40-135C79A9FCEF";
paths = (
{
nodes = (
"33 97 OFFCURVE",
"130 -12 OFFCURVE",
"269 -12 CURVE SMOOTH",
"379 -12 OFFCURVE",
"479 56 OFFCURVE",
"513 161 CURVE",
"504 164 LINE",
"468 111 OFFCURVE",
"405 77 OFFCURVE",
"342 77 CURVE SMOOTH",
"237 77 OFFCURVE",
"168 170 OFFCURVE",
"169 310 CURVE",
"169 315 LINE",
"504 315 LINE",
"504 330 LINE",
"500 444 OFFCURVE",
"412 522 OFFCURVE",
"287 522 CURVE SMOOTH",
"139 522 OFFCURVE",
"33 414 OFFCURVE",
"33 255 CURVE SMOOTH"
);
},
{
nodes = (
"169 330 LINE",
"175 437 OFFCURVE",
"218 507 OFFCURVE",
"276 507 CURVE SMOOTH",
"335 507 OFFCURVE",
"373 437 OFFCURVE",
"373 330 CURVE"
);
},
{
nodes = (
"318 784 LINE",
"267 784 LINE",
"140 588 LINE",
"147 581 LINE",
"293 714 LINE",
"439 581 LINE",
"446 588 LINE"
);
}
);
width = 537;
}
);
leftKerningGroup = c2;
rightKerningGroup = c;
unicode = 00EA;
},
{
glyphname = eacute;
layers = (
{
hints = (
{
horizontal = 1;
place = "{-12, 89}";
type = Stem;
},
{
horizontal = 1;
place = "{315, 15}";
type = Stem;
},
{
horizontal = 1;
place = "{507, 15}";
type = Stem;
},
{
place = "{33, 136}";
type = Stem;
},
{
place = "{373, 131}";
type = Stem;
}
);
layerId = "E71AC35F-0C69-4082-8C40-135C79A9FCEF";
paths = (
{
nodes = (
"33 97 OFFCURVE",
"130 -12 OFFCURVE",
"269 -12 CURVE SMOOTH",
"379 -12 OFFCURVE",
"479 56 OFFCURVE",
"513 161 CURVE",
"504 164 LINE",
"468 111 OFFCURVE",
"405 77 OFFCURVE",
"342 77 CURVE SMOOTH",
"237 77 OFFCURVE",
"168 170 OFFCURVE",
"169 310 CURVE",
"169 315 LINE",
"504 315 LINE",
"504 330 LINE",
"500 444 OFFCURVE",
"412 522 OFFCURVE",
"287 522 CURVE SMOOTH",
"139 522 OFFCURVE",
"33 414 OFFCURVE",
"33 255 CURVE SMOOTH"
);
},
{
nodes = (
"169 330 LINE",
"175 437 OFFCURVE",
"218 507 OFFCURVE",
"276 507 CURVE SMOOTH",
"335 507 OFFCURVE",
"373 437 OFFCURVE",
"373 330 CURVE"
);
},
{
nodes = (
"421 721 LINE",
"421 726 LINE",
"357 784 LINE",
"352 784 LINE",
"215 591 LINE",
"222 581 LINE"
);
}
);
width = 537;
}
);
leftKerningGroup = c2;
rightKerningGroup = c;
unicode = 00E9;
},
{
glyphname = odieresis;
layers = (
{
hints = (
{
horizontal = 1;
place = "{-14, 13}";
type = Stem;
},
{
horizontal = 1;
place = "{510, 12}";
type = Stem;
},
{
horizontal = 1;
place = "{604, 150}";
type = Stem;
},
{
place = "{34, 160}";
type = Stem;
},
{
place = "{132, 150}";
type = Stem;
},
{
place = "{330, 150}";
type = Stem;
},
{
place = "{419, 160}";
type = Stem;
}
);
layerId = "E71AC35F-0C69-4082-8C40-135C79A9FCEF";
paths = (
{
nodes = (
"34 92 OFFCURVE",
"142 -14 OFFCURVE",
"307 -14 CURVE SMOOTH",
"471 -14 OFFCURVE",
"579 92 OFFCURVE",
"579 254 CURVE SMOOTH",
"579 416 OFFCURVE",
"471 522 OFFCURVE",
"307 522 CURVE SMOOTH",
"142 522 OFFCURVE",
"34 416 OFFCURVE",
"34 254 CURVE SMOOTH"
);
},
{
nodes = (
"194 403 OFFCURVE",
"241 510 OFFCURVE",
"307 510 CURVE SMOOTH",
"372 510 OFFCURVE",
"419 403 OFFCURVE",
"419 255 CURVE SMOOTH",
"419 107 OFFCURVE",
"372 -1 OFFCURVE",
"306 -1 CURVE SMOOTH",
"241 -1 OFFCURVE",
"194 107 OFFCURVE",
"194 255 CURVE SMOOTH"
);
},
{
nodes = (
"132 638 OFFCURVE",
"166 604 OFFCURVE",
"207 604 CURVE SMOOTH",
"248 604 OFFCURVE",
"282 638 OFFCURVE",
"282 679 CURVE SMOOTH",
"282 720 OFFCURVE",
"248 754 OFFCURVE",
"207 754 CURVE SMOOTH",
"166 754 OFFCURVE",
"132 720 OFFCURVE",
"132 679 CURVE SMOOTH"
);
},
{
nodes = (
"330 638 OFFCURVE",
"364 604 OFFCURVE",
"405 604 CURVE SMOOTH",
"446 604 OFFCURVE",
"480 638 OFFCURVE",
"480 679 CURVE SMOOTH",
"480 720 OFFCURVE",
"446 754 OFFCURVE",
"405 754 CURVE SMOOTH",
"364 754 OFFCURVE",
"330 720 OFFCURVE",
"330 679 CURVE SMOOTH"
);
}
);
width = 612;
}
);
leftKerningGroup = c2;
rightKerningGroup = b;
unicode = 00F6;
},
{
glyphname = edieresis;
layers = (
{
hints = (
{
horizontal = 1;
place = "{-12, 89}";
type = Stem;
},
{
horizontal = 1;
place = "{315, 15}";
type = Stem;
},
{
horizontal = 1;
place = "{507, 15}";
type = Stem;
},
{
horizontal = 1;
place = "{603, 150}";
type = Stem;
},
{
place = "{33, 136}";
type = Stem;
},
{
place = "{111, 150}";
type = Stem;
},
{
place = "{309, 150}";
type = Stem;
},
{
place = "{373, 131}";
type = Stem;
}
);
layerId = "E71AC35F-0C69-4082-8C40-135C79A9FCEF";
paths = (
{
nodes = (
"33 97 OFFCURVE",
"130 -12 OFFCURVE",
"269 -12 CURVE SMOOTH",
"379 -12 OFFCURVE",
"479 56 OFFCURVE",
"513 161 CURVE",
"504 164 LINE",
"468 111 OFFCURVE",
"405 77 OFFCURVE",
"342 77 CURVE SMOOTH",
"237 77 OFFCURVE",
"168 170 OFFCURVE",
"169 310 CURVE",
"169 315 LINE",
"504 315 LINE",
"504 330 LINE",
"500 444 OFFCURVE",
"412 522 OFFCURVE",
"287 522 CURVE SMOOTH",
"139 522 OFFCURVE",
"33 414 OFFCURVE",
"33 255 CURVE SMOOTH"
);
},
{
nodes = (
"169 330 LINE",
"175 437 OFFCURVE",
"218 507 OFFCURVE",
"276 507 CURVE SMOOTH",
"335 507 OFFCURVE",
"373 437 OFFCURVE",
"373 330 CURVE"
);
},
{
nodes = (
"111 637 OFFCURVE",
"145 603 OFFCURVE",
"186 603 CURVE SMOOTH",
"226 603 OFFCURVE",
"261 637 OFFCURVE",
"261 678 CURVE SMOOTH",
"261 719 OFFCURVE",
"226 753 OFFCURVE",
"186 753 CURVE SMOOTH",
"145 753 OFFCURVE",
"111 719 OFFCURVE",
"111 678 CURVE SMOOTH"
);
},
{
nodes = (
"309 637 OFFCURVE",
"343 603 OFFCURVE",
"384 603 CURVE SMOOTH",
"424 603 OFFCURVE",
"459 637 OFFCURVE",
"459 678 CURVE SMOOTH",
"459 719 OFFCURVE",
"424 753 OFFCURVE",
"384 753 CURVE SMOOTH",
"343 753 OFFCURVE",
"309 719 OFFCURVE",
"309 678 CURVE SMOOTH"
);
}
);
width = 537;
}
);
leftKerningGroup = c2;
rightKerningGroup = c;
unicode = 00EB;
},
{
glyphname = ucircumflex;
layers = (
{
hints = (
{
horizontal = 1;
place = "{-14, 40}";
type = Stem;
},
{
horizontal = 1;
place = "{0, 9}";
type = Stem;
},
{
horizontal = 1;
place = "{498, 10}";
type = Stem;
},
{
horizontal = 1;
place = "{546, -20}";
target = down;
type = TopGhost;
},
{
horizontal = 1;
place = "{714, 70}";
type = Stem;
},
{
place = "{68, 143}";
type = Stem;
},
{
place = "{405, 144}";
type = Stem;
}
);
layerId = "E71AC35F-0C69-4082-8C40-135C79A9FCEF";
paths = (
{
nodes = (
"405 124 LINE",
"372 65 OFFCURVE",
"324 26 OFFCURVE",
"283 26 CURVE SMOOTH",
"240 26 OFFCURVE",
"211 70 OFFCURVE",
"211 136 CURVE SMOOTH",
"211 546 LINE",
"201 546 LINE",
"187 523 OFFCURVE",
"158 508 OFFCURVE",
"87 508 CURVE SMOOTH",
"-13 508 LINE",
"-13 498 LINE",
"55 498 OFFCURVE",
"68 466 OFFCURVE",
"68 418 CURVE SMOOTH",
"68 146 LINE SMOOTH",
"68 50 OFFCURVE",
"127 -14 OFFCURVE",
"216 -14 CURVE SMOOTH",
"295 -14 OFFCURVE",
"372 33 OFFCURVE",
"407 101 CURVE",
"408 -28 LINE",
"413 -28 LINE",
"427 -6 OFFCURVE",
"460 0 OFFCURVE",
"530 0 CURVE SMOOTH",
"629 0 LINE",
"629 9 LINE",
"581 9 OFFCURVE",
"549 42 OFFCURVE",
"549 90 CURVE",
"550 546 LINE",
"540 546 LINE",
"526 523 OFFCURVE",
"496 508 OFFCURVE",
"426 508 CURVE SMOOTH",
"325 508 LINE",
"325 498 LINE",
"382 498 OFFCURVE",
"405 466 OFFCURVE",
"405 418 CURVE SMOOTH"
);
},
{
nodes = (
"330 784 LINE",
"279 784 LINE",
"152 588 LINE",
"159 581 LINE",
"305 714 LINE",
"451 581 LINE",
"458 588 LINE"
);
}
);
width = 612;
}
);
leftKerningGroup = u;
rightKerningGroup = d;
unicode = 00FB;
},
